<svg version="1.1" xmlns="http://www.w3.org/2000/svg" viewBox="0 0 1898.047035800082 889.3913709852436" width="1898.047035800082" height="889.3913709852436">
  <!-- svg-source:excalidraw -->
  
  <defs>
    <style>
      @font-face {
        font-family: "Virgil";
        src: url("https://excalidraw.com/Virgil.woff2");
      }
      @font-face {
        font-family: "Cascadia";
        src: url("https://excalidraw.com/Cascadia.woff2");
      }
    </style>
  </defs>
  <rect x="0" y="0" width="1898.047035800082" height="889.3913709852436" fill="#ffffff"></rect><g transform="translate(251.81871308221162 10) rotate(0 172 17.5)"><text x="0" y="25" font-family="Virgil, Segoe UI Emoji" font-size="28px" fill="#000000" text-anchor="start" style="white-space: pre;" direction="ltr">Multiple steps example 3</text></g><g transform="translate(407.96417289310193 113.01704231898384) rotate(0 7.5 17.5)"><text x="0" y="25" font-family="Virgil, Segoe UI Emoji" font-size="28px" fill="#000000" text-anchor="start" style="white-space: pre;" direction="ltr">e</text></g><g transform="translate(360.18639511532274 178.5725978745395) rotate(0 7 17.5)"><text x="0" y="25" font-family="Virgil, Segoe UI Emoji" font-size="28px" fill="#000000" text-anchor="start" style="white-space: pre;" direction="ltr">c</text></g><g transform="translate(474.630839559768 176.35037565231733) rotate(0 7.5 17.5)"><text x="0" y="25" font-family="Virgil, Segoe UI Emoji" font-size="28px" fill="#000000" text-anchor="start" style="white-space: pre;" direction="ltr">s</text></g><g transform="translate(323.5197284486567 235.239264541206) rotate(0 9.5 17.5)"><text x="0" y="25" font-family="Virgil, Segoe UI Emoji" font-size="28px" fill="#000000" text-anchor="start" style="white-space: pre;" direction="ltr">a</text></g><g transform="translate(455.7419506708811 239.68370898565036) rotate(0 6 17.5)"><text x="0" y="25" font-family="Virgil, Segoe UI Emoji" font-size="28px" fill="#000000" text-anchor="start" style="white-space: pre;" direction="ltr">r</text></g><g stroke-linecap="round"><g transform="translate(411.29750622643405 66.6281534300947) rotate(0 1.5174531058919456 19.61977388215155)"><path d="M2.42 1.33 C3.28 8.13, 2.75 33.68, 2.71 39.66 M0.28 -0.42 C0.94 5.7, 0.22 28.93, 0.13 35.67" stroke="#000000" stroke-width="1" fill="none"></path></g></g><g stroke-linecap="round"><g transform="translate(376.8530617819906 172.18370898565036) rotate(0 15.351713137109073 -12.798762027049861)"><path d="M-1.15 0.37 C3.42 -4.06, 21.21 -21.98, 26.66 -25.97 M3.42 -1.89 C8.92 -6.13, 27.22 -20.66, 31.85 -23.77" stroke="#000000" stroke-width="1" fill="none"></path></g></g><g stroke-linecap="round"><g transform="translate(424.630839559768 149.96148676342818) rotate(0 19.82892596758893 15.033511676225544)"><path d="M-0.96 0.71 C6.18 5.59, 33.68 23.74, 40.62 28.97 M3.71 -1.37 C10.74 3.83, 32.79 26.7, 38.72 31.44" stroke="#000000" stroke-width="1" fill="none"></path></g></g><g stroke-linecap="round"><g transform="translate(351.29750622643405 211.0725978745395) rotate(0 -8.066279414755172 10.343252045280451)"><path d="M-1.22 0.4 C-4.02 3.36, -16.9 16.64, -19.45 20.08 M3.31 -1.86 C1.57 1.19, -10.96 18.33, -14.55 22.54" stroke="#a61e4d" stroke-width="1" fill="none"></path></g></g><g stroke-linecap="round"><g transform="translate(471.29750622643405 206.06553074503927) rotate(0 -5.81244580225848 15.880911624429473)"><path d="M-1.86 -2.48 C-3.96 2.51, -12.61 25.29, -13.95 30.59 M2.32 2.35 C1.25 7.76, -6.35 29.33, -8.48 34.24" stroke="#a61e4d" stroke-width="1" fill="none"></path></g></g><g stroke-linecap="round"><g transform="translate(499.07528400421324 213.29482009676167) rotate(0 11.993293928147978 11.846307021213761)"><path d="M-1.37 -1 C3.31 2.67, 20.79 20.4, 25.35 24.21 M3.09 -4.01 C7.62 -0.08, 19.44 23.11, 23.01 27.71" stroke="#000000" stroke-width="1" fill="none"></path></g></g><g stroke-linecap="round"><g transform="translate(477.551614990869 277.55848081827526) rotate(0 10.507788858660206 17.97291667921695)"><path d="M0.89 -0.47 C4.29 5.55, 14.44 29.64, 17.99 35.59 M-2.07 -3.2 C2.39 3.34, 19.17 32.27, 23.08 39.14" stroke="#000000" stroke-width="1" fill="none"></path></g></g><g stroke-linecap="round"><g transform="translate(443.6803243530894 276.65852204499106) rotate(0 -12.143583328972 24.577098601834223)"><path d="M2.36 0 C-2.05 7.87, -19.48 40.83, -23.7 49.49 M0.2 -2.46 C-4.96 5.43, -22.45 42.06, -26.65 51.62" stroke="#000000" stroke-width="1" fill="none"></path></g></g><g stroke-linecap="round"><g transform="translate(387.96417289310193 215.51704231898384) rotate(0 12.57398961545232 10.005137415780837)"><path d="M1.42 -2.58 C6.04 0.55, 21.87 16.41, 26.41 20.11 M-1.26 2.19 C3.09 5.49, 19.16 19.4, 24.03 22.59" stroke="#000000" stroke-width="1" fill="none"></path></g></g><g stroke-linecap="round"><g transform="translate(347.96417289310193 274.4059312078725) rotate(0 12.078958911654809 18.075283480088046)"><path d="M-1.01 1.59 C3.04 6.64, 20.93 27.44, 25.17 32.82 M3.63 -0.02 C7.31 6.68, 20.16 29.96, 23.33 36.17" stroke="#000000" stroke-width="1" fill="none"></path></g></g><g stroke-linecap="round"><g transform="translate(313.5197284486567 266.62815343009515) rotate(0 -19.168263283293527 25.832536655585727)"><path d="M1.03 0.81 C-5.6 9.91, -31.11 44.2, -38.53 52.88 M-1.86 -1.21 C-8.74 7.24, -33.35 40.58, -39.37 48.83" stroke="#000000" stroke-width="1" fill="none"></path></g></g><g transform="translate(129.56625991397595 92.26781458325286) rotate(0 89 17.5)"><text x="0" y="25" font-family="Virgil, Segoe UI Emoji" font-size="28px" fill="#000000" text-anchor="start" style="white-space: pre;" direction="ltr">Existing tree</text></g><g transform="translate(595.1218154695289 144.49003680547503) rotate(0 158.5 17.5)"><text x="0" y="25" font-family="Virgil, Segoe UI Emoji" font-size="28px" fill="#000000" text-anchor="start" style="white-space: pre;" direction="ltr">Insert h into this tree</text></g><g transform="translate(637.5682086414818 209.7836492856386) rotate(0 138 17.5)"><text x="0" y="25" font-family="Virgil, Segoe UI Emoji" font-size="28px" fill="#000000" text-anchor="start" style="white-space: pre;" direction="ltr">1. find position for h</text></g><g stroke-linecap="round"><g transform="translate(780.9567372644078 248.95031595230512) rotate(0 -174.88700325841774 79.2801805813217)"><path d="M0 0 C-35.19 25.93, -152.87 138.21, -211.17 155.56 C-269.46 172.9, -326.67 112.65, -349.77 104.07 M0 0 C-35.19 25.93, -152.87 138.21, -211.17 155.56 C-269.46 172.9, -326.67 112.65, -349.77 104.07" stroke="#000000" stroke-width="1" fill="none"></path></g><g transform="translate(780.9567372644078 248.95031595230512) rotate(0 -174.88700325841774 79.2801805813217)"><path d="M-320.43 110.3 C-332.07 107.83, -343.7 105.36, -349.77 104.07 M-320.43 110.3 C-331.09 108.04, -341.75 105.77, -349.77 104.07" stroke="#000000" stroke-width="1" fill="none"></path></g><g transform="translate(780.9567372644078 248.95031595230512) rotate(0 -174.88700325841774 79.2801805813217)"><path d="M-331.3 127.71 C-338.63 118.33, -345.95 108.96, -349.77 104.07 M-331.3 127.71 C-338.01 119.12, -344.72 110.54, -349.77 104.07" stroke="#000000" stroke-width="1" fill="none"></path></g></g><g stroke-linecap="round" transform="translate(393.1237641970347 307.83920484119426) rotate(0 23.33333333333303 26.111111111111313)"><path d="M26.04 -0.15 C30.82 -0.07, 35.55 3.33, 39.07 7.19 C42.59 11.05, 46.7 17.26, 47.18 23.04 C47.67 28.81, 45.03 37.3, 41.99 41.85 C38.94 46.4, 33.73 49.15, 28.91 50.34 C24.1 51.54, 17.53 51.23, 13.08 49.01 C8.63 46.79, 4.4 41.92, 2.21 37.04 C0.02 32.16, -1.21 25.17, -0.06 19.73 C1.09 14.29, 3.64 7.37, 9.11 4.42 C14.59 1.47, 28.13 1.72, 32.78 2.04 C37.43 2.35, 37.35 5.87, 37.03 6.3" stroke="#000000" stroke-width="1.5" fill="none" stroke-dasharray="1.5 7"></path></g><g transform="translate(403.1237641970347 313.1169826189721) rotate(0 7 17.5)"><text x="0" y="25" font-family="Virgil, Segoe UI Emoji" font-size="28px" fill="#a61e4d" text-anchor="start" style="white-space: pre;" direction="ltr">h</text></g><g transform="translate(398.33333333333576 452.46155140135124) rotate(0 7.5 17.5)"><text x="0" y="25" font-family="Virgil, Segoe UI Emoji" font-size="28px" fill="#000000" text-anchor="start" style="white-space: pre;" direction="ltr">e</text></g><g transform="translate(337.2222222222226 512.4615514013503) rotate(0 7 17.5)"><text x="0" y="25" font-family="Virgil, Segoe UI Emoji" font-size="28px" fill="#000000" text-anchor="start" style="white-space: pre;" direction="ltr">c</text></g><g transform="translate(465.0000000000018 515.7948847346843) rotate(0 7.5 17.5)"><text x="0" y="25" font-family="Virgil, Segoe UI Emoji" font-size="28px" fill="#000000" text-anchor="start" style="white-space: pre;" direction="ltr">s</text></g><g transform="translate(313.8888888888905 574.683773623573) rotate(0 9.5 17.5)"><text x="0" y="25" font-family="Virgil, Segoe UI Emoji" font-size="28px" fill="#000000" text-anchor="start" style="white-space: pre;" direction="ltr">a</text></g><g transform="translate(430.5555555555602 576.9059958457951) rotate(0 9.5 17.5)"><text x="0" y="25" font-family="Virgil, Segoe UI Emoji" font-size="28px" fill="#000000" text-anchor="start" style="white-space: pre;" direction="ltr">R</text></g><g stroke-linecap="round"><g transform="translate(405 408.2948847346838) rotate(0 0.4373652869517173 18.20997778421065)"><path d="M0.45 -1.22 C0.79 4.52, 3.37 28.87, 3.63 34.55 M-2.76 4.29 C-2.7 10.41, 2.13 32.6, 2.69 37.64" stroke="#000000" stroke-width="1" fill="none"></path></g></g><g stroke-linecap="round"><g transform="translate(355.98667975395983 508.2050451270884) rotate(0 18.951494555730278 -12.204548583203632)"><path d="M-1.22 2.39 C5.28 -1.39, 32.68 -17.65, 39.12 -22.21 M3.31 1.22 C9.34 -3.49, 29.76 -22.78, 36.34 -26.8" stroke="#000000" stroke-width="1" fill="none"></path></g></g><g stroke-linecap="round"><g transform="translate(415.0000000000018 489.4059958457947) rotate(0 20.506893475465404 13.29852704140876)"><path d="M2.39 -1 C9.11 3.94, 34.83 23.51, 40.77 28.43 M0.24 -4.01 C6.62 1.28, 31.69 24.9, 38.95 30.61" stroke="#000000" stroke-width="1" fill="none"></path></g></g><g stroke-linecap="round"><g transform="translate(330.54044788223655 553.3238237720707) rotate(0 -3.7559169953647142 9.367636238139085)"><path d="M-1 0.77 C-2.66 3.28, -9.48 14, -11.16 17.45 M3.65 -1.28 C2.93 2.76, -4.67 16.95, -6.21 20.01" stroke="#a61e4d" stroke-width="1" fill="none"></path></g></g><g stroke-linecap="round"><g transform="translate(461.6666666666679 537.27150926983) rotate(0 -13.328248004618672 16.771658652566657)"><path d="M0.77 -2.68 C-4.2 3.16, -23.4 27.28, -27.43 33.99 M-2.25 2.04 C-6.55 8.21, -18.45 31.12, -22.09 36.22" stroke="#a61e4d" stroke-width="1" fill="none"></path></g></g><g stroke-linecap="round"><g transform="translate(489.4444444444471 552.7393291791286) rotate(0 12.646300568186689 12.271105081794985)"><path d="M-2.68 -1.97 C1.32 2.32, 18.09 22.54, 22.97 26.51 M1.07 3.14 C5.98 6.59, 23.92 19.21, 27.97 22.62" stroke="#000000" stroke-width="1" fill="none"></path></g></g><g stroke-linecap="round"><g transform="translate(459.31577201259734 612.8897075833611) rotate(0 14.557663519942253 19.14932523497805)"><path d="M-1.97 -2.58 C3.09 4.68, 26.35 33.51, 31.08 40.88" stroke="#000000" stroke-width="1.5" fill="none" stroke-dasharray="1.5 7"></path></g></g><g stroke-linecap="round"><g transform="translate(422.97408183163134 621.1326026913666) rotate(0 -4.815882055257589 19.84395267728746)"><path d="M-2.58 2.06 C-3.67 8.52, -8.2 30.92, -9.16 36.75 M1.21 0.72 C0.09 7.59, -9.1 32.61, -10.84 38.97" stroke="#a61e4d" stroke-width="1" fill="none"></path></g></g><g stroke-linecap="round"><g transform="translate(338.33333333333576 613.8504402902399) rotate(0 12.206101897826102 15.409352389636297)"><path d="M1.03 -2.59 C5.84 2.24, 22.58 25.04, 26.26 31.03 M-1.85 2.17 C2.98 7.09, 21.27 27.69, 25.01 33.41" stroke="#000000" stroke-width="1" fill="none"></path></g></g><g stroke-linecap="round"><g transform="translate(303.8888888888905 606.0726625124626) rotate(0 -21.107841085713062 26.51566638085569)"><path d="M-2.59 1.82 C-10.17 9.94, -37 41.44, -43.41 49.79 M1.2 0.34 C-5.71 8.73, -30.92 43.52, -38.26 52.7" stroke="#000000" stroke-width="1" fill="none"></path></g></g><g transform="translate(394.604035748378 652.561491701339) rotate(0 7 17.5)"><text x="0" y="25" font-family="Virgil, Segoe UI Emoji" font-size="28px" fill="#000000" text-anchor="start" style="white-space: pre;" direction="ltr">h</text></g><g transform="translate(10 699.1781882180117) rotate(0 301 17.5)"><text x="0" y="25" font-family="Virgil, Segoe UI Emoji" font-size="28px" fill="#a61e4d" text-anchor="start" style="white-space: pre;" direction="ltr">Addition of h causes R to have 2 red links</text></g><g stroke-linecap="round"><g transform="translate(356.4425004853201 545.4793499310786) rotate(0 15.814056841677939 14.064251053254566)"><path d="M1.17 -2.36 C6.85 2.36, 27.78 23, 33.26 28.35 M-1.63 2.54 C3.64 7.48, 24.77 25.55, 30.38 30.48" stroke="#000000" stroke-width="1" fill="none"></path></g></g><g stroke-linecap="round"><g transform="translate(605.4354940915364 629.3288999848637) rotate(357.11752488327795 55.650278103724304 -2.3357453077235277)"><path d="M-2.69 0.66 C16.55 0.67, 94.18 -0.31, 113.99 -0.61 M1.04 -1.46 C20.07 -2.29, 92.78 -5.86, 111.88 -5.27" stroke="#000000" stroke-width="1" fill="none"></path></g><g transform="translate(605.4354940915364 629.3288999848637) rotate(357.11752488327795 55.650278103724304 -2.3357453077235277)"><path d="M84.78 5.73 C91.74 6.74, 97.94 4.01, 112.86 -7.27 M84.88 4.72 C92.24 1.11, 98.23 -1.75, 111.53 -4.57" stroke="#000000" stroke-width="1" fill="none"></path></g><g transform="translate(605.4354940915364 629.3288999848637) rotate(357.11752488327795 55.650278103724304 -2.3357453077235277)"><path d="M84.49 -14.79 C91.42 -8.7, 97.7 -6.36, 112.86 -7.27 M84.59 -15.8 C92.07 -14.58, 98.12 -12.6, 111.53 -4.57" stroke="#000000" stroke-width="1" fill="none"></path></g></g><g transform="translate(570.2261789609829 560.9995875373493) rotate(357.11752488327795 88 17.5)"><text x="0" y="25" font-family="Virgil, Segoe UI Emoji" font-size="28px" fill="#a61e4d" text-anchor="start" style="white-space: pre;" direction="ltr">Right rotate</text></g><g transform="translate(914.8477117220555 568.9637251430072) rotate(0 7.5 17.5)"><text x="0" y="25" font-family="Virgil, Segoe UI Emoji" font-size="28px" fill="#000000" text-anchor="start" style="white-space: pre;" direction="ltr">e</text></g><g transform="translate(853.7366006109423 628.9637251430072) rotate(0 7 17.5)"><text x="0" y="25" font-family="Virgil, Segoe UI Emoji" font-size="28px" fill="#000000" text-anchor="start" style="white-space: pre;" direction="ltr">c</text></g><g transform="translate(1031.5143783887215 670.0748362541185) rotate(0 7.5 17.5)"><text x="0" y="25" font-family="Virgil, Segoe UI Emoji" font-size="28px" fill="#000000" text-anchor="start" style="white-space: pre;" direction="ltr">s</text></g><g transform="translate(830.4032672776102 691.1859473652298) rotate(0 9.5 17.5)"><text x="0" y="25" font-family="Virgil, Segoe UI Emoji" font-size="28px" fill="#000000" text-anchor="start" style="white-space: pre;" direction="ltr">a</text></g><g transform="translate(981.5143783887252 602.2970584763407) rotate(0 9.5 17.5)"><text x="0" y="25" font-family="Virgil, Segoe UI Emoji" font-size="28px" fill="#000000" text-anchor="start" style="white-space: pre;" direction="ltr">R</text></g><g stroke-linecap="round"><g transform="translate(921.5143783887197 524.7970584763402) rotate(0 0.037552057867742406 17.15743912363223)"><path d="M1.25 -2.42 C1.25 3.6, 2.07 30.29, 1.61 36.74 M-1.51 2.44 C-2 7.55, -1.33 26.15, -0.42 32.37" stroke="#000000" stroke-width="1" fill="none"></path></g></g><g stroke-linecap="round"><g transform="translate(872.5010581426795 624.7072188687448) rotate(0 19.44187702443105 -12.656674274416446)"><path d="M-2.42 0.37 C4.36 -4.12, 34.1 -21.67, 41.31 -25.68 M1.46 -1.9 C7.92 -6.26, 33.39 -20.34, 39.71 -23.52" stroke="#000000" stroke-width="1" fill="none"></path></g></g><g stroke-linecap="round"><g transform="translate(933.7366006109423 600.4422977469453) rotate(0 22.455728041994007 11.989492145932672)"><path d="M0.37 1.18 C7.3 5.69, 35.44 20.44, 42.85 24.62 M-2.87 -0.65 C4.77 3.19, 40.2 16.21, 47.78 19.98" stroke="#000000" stroke-width="1" fill="none"></path></g></g><g stroke-linecap="round"><g transform="translate(847.0548262709563 669.8259975137266) rotate(0 -4.245680109816931 9.611203361514754)"><path d="M1.18 -2.71 C0.28 0.35, -6.58 15.12, -7.8 18.69 M-1.62 2 C-2.61 5.43, -8.82 18.68, -9.67 21.93" stroke="#a61e4d" stroke-width="1" fill="none"></path></g></g><g stroke-linecap="round"><g transform="translate(1035.8913233016847 667.5185796476308) rotate(0 -14.530425160056893 -16.237178202395853)"><path d="M-2.71 0.68 C-7.34 -4.42, -23.34 -24.12, -27.45 -29.4 M1.02 -1.42 C-4.09 -7.37, -24.98 -28.81, -30.08 -33.16" stroke="#a61e4d" stroke-width="1" fill="none"></path></g></g><g stroke-linecap="round"><g transform="translate(1050.1368638674994 701.1403351742042) rotate(0 15.096550993496749 22.446363523733453)"><path d="M0.68 -0.72 C5.92 7.26, 27.54 37.34, 32.59 45.21 M-2.39 -3.59 C2.57 5.07, 26.28 39.55, 31.61 48.48" stroke="#000000" stroke-width="1" fill="none"></path></g></g><g stroke-linecap="round"><g transform="translate(1023.731719923243 687.6542739324541) rotate(0 -15.693424232623329 33.4257546369256)"><path d="M-0.72 2.32 C-5.38 12.96, -25.89 54.64, -30.66 64.53" stroke="#000000" stroke-width="1.5" fill="none" stroke-dasharray="1.5 7"></path></g></g><g stroke-linecap="round"><g transform="translate(972.5076454731279 639.2993162194507) rotate(0 -8.232014809137127 22.895292920947895)"><path d="M2.32 -0.67 C-0.62 7.67, -13.25 41.24, -16.94 49.29 M0.14 -3.5 C-3.17 4, -16.41 35.68, -18.78 44.63" stroke="#a61e4d" stroke-width="1" fill="none"></path></g></g><g stroke-linecap="round"><g transform="translate(854.8477117220555 730.3526140318959) rotate(0 12.214608962295642 16.167686343590503)"><path d="M-0.67 0.72 C3.64 5.54, 21.08 25.35, 25.1 31.21 M4.17 -1.35 C8.22 3.54, 20.39 28.18, 23.21 33.69" stroke="#000000" stroke-width="1" fill="none"></path></g></g><g stroke-linecap="round"><g transform="translate(820.4032672776102 722.5748362541185) rotate(0 -21.25522546466027 25.879670257005273)"><path d="M0.72 0.65 C-6.87 9.12, -36.68 41.45, -43.23 50.13 M-2.33 -1.46 C-9.26 7.46, -31.87 44.97, -37.98 53.22" stroke="#000000" stroke-width="1" fill="none"></path></g></g><g transform="translate(936.6739696926543 673.5081098874393) rotate(0 7 17.5)"><text x="0" y="25" font-family="Virgil, Segoe UI Emoji" font-size="28px" fill="#000000" text-anchor="start" style="white-space: pre;" direction="ltr">h</text></g><g stroke-linecap="round"><g transform="translate(871.5283074454674 657.6958093870207) rotate(0 9.574776814659344 11.502488047646466)"><path d="M-2.12 -0.99 C1.3 3.41, 18 22.9, 21.27 26.99 M1.92 -3.99 C5.14 -0.47, 18.22 17.9, 20.41 22.85" stroke="#000000" stroke-width="1" fill="none"></path></g></g><g transform="translate(672.9010752571903 809.3913709852436) rotate(0 261.5 35)"><text x="0" y="25" font-family="Virgil, Segoe UI Emoji" font-size="28px" fill="#a61e4d" text-anchor="start" style="white-space: pre;" direction="ltr">Now both the child link of R are red, </text><text x="0" y="60" font-family="Virgil, Segoe UI Emoji" font-size="28px" fill="#a61e4d" text-anchor="start" style="white-space: pre;" direction="ltr">so we flip the color</text></g><g stroke-linecap="round"><g transform="translate(1177.4395071028603 607.4728278645421) rotate(347.77070583598794 56.80068711079639 -0.9824747387319803)"><path d="M-1.13 1.03 C18.42 0.94, 95.5 -2.6, 114.73 -3 M3.45 -0.87 C22.95 -0.42, 94.82 -0.74, 113.03 -0.32" stroke="#000000" stroke-width="1" fill="none"></path></g><g transform="translate(1177.4395071028603 607.4728278645421) rotate(347.77070583598794 56.80068711079639 -0.9824747387319803)"><path d="M86.23 11.12 C88.31 8.56, 96.5 7.54, 112.43 -0.95 M82.93 8.4 C94.48 6.72, 105.49 1.76, 114.58 -0.93" stroke="#000000" stroke-width="1" fill="none"></path></g><g transform="translate(1177.4395071028603 607.4728278645421) rotate(347.77070583598794 56.80068711079639 -0.9824747387319803)"><path d="M86.39 -9.4 C88.08 -7.69, 96.23 -4.44, 112.43 -0.95 M83.09 -12.12 C94.65 -6.63, 105.6 -4.41, 114.58 -0.93" stroke="#000000" stroke-width="1" fill="none"></path></g></g><g transform="translate(1163.7965032562252 552.2125399903466) rotate(347.77070583598794 61.5 17.5)"><text x="0" y="25" font-family="Virgil, Segoe UI Emoji" font-size="28px" fill="#a61e4d" text-anchor="start" style="white-space: pre;" direction="ltr">Color flip</text></g><g transform="translate(1539.6552266014714 401.572169038986) rotate(0 7.5 17.5)"><text x="0" y="25" font-family="Virgil, Segoe UI Emoji" font-size="28px" fill="#000000" text-anchor="start" style="white-space: pre;" direction="ltr">e</text></g><g transform="translate(1478.5441154903583 461.572169038986) rotate(0 7 17.5)"><text x="0" y="25" font-family="Virgil, Segoe UI Emoji" font-size="28px" fill="#000000" text-anchor="start" style="white-space: pre;" direction="ltr">c</text></g><g transform="translate(1656.3218932681393 502.6832801500973) rotate(0 7.5 17.5)"><text x="0" y="25" font-family="Virgil, Segoe UI Emoji" font-size="28px" fill="#000000" text-anchor="start" style="white-space: pre;" direction="ltr">s</text></g><g transform="translate(1455.2107821570262 523.7943912612086) rotate(0 9.5 17.5)"><text x="0" y="25" font-family="Virgil, Segoe UI Emoji" font-size="28px" fill="#000000" text-anchor="start" style="white-space: pre;" direction="ltr">a</text></g><g transform="translate(1606.321893268143 434.9055023723199) rotate(0 9.5 17.5)"><text x="0" y="25" font-family="Virgil, Segoe UI Emoji" font-size="28px" fill="#000000" text-anchor="start" style="white-space: pre;" direction="ltr">R</text></g><g stroke-linecap="round"><g transform="translate(1546.3218932681357 357.405502372319) rotate(0 0.6890884178556007 18.40801700783709)"><path d="M-2.34 2.11 C-1.53 8.34, 3.45 30.86, 3.71 36.03 M1.59 0.79 C2.35 6.22, 2.25 25.59, 2.82 31.27" stroke="#000000" stroke-width="1" fill="none"></path></g></g><g stroke-linecap="round"><g transform="translate(1497.3085730220973 457.3156627647236) rotate(0 20.20434827834015 -11.244155969084886)"><path d="M2.11 2.47 C9.1 -1.3, 34.67 -21.17, 40.59 -24.96 M-0.19 1.35 C6.59 -1.91, 31.39 -18.13, 38.61 -22.41" stroke="#000000" stroke-width="1" fill="none"></path></g></g><g stroke-linecap="round"><g transform="translate(1558.5441154903583 433.0507416429241) rotate(0 24.635041998791166 11.013065236478269)"><path d="M2.47 0.47 C10.13 3.7, 35.94 17.84, 43.57 21.48 M0.37 -1.74 C9.12 1.55, 40.97 19.39, 48.9 23.77" stroke="#a61e4d" stroke-width="1" fill="none"></path></g></g><g stroke-linecap="round"><g transform="translate(1471.862341150374 502.4344414097054) rotate(0 -5.240457639168653 10.065084039445992)"><path d="M0.47 -1.98 C-1.71 1.29, -9.18 18.88, -10.95 22.11 M-2.72 3.11 C-4.24 6.89, -5.64 15.84, -5.89 18.57" stroke="#a61e4d" stroke-width="1" fill="none"></path></g></g><g stroke-linecap="round"><g transform="translate(1660.6988381811007 500.12702354361) rotate(0 -11.333518782681494 -15.504851274540442)"><path d="M-1.98 -2.47 C-6.4 -8.11, -19.58 -28.04, -24.03 -33.38 M2.14 2.37 C-2.63 -2.98, -20.62 -24.77, -24.8 -30.64" stroke="#000000" stroke-width="1" fill="none"></path></g></g><g stroke-linecap="round"><g transform="translate(1674.9443787469154 533.748779070183) rotate(0 15.826605944881067 24.073705644440224)"><path d="M-2.47 2.7 C2.22 10.35, 23.62 36.57, 28.61 43.9 M1.39 1.69 C6.96 9.82, 28.88 38.37, 34.12 46.45" stroke="#000000" stroke-width="1" fill="none"></path></g></g><g stroke-linecap="round"><g transform="translate(1648.5392348026598 520.2627178284333) rotate(0 -14.63866545068413 29.686917650353962)"><path d="M2.7 -1.65 C-2.3 8.93, -26.65 49.76, -31.98 61.03" stroke="#000000" stroke-width="1.5" fill="none" stroke-dasharray="1.5 7"></path></g></g><g stroke-linecap="round"><g transform="translate(1597.3151603525457 471.90776011542994) rotate(0 -11.047774830459275 23.71054705797974)"><path d="M-1.65 -1.98 C-4.65 5.8, -18.13 41.3, -20.44 49.4" stroke="#000000" stroke-width="1.5" fill="none" stroke-dasharray="1.5 7"></path></g></g><g stroke-linecap="round"><g transform="translate(1479.6552266014714 562.9610579278747) rotate(0 11.614430166987404 16.33636845114347)"><path d="M-1.98 -2.78 C1.77 3.4, 21.14 29.38, 25.21 35.46 M2.14 1.88 C5.34 7.45, 19.05 25.75, 23.39 31.6" stroke="#000000" stroke-width="1" fill="none"></path></g></g><g stroke-linecap="round"><g transform="translate(1445.2107821570262 555.1832801500973) rotate(0 -19.58642510506843 25.171531020137763)"><path d="M-2.78 0.76 C-9.01 9.28, -32.66 40.31, -38.99 49.1 M0.9 -1.29 C-5.35 7.7, -32.86 43.21, -40.07 51.63" stroke="#000000" stroke-width="1" fill="none"></path></g></g><g transform="translate(1561.4814845720703 506.1165537834181) rotate(0 7 17.5)"><text x="0" y="25" font-family="Virgil, Segoe UI Emoji" font-size="28px" fill="#000000" text-anchor="start" style="white-space: pre;" direction="ltr">h</text></g><g stroke-linecap="round"><g transform="translate(1497.7643937534576 494.58996756871375) rotate(0 17.3039724689188 15.742797885048503)"><path d="M2.12 -2.02 C8.38 3.44, 29.45 28.22, 34.78 33.5 M-0.17 3.06 C6 7.71, 27.35 24.97, 32.72 29.79" stroke="#000000" stroke-width="1" fill="none"></path></g></g><g transform="translate(1344.047035800082 638.0085723665029) rotate(0 272 17.5)"><text x="0" y="25" font-family="Virgil, Segoe UI Emoji" font-size="28px" fill="#a61e4d" text-anchor="start" style="white-space: pre;" direction="ltr">There is a right facing red link under e</text></g><g stroke-linecap="round"><g transform="translate(1571.762164307719 329.40657555215694) rotate(207.66343414092034 55.4468496378513 0.8100506913663139)"><path d="M-2.44 -1.53 C16.74 -1.57, 94.37 1.5, 113.34 1.39 M1.43 3.81 C20.36 2.91, 91.63 -1.63, 110.87 -2.19" stroke="#000000" stroke-width="1" fill="none"></path></g><g transform="translate(1571.762164307719 329.40657555215694) rotate(207.66343414092034 55.4468496378513 0.8100506913663139)"><path d="M81.02 8.82 C93.41 3.72, 94.89 1.24, 108.57 -3.88 M81.63 8.59 C92.36 7.52, 101.23 2.34, 111.37 -3.97" stroke="#000000" stroke-width="1" fill="none"></path></g><g transform="translate(1571.762164307719 329.40657555215694) rotate(207.66343414092034 55.4468496378513 0.8100506913663139)"><path d="M80.03 -11.68 C92.89 -11.89, 94.61 -9.51, 108.57 -3.88 M80.64 -11.91 C91.99 -6.97, 101.15 -6.13, 111.37 -3.97" stroke="#000000" stroke-width="1" fill="none"></path></g></g><g transform="translate(1575.699903329265 272.7160304773456) rotate(26.603348790896096 84.5 17.5)"><text x="0" y="25" font-family="Virgil, Segoe UI Emoji" font-size="28px" fill="#a61e4d" text-anchor="start" style="white-space: pre;" direction="ltr">Left rotate</text></g><g transform="translate(1313.7609643406158 117.72833622826602) rotate(0 7.5 17.5)"><text x="0" y="25" font-family="Virgil, Segoe UI Emoji" font-size="28px" fill="#000000" text-anchor="start" style="white-space: pre;" direction="ltr">e</text></g><g transform="translate(1272.6498532295045 185.50611400604384) rotate(0 7 17.5)"><text x="0" y="25" font-family="Virgil, Segoe UI Emoji" font-size="28px" fill="#000000" text-anchor="start" style="white-space: pre;" direction="ltr">c</text></g><g transform="translate(1434.872075451729 155.50611400604384) rotate(0 7.5 17.5)"><text x="0" y="25" font-family="Virgil, Segoe UI Emoji" font-size="28px" fill="#000000" text-anchor="start" style="white-space: pre;" direction="ltr">s</text></g><g transform="translate(1249.3165198961724 247.72833622826647) rotate(0 9.5 17.5)"><text x="0" y="25" font-family="Virgil, Segoe UI Emoji" font-size="28px" fill="#000000" text-anchor="start" style="white-space: pre;" direction="ltr">a</text></g><g transform="translate(1349.3165198961797 81.06166956159996) rotate(0 9.5 17.5)"><text x="0" y="25" font-family="Virgil, Segoe UI Emoji" font-size="28px" fill="#000000" text-anchor="start" style="white-space: pre;" direction="ltr">R</text></g><g stroke-linecap="round"><g transform="translate(1371.5387421183914 43.56166956159905) rotate(0 -5.520805614572055 17.655134867040033)"><path d="M-2.66 1.36 C-4.27 7.08, -10.49 27.34, -12.13 31.94 M1.09 -0.37 C0.64 6.06, -5.23 30.52, -6.52 35.68" stroke="#000000" stroke-width="1" fill="none"></path></g></g><g stroke-linecap="round"><g transform="translate(1286.0384053106682 177.91627439844797) rotate(0 12.488603472322666 -10.78903439188366)"><path d="M1.36 -1.47 C6.14 -5.27, 22.66 -21.81, 26.33 -25.48 M-1.35 3.9 C3.29 0.66, 19.19 -18.82, 24.2 -22.85" stroke="#000000" stroke-width="1" fill="none"></path></g></g><g stroke-linecap="round"><g transform="translate(1332.6498532295027 133.15600503481937) rotate(0 9.008779156642959 -9.490425364563635)"><path d="M-1.47 0.2 C1.32 -3.22, 11.16 -16.86, 14.08 -19.18 M2.93 -2.16 C6.86 -5.47, 17.58 -14.44, 19.49 -17.05" stroke="#a61e4d" stroke-width="1" fill="none"></path></g></g><g stroke-linecap="round"><g transform="translate(1265.9680788895203 226.36838637676328) rotate(0 -5.517808196018905 10.738048211622981)"><path d="M0.2 -1.84 C-1.9 1.67, -10.24 16.39, -11.24 19.59 M-3.13 3.34 C-4.54 7.48, -5.83 20.65, -6.33 23.31" stroke="#a61e4d" stroke-width="1" fill="none"></path></g></g><g stroke-linecap="round"><g transform="translate(1435.0844866274165 152.94985739955655) rotate(0 -28.863069842463574 -22.01767324694424)"><path d="M-1.84 -2.75 C-11.25 -9.85, -48.22 -35.73, -57.94 -42.41 M2.36 1.92 C-7.27 -5.91, -50.61 -37.78, -60.09 -45.96" stroke="#000000" stroke-width="1" fill="none"></path></g></g><g stroke-linecap="round"><g transform="translate(1454.6056720416163 187.68272403724086) rotate(0 15.101452795924615 22.051811642479606)"><path d="M-2.75 0.17 C2.71 7.78, 27.08 36.38, 32.96 43.8 M0.95 -2.2 C6.26 5.87, 27.01 38.08, 32.18 46.3" stroke="#000000" stroke-width="1" fill="none"></path></g></g><g stroke-linecap="round"><g transform="translate(1428.2005280973608 174.1966627954912) rotate(0 -15.94915230380684 33.87187024800937)"><path d="M0.17 2.69 C-4.87 14.16, -26.84 55.68, -32.07 66.06 M-3.18 1.68 C-7.17 12.65, -21.72 52.53, -26.8 62.28" stroke="#000000" stroke-width="1" fill="none"></path></g></g><g stroke-linecap="round"><g transform="translate(1326.4867882534327 144.46095346383527) rotate(0 19.507643438933428 16.669562080164724)"><path d="M2.69 -2.08 C9.53 3.3, 32.55 26.29, 38.31 32.44 M0.7 2.97 C7.63 8.7, 31.4 30.92, 37.3 35.42" stroke="#000000" stroke-width="1" fill="none"></path></g></g><g stroke-linecap="round"><g transform="translate(1273.7609643406176 286.89500289493253) rotate(0 10.58388296535395 17.769813314738258)"><path d="M-2.08 2.25 C1.77 7.56, 18.63 29.63, 23.24 34.53 M1.99 1.01 C5.34 6.66, 16.61 24.69, 20.35 30.17" stroke="#000000" stroke-width="1" fill="none"></path></g></g><g stroke-linecap="round"><g transform="translate(1239.3165198961724 279.11722511715516) rotate(0 -19.62357289008378 25.552186379540217)"><path d="M2.25 -1.2 C-4.85 7.86, -32.41 43.2, -39.91 52.3 M0.03 4.32 C-7.58 12.72, -35.35 40.48, -41.5 47.94" stroke="#000000" stroke-width="1" fill="none"></path></g></g><g transform="translate(1355.5872223112165 182.27272097269815) rotate(0 7 17.5)"><text x="0" y="25" font-family="Virgil, Segoe UI Emoji" font-size="28px" fill="#000000" text-anchor="start" style="white-space: pre;" direction="ltr">h</text></g><g stroke-linecap="round"><g transform="translate(1291.8701314926038 218.52391253577161) rotate(0 18.340705537928898 16.387325633685577)"><path d="M1.2 1.19 C6.29 6.96, 26.9 28.84, 32.78 33.4 M-1.6 -0.63 C4.2 4.5, 32.05 24.48, 38.28 29.63" stroke="#000000" stroke-width="1" fill="none"></path></g></g><g transform="translate(1011.3203993373372 27.809947702621685) rotate(0 159 60)"><text x="0" y="14" font-family="Virgil, Segoe UI Emoji" font-size="16px" fill="#5c940d" text-anchor="start" style="white-space: pre;" direction="ltr">Property restored</text><text x="0" y="34" font-family="Virgil, Segoe UI Emoji" font-size="16px" fill="#5c940d" text-anchor="start" style="white-space: pre;" direction="ltr"></text><text x="0" y="54" font-family="Virgil, Segoe UI Emoji" font-size="16px" fill="#5c940d" text-anchor="start" style="white-space: pre;" direction="ltr">- Every path from the root to leaf has</text><text x="0" y="74" font-family="Virgil, Segoe UI Emoji" font-size="16px" fill="#5c940d" text-anchor="start" style="white-space: pre;" direction="ltr">same number of black links</text><text x="0" y="94" font-family="Virgil, Segoe UI Emoji" font-size="16px" fill="#5c940d" text-anchor="start" style="white-space: pre;" direction="ltr"></text><text x="0" y="114" font-family="Virgil, Segoe UI Emoji" font-size="16px" fill="#5c940d" text-anchor="start" style="white-space: pre;" direction="ltr">- Red links are leaning left</text></g></svg>