<svg version="1.1" xmlns="http://www.w3.org/2000/svg" viewBox="0 0 1835.0307729925298 666.1868938037319" width="1835.0307729925298" height="666.1868938037319">
  <!-- svg-source:excalidraw -->
  
  <defs>
    <style>
      @font-face {
        font-family: "Virgil";
        src: url("https://excalidraw.com/Virgil.woff2");
      }
      @font-face {
        font-family: "Cascadia";
        src: url("https://excalidraw.com/Cascadia.woff2");
      }
    </style>
  </defs>
  <rect x="0" y="0" width="1835.0307729925298" height="666.1868938037319" fill="#ffffff"></rect><g transform="translate(10 10) rotate(0 172 17.5)"><text x="0" y="25" font-family="Virgil, Segoe UI Emoji" font-size="28px" fill="#000000" text-anchor="start" style="white-space: pre;" direction="ltr">Multiple steps example 2</text></g><g transform="translate(331.9659917354584 136.79605770110993) rotate(0 7 17.5)"><text x="0" y="25" font-family="Virgil, Segoe UI Emoji" font-size="28px" fill="#000000" text-anchor="start" style="white-space: pre;" direction="ltr">c</text></g><g transform="translate(281.9659917354584 191.29605770110993) rotate(0 9.5 17.5)"><text x="0" y="25" font-family="Virgil, Segoe UI Emoji" font-size="28px" fill="#000000" text-anchor="start" style="white-space: pre;" direction="ltr">a</text></g><g stroke-linecap="round"><g transform="translate(322.9659917354584 177.79605770110993) rotate(0 -9.44449315704378 14.226912726163846)"><path d="M2.07 1.73 C-1.73 6.31, -17.74 21.75, -20.96 25.81 M-0.25 0.2 C-3.33 5.22, -12.64 23.59, -15.62 28.26" stroke="#a61e4d" stroke-width="1" fill="none"></path></g></g><g stroke-linecap="round"><g transform="translate(335.9659917354584 82.79605770110993) rotate(0 0.4213923678175888 25.87489715181289)"><path d="M1.73 -1.96 C1.65 6.64, -1.58 44.74, -2.19 53.71 M-0.78 3.14 C0.16 10.76, 2.25 41, 3.03 49.63" stroke="#000000" stroke-width="1" fill="none"></path></g></g><g stroke-linecap="round"><g transform="translate(355.9659917354584 178.79605770110993) rotate(0 9.874897151813002 15.261276258416501)"><path d="M-1.96 -2.19 C1.31 2.54, 18.07 24.26, 21.71 30.11 M2.17 2.8 C5.04 7.68, 17.76 28.54, 20.4 32.71" stroke="#000000" stroke-width="1" fill="none"></path></g></g><g stroke-linecap="round"><g transform="translate(278.9659917354584 213.16246208471512) rotate(0 -15.606673942554153 28.65671967017431)"><path d="M-2.19 1.71 C-7.98 10.97, -28.35 45.21, -33.04 53.57 M1.82 0.17 C-3.23 10.08, -22.09 48.17, -27.66 57.14" stroke="#000000" stroke-width="1" fill="none"></path></g></g><g stroke-linecap="round"><g transform="translate(302.8232631287865 236.63049251736993) rotate(0 11.558392511789407 13.848595344297564)"><path d="M1.71 -1.89 C6.03 3.4, 20.5 24.21, 23.92 29.59 M-0.8 3.25 C3.3 7.87, 16.81 21.3, 21.62 25.05" stroke="#000000" stroke-width="1" fill="none"></path></g></g><g transform="translate(411.9659917354584 101.29605770110993) rotate(0 399.5 17.5)"><text x="0" y="25" font-family="Virgil, Segoe UI Emoji" font-size="28px" fill="#a61e4d" text-anchor="start" style="white-space: pre;" direction="ltr">Assume that there is already a red link between a and c</text></g><g transform="translate(421.0584631231086 156.5837192005572) rotate(0 158.5 17.5)"><text x="0" y="25" font-family="Virgil, Segoe UI Emoji" font-size="28px" fill="#a61e4d" text-anchor="start" style="white-space: pre;" direction="ltr">Insert b into this tree</text></g><g transform="translate(470.8362409008878 252.4726080894461) rotate(0 227 17.5)"><text x="0" y="25" font-family="Virgil, Segoe UI Emoji" font-size="28px" fill="#a61e4d" text-anchor="start" style="white-space: pre;" direction="ltr">1. Finding position of b and insert</text></g><g stroke-linecap="round" transform="translate(319.61401867866516 254.9726080894461) rotate(0 16 18.5)"><path d="M19.37 2.55 C22.57 3.32, 28.11 3.38, 29.93 6.62 C31.75 9.87, 30.99 17.8, 30.31 22.02 C29.63 26.24, 27.76 29.37, 25.84 31.96 C23.92 34.54, 22.27 36.92, 18.78 37.53 C15.29 38.14, 8.23 38.29, 4.9 35.64 C1.58 32.99, -0.57 25.57, -1.16 21.63 C-1.75 17.68, -0.43 14.99, 1.36 11.97 C3.15 8.94, 5.39 4.22, 9.57 3.47 C13.74 2.72, 22.44 5.13, 26.43 7.48 C30.42 9.82, 33.31 17.5, 33.49 17.55" stroke="#a61e4d" stroke-width="1.5" fill="none" stroke-dasharray="1.5 7"></path></g><g transform="translate(378.61401867866516 267.9726080894461) rotate(0 -7.5 14)" stroke="none" fill="#a61e4d"><path d="M -2.51,5.54 Q -2.51,5.54 -4.42,6.72 -6.33,7.90 -7.56,9.51 -8.79,11.13 -10.68,11.73 -12.56,12.33 -13.04,11.00 -13.52,9.68 -12.30,9.76 -11.08,9.84 -9.35,10.97 -7.61,12.09 -6.30,13.01 -4.99,13.92 -4.16,15.01 -3.32,16.10 -2.38,17.29 -1.44,18.48 -0.40,19.52 0.62,20.56 1.35,21.98 2.09,23.40 2.50,25.07 2.91,26.74 2.94,26.99 2.97,27.24 2.95,27.73 2.94,28.22 2.76,28.68 2.59,29.15 2.28,29.53 1.97,29.91 1.55,30.17 1.13,30.43 0.65,30.55 0.17,30.67 -0.31,30.62 -0.80,30.58 -1.25,30.38 -1.70,30.18 -2.07,29.85 -2.43,29.52 -2.67,29.09 -2.91,28.66 -3.00,28.17 -3.09,27.69 -3.02,27.20 -2.95,26.71 -2.73,26.27 -2.50,25.83 -2.15,25.49 -1.80,25.14 -1.36,24.92 -0.92,24.71 -0.43,24.65 0.05,24.58 0.54,24.68 1.02,24.77 1.45,25.02 1.87,25.27 2.20,25.64 2.53,26.00 2.72,26.46 2.91,26.91 2.95,27.40 2.98,27.90 2.86,28.37 2.74,28.85 2.47,29.26 2.20,29.68 1.81,29.98 1.43,30.29 0.96,30.46 0.50,30.62 0.01,30.63 -0.48,30.64 -0.95,30.50 -1.42,30.35 -1.81,30.06 -2.21,29.77 -2.50,29.36 -2.78,28.96 -2.92,28.49 -3.06,28.02 -3.10,27.77 -3.13,27.52 -3.33,26.10 -3.53,24.67 -4.46,23.85 -5.40,23.02 -6.86,21.27 -8.31,19.53 -9.10,18.57 -9.88,17.62 -10.89,16.52 -11.90,15.43 -13.29,14.92 -14.68,14.42 -15.65,13.75 -16.62,13.08 -16.96,11.49 -17.31,9.90 -15.18,8.66 -13.05,7.42 -11.83,7.32 -10.61,7.22 -9.60,5.96 -8.58,4.71 -7.06,3.60 -5.53,2.50 -3.32,0.32 -1.10,-1.84 -0.86,-1.94 -0.63,-2.05 -0.37,-2.09 -0.12,-2.14 0.13,-2.12 0.39,-2.11 0.64,-2.03 0.88,-1.95 1.10,-1.81 1.33,-1.68 1.51,-1.50 1.69,-1.31 1.82,-1.09 1.96,-0.87 2.03,-0.62 2.11,-0.37 2.12,-0.12 2.14,0.13 2.09,0.39 2.04,0.64 1.93,0.88 1.83,1.11 1.67,1.32 1.51,1.52 -0.50,3.53 L -2.51,5.54 Z"></path></g><g transform="translate(368.61401867866516 276.9726080894461) rotate(0 41 2)" stroke="none" fill="#a61e4d"><path d="M 0.28,-2.31 Q 0.28,-2.31 1.29,-2.66 2.30,-3.02 4.64,-2.02 6.97,-1.03 9.79,-0.66 12.61,-0.29 17.02,-0.08 21.43,0.12 25.44,0.81 29.46,1.51 33.35,1.81 37.24,2.10 39.85,2.54 42.45,2.97 44.35,3.12 46.25,3.26 47.35,3.22 48.46,3.17 50.20,3.03 51.95,2.90 53.36,2.77 54.78,2.64 56.26,2.54 57.74,2.44 58.95,2.35 60.16,2.27 61.90,2.21 63.63,2.15 65.87,2.14 68.11,2.14 69.58,2.09 71.05,2.03 72.13,1.98 73.22,1.93 74.74,1.87 76.25,1.81 77.65,1.79 79.04,1.78 79.77,1.37 80.51,0.96 81.03,0.85 81.56,0.75 82.09,0.82 82.63,0.88 83.11,1.12 83.60,1.35 83.98,1.73 84.36,2.11 84.61,2.59 84.85,3.07 84.93,3.60 85.01,4.13 84.91,4.66 84.81,5.19 84.55,5.66 84.29,6.13 83.89,6.49 83.50,6.86 83.01,7.07 82.51,7.29 81.98,7.34 81.44,7.39 80.92,7.26 80.39,7.14 79.94,6.85 79.48,6.57 79.14,6.15 78.80,5.73 78.61,5.23 78.42,4.73 78.40,4.19 78.38,3.65 78.53,3.14 78.69,2.62 79.00,2.18 79.31,1.74 79.74,1.42 80.18,1.11 80.69,0.94 81.20,0.78 81.74,0.79 82.28,0.80 82.79,0.98 83.29,1.16 83.71,1.50 84.14,1.83 84.43,2.28 84.72,2.73 84.86,3.25 84.99,3.77 84.95,4.31 84.92,4.85 84.71,5.34 84.50,5.84 84.14,6.24 83.79,6.65 83.32,6.91 82.86,7.18 82.36,7.24 81.87,7.30 80.67,7.75 79.47,8.21 77.86,8.20 76.25,8.18 74.74,8.12 73.22,8.06 72.13,8.01 71.05,7.96 69.58,7.90 68.11,7.85 66.84,7.86 65.57,7.88 63.68,7.83 61.79,7.79 60.41,7.72 59.04,7.64 57.54,7.55 56.04,7.45 54.57,7.33 53.09,7.20 51.74,7.03 50.39,6.86 49.31,6.73 48.24,6.60 47.11,6.41 45.99,6.22 44.00,6.03 42.00,5.83 39.52,5.46 37.03,5.08 32.99,4.84 28.95,4.59 25.13,4.01 21.31,3.42 16.76,3.33 12.20,3.24 8.82,2.89 5.43,2.54 3.72,1.85 2.01,1.16 1.22,1.52 0.42,1.89 0.19,1.91 -0.03,1.94 -0.27,1.91 -0.50,1.87 -0.71,1.79 -0.93,1.70 -1.12,1.56 -1.31,1.42 -1.46,1.25 -1.62,1.07 -1.72,0.86 -1.83,0.65 -1.88,0.42 -1.93,0.19 -1.92,-0.03 -1.92,-0.27 -1.86,-0.49 -1.80,-0.72 -1.69,-0.93 -1.57,-1.13 -1.41,-1.30 -1.25,-1.47 -1.06,-1.60 -0.86,-1.73 -0.29,-2.02 L 0.28,-2.31 Z"></path></g><g transform="translate(332.00290756755385 264.4726080894461) rotate(0 7 17.5)"><text x="0" y="25" font-family="Virgil, Segoe UI Emoji" font-size="28px" fill="#a61e4d" text-anchor="start" style="white-space: pre;" direction="ltr">b</text></g><g transform="translate(764.2806853453312 162.4726080894461) rotate(0 290 17.5)"><text x="0" y="25" font-family="Virgil, Segoe UI Emoji" font-size="28px" fill="#a61e4d" text-anchor="start" style="white-space: pre;" direction="ltr">Note: every addition comes with a red link</text></g><g transform="translate(342.29000520706177 390.634332895278) rotate(0 7 17.5)"><text x="0" y="25" font-family="Virgil, Segoe UI Emoji" font-size="28px" fill="#000000" text-anchor="start" style="white-space: pre;" direction="ltr">c</text></g><g transform="translate(292.29000520706177 445.134332895278) rotate(0 9.5 17.5)"><text x="0" y="25" font-family="Virgil, Segoe UI Emoji" font-size="28px" fill="#000000" text-anchor="start" style="white-space: pre;" direction="ltr">a</text></g><g stroke-linecap="round"><g transform="translate(333.29000520706177 431.634332895278) rotate(0 -10.061834895238007 14.467771952971816)"><path d="M1.16 -1.75 C-2.21 2.91, -17.58 25.64, -21.28 30.69 M-1.65 3.46 C-4.07 8.61, -13.84 22.39, -16.12 27.14" stroke="#a61e4d" stroke-width="1" fill="none"></path></g></g><g stroke-linecap="round"><g transform="translate(346.29000520706177 336.634332895278) rotate(0 0.46777195297181606 25.070991251654846)"><path d="M-1.75 -2.28 C-1.75 5.84, 2.31 40.55, 2.69 49.92 M2.49 2.65 C2.12 10.97, 2.49 44.63, 1.91 52.43" stroke="#000000" stroke-width="1" fill="none"></path></g></g><g stroke-linecap="round"><g transform="translate(366.29000520706177 432.634332895278) rotate(0 10.457320899702609 17.111542818211092)"><path d="M-2.28 2.69 C0.51 8.41, 13.89 27.52, 17.92 32.54 M1.67 1.68 C5.24 6.65, 19.95 23.48, 23.2 27.82" stroke="#000000" stroke-width="1" fill="none"></path></g></g><g stroke-linecap="round"><g transform="translate(279.29000520706177 485.634332895278) rotate(0 -11.356520807333254 16.92599886693074)"><path d="M2.69 -2.08 C-0.93 4.29, -19.15 30.37, -23.46 35.93 M0.71 2.97 C-3.08 8.76, -21.2 26.97, -25.4 31.96" stroke="#000000" stroke-width="1" fill="none"></path></g></g><g stroke-linecap="round"><g transform="translate(313.29000520706177 490.634332895278) rotate(0 12.425998866930513 14.104056626222928)"><path d="M-2.08 0.54 C2.79 5.07, 22.87 24.64, 26.93 29.84 M1.99 -1.63 C6.87 3.21, 21.46 20.39, 25.74 25.29" stroke="#a61e4d" stroke-width="1" fill="none"></path></g></g><g stroke-linecap="round" transform="translate(266.93803215026855 428.8108832836142) rotate(0 48 47.5)"><path d="M60.5 0.45 C68.83 2.1, 78.66 11.06, 84.57 18.16 C90.48 25.26, 95.04 34.58, 95.93 43.06 C96.83 51.54, 93.34 61.29, 89.94 69.03 C86.54 76.77, 82.46 85.08, 75.53 89.47 C68.6 93.87, 57.52 95.84, 48.38 95.4 C39.23 94.97, 28.05 91.91, 20.65 86.86 C13.26 81.81, 7.69 72.7, 4 65.1 C0.32 57.5, -2.9 49.14, -1.47 41.24 C-0.04 33.34, 6.68 24.07, 12.59 17.67 C18.5 11.28, 25.97 5.75, 33.99 2.86 C42.01 -0.03, 51.74 -3.14, 60.7 0.34 C69.66 3.82, 82.43 14.2, 87.75 23.74 C93.07 33.27, 93.11 57.01, 92.62 57.54" stroke="#a61e4d" stroke-width="1.5" fill="none" stroke-dasharray="1.5 7"></path></g><g transform="translate(343.43803215026855 518.3108832836142) rotate(0 7 17.5)"><text x="0" y="25" font-family="Virgil, Segoe UI Emoji" font-size="28px" fill="#000000" text-anchor="start" style="white-space: pre;" direction="ltr">b</text></g><g transform="translate(67.61401867866516 586.1868938037319) rotate(0 175.5 35)"><text x="0" y="25" font-family="Virgil, Segoe UI Emoji" font-size="28px" fill="#a61e4d" text-anchor="start" style="white-space: pre;" direction="ltr">Problem : node 'a' has a </text><text x="0" y="60" font-family="Virgil, Segoe UI Emoji" font-size="28px" fill="#a61e4d" text-anchor="start" style="white-space: pre;" direction="ltr">right leaning red link</text></g><g transform="translate(647.4739723422426 383.9581483169013) rotate(0 7 17.5)"><text x="0" y="25" font-family="Virgil, Segoe UI Emoji" font-size="28px" fill="#000000" text-anchor="start" style="white-space: pre;" direction="ltr">c</text></g><g transform="translate(601.1103359786066 442.13996649871933) rotate(0 7 17.5)"><text x="0" y="25" font-family="Virgil, Segoe UI Emoji" font-size="28px" fill="#000000" text-anchor="start" style="white-space: pre;" direction="ltr">b</text></g><g stroke-linecap="round"><g transform="translate(655.6557905240625 339.1854210441743) rotate(0 -0.41679149515857716 19.31356456493461)"><path d="M-2.35 -0.19 C-2.81 7.11, -0.53 34.88, -0.03 41.38 M1.58 -2.76 C0.65 3.84, -1.06 29.37, -1.3 36.63" stroke="#000000" stroke-width="1" fill="none"></path></g></g><g stroke-linecap="round"><g transform="translate(642.9285177967904 423.73087558962834) rotate(0 -8.321698317465234 9.898991621613732)"><path d="M-0.19 1.78 C-2.2 5.43, -11.67 16.66, -14.48 19.51 M-3.73 0.28 C-5.86 3.4, -15.19 13.47, -16.46 15.82" stroke="#a61e4d" stroke-width="1" fill="none"></path></g></g><g stroke-linecap="round"><g transform="translate(673.4319050312151 426.27075109698217) rotate(0 16.322765419458847 14.78712000207463)"><path d="M1.78 0.48 C7.73 5.31, 28.18 23.28, 33.34 28.82 M-0.69 -1.74 C5.31 3.41, 26.98 26.07, 32.42 31.31" stroke="#000000" stroke-width="1" fill="none"></path></g></g><g stroke-linecap="round"><g transform="translate(594.3409959403034 480.8162056424371) rotate(0 -15.808847307786436 18.374588330106917)"><path d="M0.48 2.43 C-4.84 8.04, -27.48 29.86, -32.09 35.47 M-2.71 1.28 C-7.13 5.94, -22.69 26.35, -26.83 31.46" stroke="#a61e4d" stroke-width="1" fill="none"></path></g></g><g stroke-linecap="round"><g transform="translate(629.7955413948512 480.8162056424371) rotate(0 11.068299881629628 16.25485021780173)"><path d="M2.43 -2.09 C5.77 3.6, 18.5 28.76, 21.84 34.6 M0.3 2.94 C3.27 7.88, 16.98 26.92, 20.59 31.1" stroke="#000000" stroke-width="1" fill="none"></path></g></g><g transform="translate(542.5228141221232 506.8239778930465) rotate(0 9.5 17.5)"><text x="0" y="25" font-family="Virgil, Segoe UI Emoji" font-size="28px" fill="#000000" text-anchor="start" style="white-space: pre;" direction="ltr">a</text></g><g stroke-linecap="round" transform="translate(508.2948115184372 442.58993880799517) rotate(316.39718102729574 92.72727272727298 33.10344827586164)"><path d="M163.02 11.57 C172.43 14.55, 180.09 18.93, 183.01 24.02 C185.93 29.11, 183.88 36.69, 180.54 42.1 C177.19 47.5, 172.02 52.65, 162.94 56.45 C153.86 60.25, 139.42 63.55, 126.07 64.88 C112.71 66.21, 96.99 65.04, 82.83 64.44 C68.68 63.85, 53.05 63.67, 41.13 61.31 C29.2 58.96, 18.18 54.51, 11.28 50.32 C4.37 46.12, 0.08 41.16, -0.31 36.14 C-0.7 31.12, 3.43 25.33, 8.94 20.21 C14.45 15.1, 21.92 9, 32.75 5.46 C43.59 1.93, 59.87 -0.25, 73.94 -1 C88.02 -1.75, 103.44 -0.48, 117.21 0.97 C130.99 2.42, 145.1 1.52, 156.6 7.69 C168.09 13.85, 188.42 29.2, 186.2 37.96 C183.97 46.71, 145.15 60.03, 143.24 60.21" stroke="#a61e4d" stroke-width="1.5" fill="none" stroke-dasharray="1.5 7"></path></g><g stroke-linecap="round"><g transform="translate(538.9103675538718 537.8453373389211) rotate(0 -12.740526142693852 20.270103827467892)"><path d="M2.78 2.46 C-1.31 8.69, -21.29 33.28, -26.64 39.21 M0.85 1.33 C-3.32 6.48, -22.8 27.91, -28.27 34.51" stroke="#000000" stroke-width="1" fill="none"></path></g></g><g stroke-linecap="round"><g transform="translate(564.688909360144 541.0963928423421) rotate(0 10.278533928619709 11.999987696606013)"><path d="M2.46 1.12 C5.17 4.47, 15.68 19.04, 18.1 22.88" stroke="#000000" stroke-width="1.5" fill="none" stroke-dasharray="1.5 7"></path></g></g><g stroke-linecap="round"><g transform="translate(387.3585467338562 430.0252242088318) rotate(0 90.17167704850453 0.5828083536028998)"><path d="M1.12 0.56 C30.07 0.06, 147.05 -0.04, 176.48 -0.56 M-1.71 -1.6 C27.92 -0.45, 152.48 2.65, 182.05 2.76" stroke="#000000" stroke-width="1" fill="none"></path></g><g transform="translate(387.3585467338562 430.0252242088318) rotate(0 90.17167704850453 0.5828083536028998)"><path d="M154.5 10.38 C164.05 8.01, 172.47 0.52, 183.55 4.24 M152.8 10.95 C162.66 8.97, 173.39 5.5, 181.59 3.9" stroke="#000000" stroke-width="1" fill="none"></path></g><g transform="translate(387.3585467338562 430.0252242088318) rotate(0 90.17167704850453 0.5828083536028998)"><path d="M154.84 -10.14 C164.61 -4.31, 172.9 -3.61, 183.55 4.24 M153.14 -9.57 C162.75 -3.93, 173.35 0.22, 181.59 3.9" stroke="#000000" stroke-width="1" fill="none"></path></g></g><g transform="translate(395.3585467338562 367.5252242088318) rotate(0 95 17.5)"><text x="0" y="25" font-family="Virgil, Segoe UI Emoji" font-size="28px" fill="#000000" text-anchor="start" style="white-space: pre;" direction="ltr">1 Left rotate</text></g><g stroke-linecap="round"><g transform="translate(317.88047909736633 557.6896934509268) rotate(0 11.095714259520264 -12.576978701725693)"><path d="M-1.52 -0.56 C2.24 -4.75, 19.93 -21.19, 23.71 -24.59" stroke="#000000" stroke-width="1.5" fill="none" stroke-dasharray="1.5 7"></path></g></g><g stroke-linecap="round"><g transform="translate(365.88047909736633 538.6896934509268) rotate(0 7.545680557489504 6.206190570592753)"><path d="M-0.56 -0.29 C1.75 2.17, 11.31 10.32, 14.41 13.21 M-4.31 -2.91 C-1.22 -0.09, 15.88 12.83, 19.4 15.32" stroke="#000000" stroke-width="1" fill="none"></path></g></g><g stroke-linecap="round"><g transform="translate(750.9314776908723 423.6957188969109) rotate(0 56.10228595100352 -1.4019865238666398)"><path d="M-2.59 -2.79 C16.63 -2.78, 95.07 -0.33, 114.8 -0.22 M1.2 1.86 C20.19 1.04, 94.16 -4.45, 113.13 -4.67" stroke="#000000" stroke-width="1" fill="none"></path></g><g transform="translate(750.9314776908723 423.6957188969109) rotate(0 56.10228595100352 -1.4019865238666398)"><path d="M81.46 8.39 C94.69 7.02, 99.73 2.88, 111.33 -7.88 M85.94 6.43 C92.6 5.84, 97.96 0.86, 111.14 -3.93" stroke="#000000" stroke-width="1" fill="none"></path></g><g transform="translate(750.9314776908723 423.6957188969109) rotate(0 56.10228595100352 -1.4019865238666398)"><path d="M80.5 -12.11 C93.96 -7.72, 99.27 -6.12, 111.33 -7.88 M84.98 -14.07 C91.92 -10.16, 97.49 -10.66, 111.14 -3.93" stroke="#000000" stroke-width="1" fill="none"></path></g></g><g transform="translate(1082.6652338831627 438.6016083703662) rotate(0 7 17.5)"><text x="0" y="25" font-family="Virgil, Segoe UI Emoji" font-size="28px" fill="#000000" text-anchor="start" style="white-space: pre;" direction="ltr">c</text></g><g transform="translate(1009.0288702467988 385.8743356430941) rotate(0 7 17.5)"><text x="0" y="25" font-family="Virgil, Segoe UI Emoji" font-size="28px" fill="#000000" text-anchor="start" style="white-space: pre;" direction="ltr">b</text></g><g stroke-linecap="round"><g transform="translate(1013.574324792251 327.46524473400405) rotate(0 0.5734437023484134 29.167217796055525)"><path d="M1.03 1.99 C2 11.44, 2.74 49.04, 3 57.73 M-1.85 0.61 C-1.09 9.13, -0.04 44.22, 0.29 53.45" stroke="#000000" stroke-width="1" fill="none"></path></g></g><g stroke-linecap="round"><g transform="translate(1077.8925066104348 455.14780621847694) rotate(0 -20.109594241852847 -17.480654344874438)"><path d="M1.99 -0.86 C-4.97 -6.72, -32.99 -28.39, -40.71 -34.1 M-0.37 -3.8 C-7.67 -9.38, -35.82 -26.25, -42.21 -31.15" stroke="#a61e4d" stroke-width="1" fill="none"></path></g></g><g stroke-linecap="round"><g transform="translate(1108.623166572128 475.6629416218884) rotate(0 15.302004231479259 12.97465704948604)"><path d="M-0.86 1.36 C4.21 5.01, 26.25 19.7, 31.47 23.91 M3.86 -0.37 C8.35 3.38, 23.18 21.26, 28.55 26.32" stroke="#000000" stroke-width="1" fill="none"></path></g></g><g stroke-linecap="round"><g transform="translate(1002.2595302084956 424.550574786811) rotate(0 -15.444651383534165 16.248450107218787)"><path d="M1.36 -1.26 C-4.35 4.11, -27.1 25.88, -32.25 31.36 M-1.34 4.23 C-6.37 9.95, -22.11 28.85, -27.07 33.76" stroke="#a61e4d" stroke-width="1" fill="none"></path></g></g><g stroke-linecap="round"><g transform="translate(1078.6231665721316 479.0960293322669) rotate(0 -18.130570936913955 21.828486033088893)"><path d="M-1.26 -2.25 C-6.95 5.17, -29.43 37.84, -35 45.91" stroke="#000000" stroke-width="1.5" fill="none" stroke-dasharray="1.5 7"></path></g></g><g transform="translate(950.4413483903118 450.5583470374213) rotate(0 9.5 17.5)"><text x="0" y="25" font-family="Virgil, Segoe UI Emoji" font-size="28px" fill="#000000" text-anchor="start" style="white-space: pre;" direction="ltr">a</text></g><g stroke-linecap="round"><g transform="translate(948.7852535849597 478.8001598217061) rotate(0 -16.515876431617016 22.64149666210801)"><path d="M-2.27 0.45 C-7.85 8.67, -29.53 39.14, -34.72 47.05 M1.69 -1.77 C-2.89 5.76, -23.19 34.91, -29.4 42.41" stroke="#000000" stroke-width="1" fill="none"></path></g></g><g stroke-linecap="round"><g transform="translate(972.4216172213237 479.709250730798) rotate(0 9.426117304539275 18.04418896791276)"><path d="M0.45 -1.99 C4.43 4.19, 17.92 28.31, 21.6 34.8 M-2.74 3.1 C1.12 9.91, 15.68 33.22, 19.73 38.08" stroke="#000000" stroke-width="1" fill="none"></path></g></g><g transform="translate(869.7782726889782 579.245531492862) rotate(0 211 35)"><text x="0" y="25" font-family="Virgil, Segoe UI Emoji" font-size="28px" fill="#a61e4d" text-anchor="start" style="white-space: pre;" direction="ltr">Problem: We have a node with </text><text x="0" y="60" font-family="Virgil, Segoe UI Emoji" font-size="28px" fill="#a61e4d" text-anchor="start" style="white-space: pre;" direction="ltr">2 red links</text></g><g transform="translate(721.4977323327803 355.2839595420037) rotate(0 88 17.5)"><text x="0" y="25" font-family="Virgil, Segoe UI Emoji" font-size="28px" fill="#a61e4d" text-anchor="start" style="white-space: pre;" direction="ltr">Right rotate</text></g><g transform="translate(1348.1637997720209 448.72168653507015) rotate(0 9.5 17.5)"><text x="0" y="25" font-family="Virgil, Segoe UI Emoji" font-size="28px" fill="#000000" text-anchor="start" style="white-space: pre;" direction="ltr">a</text></g><g transform="translate(1408.1637997720209 395.6744383016221) rotate(0 7 17.5)"><text x="0" y="25" font-family="Virgil, Segoe UI Emoji" font-size="28px" fill="#000000" text-anchor="start" style="white-space: pre;" direction="ltr">b</text></g><g stroke-linecap="round"><g transform="translate(1399.0728906811091 427.585322898708) rotate(0 -13.38341085331649 12.096280597692385)"><path d="M1.51 0.62 C-3.09 4.29, -23.81 19.7, -28.28 23.58 M-1.11 -1.51 C-4.76 2.24, -18.67 21.17, -22.92 25.7" stroke="#000000" stroke-width="1" fill="none"></path></g></g><g stroke-linecap="round"><g transform="translate(1411.8001634083848 347.585322898708) rotate(0 1.1763217972620623 16.83072664558199)"><path d="M0.62 -1.92 C0.35 3.76, 0 29.35, -0.05 35.58 M-2.48 3.21 C-2.09 7.89, 3.46 26.59, 4.84 31.13" stroke="#a61e4d" stroke-width="1" fill="none"></path></g></g><g stroke-linecap="round"><g transform="translate(1437.254708862929 433.03986835325213) rotate(0 10.467090281946184 13.084885636666286)"><path d="M-1.92 -2.78 C1.64 1.56, 18.74 21.37, 22.85 26.65 M2.24 1.88 C5.38 6.42, 17.98 23.95, 21.17 28.95" stroke="#000000" stroke-width="1" fill="none"></path></g></g><g stroke-linecap="round"><g transform="translate(1337.254708862929 483.03986835325213) rotate(0 -12.587846011163947 21.383376928645703)"><path d="M-2.78 1.03 C-7.23 8.63, -22.57 36.25, -26.08 43.64 M0.9 -0.88 C-2.76 6.02, -16.56 32.1, -21 39.13" stroke="#000000" stroke-width="1" fill="none"></path></g></g><g stroke-linecap="round"><g transform="translate(1372.7092543174767 493.03986835325213) rotate(0 9.986179389258723 17.257355683164633)"><path d="M1.03 -2.44 C4.99 3.59, 18.07 27.61, 21.82 33.44 M-1.85 2.4 C1.99 9.16, 15.91 31.52, 20.08 36.96" stroke="#000000" stroke-width="1" fill="none"></path></g></g><g transform="translate(1460.891072499293 455.085322898708) rotate(0 7 17.5)"><text x="0" y="25" font-family="Virgil, Segoe UI Emoji" font-size="28px" fill="#000000" text-anchor="start" style="white-space: pre;" direction="ltr">c</text></g><g stroke-linecap="round"><g transform="translate(1450.891072499293 493.03986835325213) rotate(0 -6.795411028472245 13.662180851074709)"><path d="M0.91 -0.2 C-1.54 4.72, -11.25 22.38, -13.71 27.07 M-2.03 -2.78 C-4.72 2.75, -12.47 24.48, -14.51 30.1" stroke="#000000" stroke-width="1" fill="none"></path></g></g><g stroke-linecap="round"><g transform="translate(1481.8001634083848 489.40350471689) rotate(0 11.205693467180936 16.171172500709872)"><path d="M-0.2 2.65 C4.57 7.62, 21.62 26.2, 26.16 30.71 M-3.75 1.63 C0.76 5.78, 18.51 23.17, 23.32 27.08" stroke="#000000" stroke-width="1" fill="none"></path></g></g><g stroke-linecap="round"><g transform="translate(1179.7169171312453 422.828743567331) rotate(0 58.46715677950533 -1.0706600168347222)"><path d="M2.65 -1.11 C21.88 -1.32, 97.5 -1.42, 116.28 -1.47 M0.65 -4.18 C19.65 -3.91, 96.47 1.08, 115.42 2.04" stroke="#000000" stroke-width="1" fill="none"></path></g><g transform="translate(1179.7169171312453 422.828743567331) rotate(0 58.46715677950533 -1.0706600168347222)"><path d="M85.1 14.27 C95.94 9.49, 105.55 3.42, 118.26 4.45 M87.83 9.63 C93.12 7.4, 96.73 8.01, 113.99 0.56" stroke="#000000" stroke-width="1" fill="none"></path></g><g transform="translate(1179.7169171312453 422.828743567331) rotate(0 58.46715677950533 -1.0706600168347222)"><path d="M86.29 -6.22 C96.7 -4.16, 105.92 -3.41, 118.26 4.45 M89.02 -10.85 C93.75 -8.9, 97.11 -4.1, 113.99 0.56" stroke="#000000" stroke-width="1" fill="none"></path></g></g><g transform="translate(1174.0673079583576 366.5085352291562) rotate(0 61.5 17.5)"><text x="0" y="25" font-family="Virgil, Segoe UI Emoji" font-size="28px" fill="#a61e4d" text-anchor="start" style="white-space: pre;" direction="ltr">Color flip</text></g><g transform="translate(1507.0307729925298 339.59122819371214) rotate(0 159 60)"><text x="0" y="14" font-family="Virgil, Segoe UI Emoji" font-size="16px" fill="#5c940d" text-anchor="start" style="white-space: pre;" direction="ltr">Property restored</text><text x="0" y="34" font-family="Virgil, Segoe UI Emoji" font-size="16px" fill="#5c940d" text-anchor="start" style="white-space: pre;" direction="ltr"></text><text x="0" y="54" font-family="Virgil, Segoe UI Emoji" font-size="16px" fill="#5c940d" text-anchor="start" style="white-space: pre;" direction="ltr">- Every path from the root to leaf has</text><text x="0" y="74" font-family="Virgil, Segoe UI Emoji" font-size="16px" fill="#5c940d" text-anchor="start" style="white-space: pre;" direction="ltr">same number of black links</text><text x="0" y="94" font-family="Virgil, Segoe UI Emoji" font-size="16px" fill="#5c940d" text-anchor="start" style="white-space: pre;" direction="ltr"></text><text x="0" y="114" font-family="Virgil, Segoe UI Emoji" font-size="16px" fill="#5c940d" text-anchor="start" style="white-space: pre;" direction="ltr">- Red links are leaning left</text></g><g transform="translate(439.44994492948535 580.7655243490676) rotate(0 190.5 35)"><text x="0" y="25" font-family="Virgil, Segoe UI Emoji" font-size="28px" fill="#a61e4d" text-anchor="start" style="white-space: pre;" direction="ltr">Problem : 2 linearly aligned </text><text x="0" y="60" font-family="Virgil, Segoe UI Emoji" font-size="28px" fill="#a61e4d" text-anchor="start" style="white-space: pre;" direction="ltr">red link connected to b</text></g></svg>