<svg version="1.1" xmlns="http://www.w3.org/2000/svg" viewBox="0 0 1411.5793465268443 757.5529902332269" width="1411.5793465268443" height="757.5529902332269">
  <!-- svg-source:excalidraw -->
  
  <defs>
    <style>
      @font-face {
        font-family: "Virgil";
        src: url("https://excalidraw.com/Virgil.woff2");
      }
      @font-face {
        font-family: "Cascadia";
        src: url("https://excalidraw.com/Cascadia.woff2");
      }
    </style>
  </defs>
  <rect x="0" y="0" width="1411.5793465268443" height="757.5529902332269" fill="#ffffff"></rect><g transform="translate(11.306942179359794 10) rotate(0 213.5 17.5)"><text x="0" y="25" font-family="Virgil, Segoe UI Emoji" font-size="28px" fill="#000000" text-anchor="start" style="white-space: pre;" direction="ltr">Multi-step rotation example #1</text></g><g transform="translate(155.48078070808788 103.74341396852014) rotate(0 7 17.5)"><text x="0" y="25" font-family="Virgil, Segoe UI Emoji" font-size="28px" fill="#000000" text-anchor="start" style="white-space: pre;" direction="ltr">c</text></g><g transform="translate(109.11714434445184 161.92523215033816) rotate(0 7 17.5)"><text x="0" y="25" font-family="Virgil, Segoe UI Emoji" font-size="28px" fill="#000000" text-anchor="start" style="white-space: pre;" direction="ltr">b</text></g><g stroke-linecap="round"><g transform="translate(163.17919273160442 58.97068669579221) rotate(0 -0.9381677272544948 19.866080981953473)"><path d="M-2.78 -0.83 C-2.91 6.32, -0.54 33.49, -0.45 40.23 M0.9 -3.75 C0.47 4.06, -1.24 35.86, -2.12 43.49" stroke="#000000" stroke-width="1" fill="none"></path></g></g><g stroke-linecap="round"><g transform="translate(150.93532616263383 143.51614124124717) rotate(0 -7.408859031659176 8.561234356381192)"><path d="M1.38 1.94 C-1.08 4.46, -11.44 12.2, -14.31 14.41 M-1.31 0.53 C-4.12 3.35, -13.4 13.79, -16.2 16.59" stroke="#a61e4d" stroke-width="1" fill="none"></path></g></g><g stroke-linecap="round"><g transform="translate(181.43871339705856 146.056016748601) rotate(0 16.347769060632345 16.172283255322554)"><path d="M-1.23 2.49 C3.17 7.25, 23.59 24.21, 28.72 28.6 M3.3 1.37 C8.36 6.4, 29.99 26.08, 33.93 30.97" stroke="#000000" stroke-width="1" fill="none"></path></g></g><g stroke-linecap="round"><g transform="translate(102.34780430614865 200.60147129405505) rotate(0 -14.468682547397748 16.33761758511696)"><path d="M0.14 0.92 C-4.86 5.9, -23.26 25.87, -27.95 31.34 M-3.23 -1.05 C-8.6 4.07, -24.82 27.4, -29.08 33.73" stroke="#000000" stroke-width="1" fill="none"></path></g></g><g stroke-linecap="round"><g transform="translate(137.8023497606946 200.60147129405505) rotate(0 9.105171653032357 17.32995443138202)"><path d="M-0.39 2.48 C2.49 7.42, 13.49 25.62, 17.31 30.42 M-4.05 1.36 C-0.34 6.58, 17.9 27.83, 22.26 33.3" stroke="#000000" stroke-width="1" fill="none"></path></g></g><g transform="translate(354.3478043061468 110.28328947587397) rotate(0 157 17.5)"><text x="0" y="25" font-family="Virgil, Segoe UI Emoji" font-size="28px" fill="#000000" text-anchor="start" style="white-space: pre;" direction="ltr">Adding 'a' to this tree</text></g><g transform="translate(469.6205315788766 149.69238038496405) rotate(0 -196.31818181818198 93.63636363636374)" stroke="none" fill="#000000"><path d="M -0.70,4.84 Q -0.70,4.84 -1.37,9.43 -2.04,14.01 -2.90,17.17 -3.76,20.34 -4.10,23.63 -4.45,26.92 -4.61,29.90 -4.77,32.88 -5.05,34.78 -5.33,36.68 -5.47,38.69 -5.61,40.69 -6.53,42.84 -7.44,44.99 -8.30,47.82 -9.17,50.64 -10.34,54.74 -11.50,58.84 -12.80,62.45 -14.10,66.07 -15.44,69.44 -16.78,72.81 -17.60,75.24 -18.42,77.68 -18.74,79.67 -19.07,81.66 -19.09,82.81 -19.11,83.95 -19.16,85.11 -19.20,86.27 -20.16,87.45 -21.12,88.64 -22.39,90.73 -23.65,92.83 -27.19,98.28 -30.73,103.73 -34.11,108.17 -37.49,112.60 -41.01,117.33 -44.53,122.05 -48.72,126.22 -52.91,130.40 -55.99,133.20 -59.08,136.00 -61.16,137.96 -63.24,139.91 -66.33,141.86 -69.41,143.82 -71.71,145.38 -74.00,146.95 -76.60,148.43 -79.20,149.91 -82.11,151.58 -85.03,153.24 -87.28,154.71 -89.53,156.17 -92.64,157.88 -95.74,159.58 -98.62,161.09 -101.51,162.59 -104.26,164.25 -107.01,165.91 -111.15,167.71 -115.29,169.51 -119.36,171.30 -123.44,173.09 -128.07,174.91 -132.70,176.73 -135.73,177.77 -138.76,178.81 -141.89,179.77 -145.02,180.74 -148.49,181.43 -151.97,182.11 -154.25,182.40 -156.53,182.70 -158.02,182.93 -159.51,183.16 -163.45,183.96 -167.38,184.75 -172.02,185.35 -176.66,185.96 -181.54,186.21 -186.42,186.46 -192.63,187.08 -198.83,187.70 -202.27,187.96 -205.72,188.22 -208.78,188.33 -211.83,188.44 -214.18,188.49 -216.52,188.53 -219.61,188.55 -222.70,188.57 -225.84,188.57 -228.99,188.58 -232.67,188.58 -236.36,188.58 -240.28,188.58 -244.20,188.59 -247.17,188.58 -250.15,188.58 -253.60,188.05 -257.06,187.52 -262.20,186.24 -267.34,184.96 -272.13,183.64 -276.92,182.31 -279.50,181.48 -282.08,180.64 -284.55,179.48 -287.02,178.31 -289.33,177.32 -291.63,176.32 -292.87,176.03 -294.11,175.74 -296.50,174.72 -298.89,173.71 -300.95,172.74 -303.02,171.78 -305.17,170.85 -307.33,169.92 -309.38,168.69 -311.43,167.46 -314.08,165.92 -316.74,164.37 -318.94,162.90 -321.15,161.43 -323.14,160.02 -325.13,158.61 -327.06,156.92 -328.99,155.24 -332.39,152.46 -335.79,149.69 -337.81,147.67 -339.83,145.66 -341.19,144.67 -342.54,143.67 -344.15,142.43 -345.76,141.19 -347.17,140.52 -348.58,139.85 -350.36,138.35 -352.13,136.85 -353.47,135.42 -354.81,134.00 -355.88,132.97 -356.96,131.94 -358.23,131.42 -359.51,130.90 -361.26,129.71 -363.01,128.53 -364.53,127.55 -366.04,126.57 -367.82,124.68 -369.60,122.79 -371.55,121.02 -373.49,119.25 -374.85,118.32 -376.21,117.39 -378.58,115.75 -380.95,114.11 -383.44,110.80 -385.94,107.49 -387.71,105.08 -389.49,102.66 -390.56,101.44 -391.63,100.21 -392.14,99.22 -392.64,98.22 -392.77,98.03 -392.89,97.83 -392.96,97.62 -393.03,97.40 -393.05,97.17 -393.07,96.94 -393.03,96.71 -392.99,96.49 -392.90,96.28 -392.81,96.06 -392.67,95.88 -392.54,95.70 -392.36,95.55 -392.18,95.41 -391.97,95.31 -391.76,95.21 -391.54,95.17 -391.31,95.12 -391.08,95.13 -390.85,95.14 -390.63,95.21 -390.41,95.27 -390.21,95.39 -390.01,95.50 -389.85,95.66 -389.68,95.82 -389.71,97.30 -389.73,98.78 -390.40,100.81 -391.07,102.85 -391.32,104.65 -391.56,106.46 -391.71,108.51 -391.87,110.57 -391.83,111.98 -391.79,113.40 -391.74,114.76 -391.69,116.12 -391.21,117.47 -390.72,118.81 -390.40,119.83 -390.08,120.84 -389.60,122.14 -389.13,123.43 -388.78,125.11 -388.43,126.78 -390.54,127.35 -392.64,127.92 -392.53,123.85 -392.42,119.79 -392.26,117.49 -392.10,115.20 -392.15,113.96 -392.20,112.72 -392.08,110.37 -391.96,108.02 -391.89,105.97 -391.83,103.93 -391.86,102.27 -391.89,100.62 -391.90,98.87 -391.90,97.12 -391.85,95.82 -391.79,94.52 -390.98,93.50 -390.18,92.47 -388.07,92.09 -385.96,91.71 -384.50,92.19 -383.03,92.67 -381.94,93.05 -380.85,93.44 -379.90,93.93 -378.95,94.42 -377.10,95.20 -375.25,95.99 -374.01,96.51 -372.77,97.02 -371.31,97.01 -369.86,97.00 -367.99,97.79 -366.12,98.58 -367.35,101.18 -368.58,103.79 -369.06,103.67 -369.54,103.55 -369.95,103.28 -370.37,103.01 -370.68,102.62 -370.99,102.23 -371.16,101.77 -371.32,101.30 -371.34,100.81 -371.35,100.31 -371.20,99.84 -371.05,99.36 -370.76,98.96 -370.47,98.56 -370.07,98.27 -369.66,97.99 -369.19,97.84 -368.71,97.70 -368.22,97.72 -367.72,97.73 -367.26,97.90 -366.79,98.08 -366.41,98.39 -366.02,98.70 -365.76,99.12 -365.49,99.54 -365.37,100.02 -365.26,100.50 -365.30,101.00 -365.34,101.49 -365.54,101.95 -365.74,102.40 -366.07,102.77 -366.40,103.14 -366.84,103.38 -367.27,103.62 -367.76,103.71 -368.24,103.80 -368.74,103.73 -369.23,103.66 -369.67,103.44 -370.11,103.22 -370.46,102.87 -370.81,102.51 -371.03,102.07 -371.25,101.62 -371.31,101.13 -371.38,100.64 -371.28,100.15 -371.18,99.67 -370.94,99.24 -370.69,98.81 -370.32,98.48 -369.95,98.15 -369.49,97.95 -369.04,97.76 -368.54,97.72 -368.05,97.68 -369.04,100.31 -370.03,102.94 -371.56,102.81 -373.09,102.67 -374.70,102.13 -376.31,101.59 -377.73,100.55 -379.16,99.50 -380.88,98.73 -382.60,97.95 -384.21,97.02 -385.83,96.09 -386.96,96.61 -388.09,97.13 -388.10,98.87 -388.10,100.62 -388.14,102.28 -388.17,103.93 -388.11,105.98 -388.04,108.03 -387.93,110.39 -387.82,112.75 -387.88,113.99 -387.95,115.24 -387.84,117.54 -387.73,119.85 -387.71,124.16 -387.70,128.46 -389.43,129.40 -391.15,130.33 -392.35,128.80 -393.54,127.27 -393.56,126.18 -393.57,125.08 -393.87,124.02 -394.17,122.96 -394.30,121.47 -394.42,119.98 -394.97,118.05 -395.51,116.12 -395.42,114.70 -395.33,113.28 -395.20,111.84 -395.07,110.41 -395.01,108.21 -394.95,106.01 -394.68,103.95 -394.41,101.89 -393.53,100.06 -392.64,98.22 -392.77,98.03 -392.89,97.83 -392.96,97.62 -393.03,97.40 -393.05,97.17 -393.07,96.94 -393.03,96.71 -392.99,96.49 -392.90,96.28 -392.81,96.06 -392.67,95.88 -392.54,95.70 -392.36,95.55 -392.18,95.41 -391.97,95.31 -391.76,95.21 -391.54,95.17 -391.31,95.12 -391.08,95.13 -390.85,95.14 -390.63,95.21 -390.41,95.27 -390.21,95.39 -390.02,95.50 -389.85,95.66 -389.68,95.82 -389.31,96.95 -388.94,98.08 -387.95,99.40 -386.95,100.72 -385.10,103.07 -383.24,105.41 -380.88,108.37 -378.51,111.34 -377.29,112.43 -376.06,113.52 -375.15,114.11 -374.24,114.70 -372.83,115.80 -371.43,116.91 -369.33,118.69 -367.23,120.48 -365.65,122.05 -364.07,123.61 -362.58,124.61 -361.10,125.60 -359.50,126.61 -357.90,127.62 -356.19,128.56 -354.48,129.50 -353.46,130.68 -352.44,131.87 -351.31,133.18 -350.19,134.50 -348.62,135.77 -347.05,137.03 -345.51,137.95 -343.98,138.86 -342.33,140.12 -340.69,141.38 -339.33,142.58 -337.96,143.79 -336.04,145.71 -334.11,147.63 -330.68,150.43 -327.25,153.23 -325.41,154.83 -323.58,156.42 -321.62,157.80 -319.67,159.18 -317.52,160.59 -315.37,162.01 -312.69,163.55 -310.01,165.09 -308.12,166.21 -306.23,167.33 -304.03,168.24 -301.82,169.15 -299.79,170.05 -297.76,170.95 -295.43,171.87 -293.10,172.79 -291.84,173.35 -290.58,173.91 -288.24,174.92 -285.90,175.94 -283.58,177.04 -281.27,178.14 -278.75,178.96 -276.22,179.77 -271.46,181.09 -266.71,182.41 -261.68,183.67 -256.65,184.92 -253.40,185.43 -250.14,185.95 -247.17,185.95 -244.20,185.95 -240.28,185.94 -236.36,185.94 -232.68,185.93 -228.99,185.93 -225.86,185.92 -222.72,185.91 -219.65,185.88 -216.58,185.86 -214.26,185.81 -211.93,185.75 -208.94,185.63 -205.94,185.52 -202.52,185.24 -199.10,184.96 -192.84,184.31 -186.58,183.67 -181.81,183.39 -177.04,183.12 -172.51,182.49 -167.98,181.86 -163.87,180.98 -159.76,180.11 -158.31,180.10 -156.86,180.09 -154.67,179.81 -152.48,179.53 -149.13,178.88 -145.79,178.23 -142.70,177.27 -139.62,176.32 -136.64,175.30 -133.66,174.28 -129.08,172.48 -124.50,170.68 -120.42,168.89 -116.34,167.09 -112.35,165.37 -108.37,163.65 -105.55,161.95 -102.73,160.25 -99.87,158.75 -97.02,157.26 -94.00,155.61 -90.98,153.95 -88.67,152.44 -86.35,150.92 -83.44,149.25 -80.53,147.59 -78.03,146.15 -75.53,144.72 -73.20,143.12 -70.87,141.51 -68.01,139.70 -65.14,137.89 -63.07,135.90 -60.99,133.92 -57.98,131.13 -54.96,128.35 -50.96,124.31 -46.95,120.26 -43.48,115.49 -40.01,110.71 -36.78,106.33 -33.56,101.94 -30.16,96.48 -26.77,91.02 -25.26,88.34 -23.74,85.67 -23.00,84.61 -22.26,83.54 -21.98,82.38 -21.70,81.22 -21.33,79.03 -20.95,76.83 -20.12,74.33 -19.29,71.82 -17.97,68.49 -16.66,65.16 -15.41,61.62 -14.15,58.09 -13.00,53.96 -11.85,49.83 -10.96,46.84 -10.06,43.85 -9.29,42.14 -8.51,40.44 -8.38,38.30 -8.25,36.16 -7.88,34.45 -7.51,32.74 -7.37,29.69 -7.23,26.64 -6.88,23.12 -6.53,19.61 -5.74,16.59 -4.96,13.58 -4.21,8.55 -3.47,3.51 -2.32,1.27 -1.18,-0.97 -1.04,-1.10 -0.91,-1.23 -0.75,-1.32 -0.59,-1.41 -0.41,-1.46 -0.23,-1.51 -0.05,-1.52 0.13,-1.52 0.31,-1.48 0.49,-1.45 0.65,-1.37 0.82,-1.29 0.96,-1.17 1.11,-1.05 1.22,-0.90 1.33,-0.76 1.40,-0.58 1.47,-0.41 1.50,-0.23 1.53,-0.05 1.51,0.13 1.50,0.31 1.44,0.48 1.38,0.66 0.33,2.75 L -0.70,4.84 Z"></path></g><g transform="translate(154.3025496855089 393.80023312568574) rotate(0 7 17.5)"><text x="0" y="25" font-family="Virgil, Segoe UI Emoji" font-size="28px" fill="#000000" text-anchor="start" style="white-space: pre;" direction="ltr">c</text></g><g transform="translate(107.93891332187286 451.98205130750375) rotate(0 7 17.5)"><text x="0" y="25" font-family="Virgil, Segoe UI Emoji" font-size="28px" fill="#000000" text-anchor="start" style="white-space: pre;" direction="ltr">b</text></g><g stroke-linecap="round"><g transform="translate(162.4843678673269 349.0275058529587) rotate(0 -2.5451325000594807 20.3215386382999)"><path d="M0.72 0.98 C-0.12 8.28, -2.92 35.36, -2.92 41.59 M-2.34 -0.95 C-3.84 5.66, -6.2 30.11, -5.76 36.96" stroke="#000000" stroke-width="1" fill="none"></path></g></g><g stroke-linecap="round"><g transform="translate(149.75709514005484 433.57296039841276) rotate(0 -7.574340820771795 7.7354870394917725)"><path d="M0.98 -1.1 C-1.03 2.05, -11.19 16.51, -14.27 19.64 M-1.93 -4.17 C-4.05 -1.81, -14.45 11.8, -16.13 16.01" stroke="#a61e4d" stroke-width="1" fill="none"></path></g></g><g stroke-linecap="round"><g transform="translate(180.26048237447958 436.1128359057666) rotate(0 16.18041159385257 14.62243207619963)"><path d="M-1.1 0.69 C4.36 5.25, 28.03 23.27, 33.46 28.39 M3.5 -1.41 C8.75 3.32, 28.19 24.63, 32.61 30.66" stroke="#000000" stroke-width="1" fill="none"></path></g></g><g stroke-linecap="round"><g transform="translate(101.16957328356966 490.65829045122155) rotate(0 -15.915589481964616 17.857072691561825)"><path d="M0.69 2.55 C-4.9 8.44, -27.48 29.39, -32.52 34.24 M-2.39 1.47 C-7.22 6.56, -22.7 24.19, -27.48 29.56" stroke="#a61e4d" stroke-width="1" fill="none"></path></g></g><g stroke-linecap="round"><g transform="translate(136.6241187381156 490.65829045122155) rotate(0 11.580116081609958 14.892466320944095)"><path d="M2.55 -2.52 C6.17 2.75, 18.03 26.36, 20.61 32.3" stroke="#000000" stroke-width="1.5" fill="none" stroke-dasharray="1.5 7"></path></g></g><g transform="translate(49.35139146538768 516.6660627018318) rotate(0 9.5 17.5)"><text x="0" y="25" font-family="Virgil, Segoe UI Emoji" font-size="28px" fill="#000000" text-anchor="start" style="white-space: pre;" direction="ltr">a</text></g><g transform="translate(507.6241187381156 159.48424452001382) rotate(0 209.5 10)"><text x="0" y="14" font-family="Virgil, Segoe UI Emoji" font-size="16px" fill="#a61e4d" text-anchor="start" style="white-space: pre;" direction="ltr">( Whenever we add a node, it comes with a red link )</text></g><g transform="translate(19.53480384386512 613.0765485330057) rotate(0 154.5 35)"><text x="0" y="25" font-family="Virgil, Segoe UI Emoji" font-size="28px" fill="#a61e4d" text-anchor="start" style="white-space: pre;" direction="ltr">Problem: Now we have </text><text x="0" y="60" font-family="Virgil, Segoe UI Emoji" font-size="28px" fill="#a61e4d" text-anchor="start" style="white-space: pre;" direction="ltr">2 red links in a row</text></g><g stroke-linecap="round" transform="translate(15.12338886170346 452.4320236167805) rotate(316.39718102729574 92.72727272727298 33.10344827586164)"><path d="M27.55 10.71 C35.95 6.82, 50.38 4.32, 63.46 2.83 C76.55 1.34, 92.22 1.54, 106.08 1.78 C119.94 2.02, 135.16 1.39, 146.63 4.28 C158.11 7.16, 168.25 14.33, 174.93 19.08 C181.6 23.83, 186.45 28.3, 186.69 32.77 C186.93 37.23, 182.97 41.47, 176.4 45.87 C169.82 50.27, 158.28 55.82, 147.23 59.16 C136.17 62.51, 124 64.78, 110.05 65.95 C96.1 67.12, 77.26 67.45, 63.54 66.17 C49.81 64.89, 37.75 61.85, 27.71 58.29 C17.67 54.73, 7.68 49.95, 3.29 44.8 C-1.1 39.66, -0.7 32.21, 1.37 27.4 C3.44 22.59, 7.02 20.07, 15.71 15.94 C24.41 11.8, 41.74 4.81, 53.57 2.6 C65.39 0.39, 85.84 2.06, 86.64 2.67" stroke="#a61e4d" stroke-width="1.5" fill="none" stroke-dasharray="1.5 7"></path></g><g stroke-linecap="round"><g transform="translate(277.8054210227574 490.04146144877814) rotate(0 56.166353917494234 -0.08004862703387516)"><path d="M-0.69 2.59 C17.96 2.17, 94.05 -2.36, 113.03 -2.75 M4.13 1.53 C22.23 1.48, 92.58 1.06, 110.4 0.06" stroke="#000000" stroke-width="1" fill="none"></path></g><g transform="translate(277.8054210227574 490.04146144877814) rotate(0 56.166353917494234 -0.08004862703387516)"><path d="M86.2 10.05 C89.86 6.64, 103.67 -0.19, 112.25 0.14 M84 10.72 C87.85 8.66, 98.66 6.27, 110.35 1.25" stroke="#000000" stroke-width="1" fill="none"></path></g><g transform="translate(277.8054210227574 490.04146144877814) rotate(0 56.166353917494234 -0.08004862703387516)"><path d="M85.64 -10.46 C89.46 -6.89, 103.45 -6.74, 112.25 0.14 M83.44 -9.79 C87.29 -6.62, 98.23 -3.78, 110.35 1.25" stroke="#000000" stroke-width="1" fill="none"></path></g></g><g transform="translate(260.3376300316895 422.8121622015133) rotate(0 88 17.5)"><text x="0" y="25" font-family="Virgil, Segoe UI Emoji" font-size="28px" fill="#a61e4d" text-anchor="start" style="white-space: pre;" direction="ltr">Right rotate</text></g><g transform="translate(609.539177215047 504.94735092223436) rotate(0 7 17.5)"><text x="0" y="25" font-family="Virgil, Segoe UI Emoji" font-size="28px" fill="#000000" text-anchor="start" style="white-space: pre;" direction="ltr">c</text></g><g transform="translate(535.902813578683 452.2200781949614) rotate(0 7 17.5)"><text x="0" y="25" font-family="Virgil, Segoe UI Emoji" font-size="28px" fill="#000000" text-anchor="start" style="white-space: pre;" direction="ltr">b</text></g><g stroke-linecap="round"><g transform="translate(540.448268124137 393.8109872858713) rotate(0 1.1647416489954594 28.458468590324628)"><path d="M1.18 2.06 C2.06 11.15, 3.79 45.27, 3.95 53.91 M-1.63 0.71 C-0.99 10.11, 0.14 47.05, 1.77 56.2" stroke="#000000" stroke-width="1" fill="none"></path></g></g><g stroke-linecap="round"><g transform="translate(604.7664499423199 521.4935487703451) rotate(0 -21.235411513361214 -17.213231496679555)"><path d="M2.06 0.09 C-5.26 -5.86, -36.76 -29.01, -44.53 -34.52 M-0.26 -2.33 C-6.68 -8.05, -32.99 -27.2, -39.46 -31.8" stroke="#a61e4d" stroke-width="1" fill="none"></path></g></g><g stroke-linecap="round"><g transform="translate(635.497109904014 542.0086841737566) rotate(0 16.617018308531897 11.740795375900007)"><path d="M0.09 -2.46 C5.07 1.14, 25.63 18.55, 31.05 23.66 M-3.3 2.38 C2.48 6.05, 30.87 22.36, 36.54 25.94" stroke="#000000" stroke-width="1" fill="none"></path></g></g><g stroke-linecap="round"><g transform="translate(529.1334735403798 490.8963173386792) rotate(0 -15.545205941461063 17.690869906263515)"><path d="M-2.46 -1.68 C-8.22 3.89, -28.25 27.98, -32.5 33.5 M1.41 3.58 C-3.7 9.61, -22.45 32.09, -27.45 37.06" stroke="#a61e4d" stroke-width="1" fill="none"></path></g></g><g stroke-linecap="round"><g transform="translate(605.4971099040176 545.4417718841341) rotate(0 -17.26963400390332 22.515179398215878)"><path d="M-1.68 -2.5 C-7.17 5.83, -27.32 39.66, -32.86 47.53" stroke="#000000" stroke-width="1.5" fill="none" stroke-dasharray="1.5 7"></path></g></g><g transform="translate(477.3152917221978 516.9040895892886) rotate(0 9.5 17.5)"><text x="0" y="25" font-family="Virgil, Segoe UI Emoji" font-size="28px" fill="#000000" text-anchor="start" style="white-space: pre;" direction="ltr">a</text></g><g stroke-linecap="round"><g transform="translate(45.73894489713621 547.972852706911) rotate(0 -17.37805786267245 21.241655291562893)"><path d="M0.98 -1.05 C-4.97 6.37, -28.06 36.38, -33.23 44.15 M-1.93 -4.09 C-8.53 3.65, -31 37.86, -35.74 46.58" stroke="#000000" stroke-width="1" fill="none"></path></g></g><g stroke-linecap="round"><g transform="translate(69.37530853350017 548.881943616002) rotate(0 10.027585422968514 17.059588500230802)"><path d="M-0.04 0.05 C3.65 6.29, 20.17 30.5, 23.56 36.52 M-3.51 -2.4 C-0.08 3.07, 19.16 25.08, 22.76 32.08" stroke="#000000" stroke-width="1" fill="none"></path></g></g><g stroke-linecap="round"><g transform="translate(475.65919691684303 545.1459023735742) rotate(0 -16.5770412053198 21.749934071546477)"><path d="M1.2 -0.19 C-3.75 7.15, -26.45 36.65, -32.33 43.95 M-1.59 -2.77 C-6.64 4.85, -28.51 38.28, -34.36 46.27" stroke="#000000" stroke-width="1" fill="none"></path></g></g><g stroke-linecap="round"><g transform="translate(499.295560553207 546.0549932826652) rotate(0 9.920884362024935 17.532675705931524)"><path d="M-0.19 0.39 C2.9 5.87, 15.44 28.47, 18.49 34.06 M-3.74 -1.86 C0.21 3.86, 19.05 30.59, 23.59 36.93" stroke="#000000" stroke-width="1" fill="none"></path></g></g><g transform="translate(398.6522160208615 631.5912740447293) rotate(0 211 35)"><text x="0" y="25" font-family="Virgil, Segoe UI Emoji" font-size="28px" fill="#a61e4d" text-anchor="start" style="white-space: pre;" direction="ltr">Problem: We have a node with </text><text x="0" y="60" font-family="Virgil, Segoe UI Emoji" font-size="28px" fill="#a61e4d" text-anchor="start" style="white-space: pre;" direction="ltr">2 red links</text></g><g transform="translate(407.6177546681165 712.5529902332269) rotate(0 478 17.5)"><text x="0" y="25" font-family="Virgil, Segoe UI Emoji" font-size="28px" fill="#000000" text-anchor="start" style="white-space: pre;" direction="ltr">This position is similar to the one we did above ( color flip position )</text></g><g transform="translate(881.4257476466582 487.05745220113613) rotate(0 9.5 17.5)"><text x="0" y="25" font-family="Virgil, Segoe UI Emoji" font-size="28px" fill="#000000" text-anchor="start" style="white-space: pre;" direction="ltr">a</text></g><g transform="translate(941.4257476466582 434.0102039676881) rotate(0 7 17.5)"><text x="0" y="25" font-family="Virgil, Segoe UI Emoji" font-size="28px" fill="#000000" text-anchor="start" style="white-space: pre;" direction="ltr">b</text></g><g stroke-linecap="round"><g transform="translate(932.3348385557483 465.921088564774) rotate(0 -12.366663828028322 13.897629978192981)"><path d="M-0.31 -2.02 C-4.48 2.35, -19.4 21.08, -23.65 26.25 M-3.93 3.06 C-8.34 7.9, -20.52 26.18, -24.42 29.81" stroke="#000000" stroke-width="1" fill="none"></path></g></g><g stroke-linecap="round"><g transform="translate(970.5166567375682 471.3756340193181) rotate(0 9.841817125779471 15.674053077795861)"><path d="M-2.02 2.71 C1.6 7.7, 17.29 24.95, 21.7 29.64 M2.08 1.71 C5.31 5.82, 15.74 20.84, 19.4 24.92" stroke="#000000" stroke-width="1" fill="none"></path></g></g><g stroke-linecap="round"><g transform="translate(870.5166567375663 521.3756340193181) rotate(0 -11.162188461067217 21.348240021544825)"><path d="M2.71 -0.12 C-1.09 7.78, -18.99 38.3, -23.09 45.34 M0.74 -2.65 C-3.36 4.71, -21.11 33.82, -25.03 41.75" stroke="#000000" stroke-width="1" fill="none"></path></g></g><g stroke-linecap="round"><g transform="translate(905.9712021921141 531.3756340193181) rotate(0 9.9510424821583 16.86620173604979)"><path d="M-0.12 0.54 C4.14 5.99, 20.12 30.05, 23.53 35.36 M-3.62 -1.63 C0.68 4.21, 19.07 25.2, 22.71 31.29" stroke="#000000" stroke-width="1" fill="none"></path></g></g><g transform="translate(994.1530203739303 493.421088564774) rotate(0 7 17.5)"><text x="0" y="25" font-family="Virgil, Segoe UI Emoji" font-size="28px" fill="#000000" text-anchor="start" style="white-space: pre;" direction="ltr">c</text></g><g stroke-linecap="round"><g transform="translate(984.1530203739303 531.3756340193181) rotate(0 -8.44033889016282 15.071657140823845)"><path d="M2.62 1.72 C-0.19 6.13, -14.06 22.85, -16.94 26.98 M0.59 0.19 C-2.63 4.92, -16.8 25.2, -19.5 29.95" stroke="#000000" stroke-width="1" fill="none"></path></g></g><g stroke-linecap="round"><g transform="translate(1015.0621112830222 527.739270382956) rotate(0 12.641530867140318 13.23830594883384)"><path d="M1.72 -0.58 C5.98 3.96, 22.09 24.74, 26.07 29.84 M-0.78 -3.36 C2.94 1.57, 17.79 20.93, 23.17 25.73" stroke="#000000" stroke-width="1" fill="none"></path></g></g><g stroke-linecap="round"><g transform="translate(712.9788650058827 461.164509233397) rotate(0 57.4141924742612 0.6935778912529713)"><path d="M-0.58 -1.21 C18.22 -1.98, 96.05 -2.54, 115.41 -2.92 M4.3 4.31 C22.64 3.71, 95.66 0.79, 114.07 -0.2" stroke="#000000" stroke-width="1" fill="none"></path></g><g transform="translate(712.9788650058827 461.164509233397) rotate(0 57.4141924742612 0.6935778912529713)"><path d="M84.66 13.71 C94.74 9.52, 104.78 3.67, 111.85 -1.05 M85.51 9.43 C94.82 8.99, 102.94 4.41, 113.75 -1.38" stroke="#000000" stroke-width="1" fill="none"></path></g><g transform="translate(712.9788650058827 461.164509233397) rotate(0 57.4141924742612 0.6935778912529713)"><path d="M83.72 -6.79 C94.42 -2.91, 104.83 -0.69, 111.85 -1.05 M84.57 -11.07 C94.48 -5.64, 102.87 -4.36, 113.75 -1.38" stroke="#000000" stroke-width="1" fill="none"></path></g></g><g transform="translate(707.3292558329968 404.8443008952222) rotate(0 61.5 17.5)"><text x="0" y="25" font-family="Virgil, Segoe UI Emoji" font-size="28px" fill="#a61e4d" text-anchor="start" style="white-space: pre;" direction="ltr">Color flip</text></g><g stroke-linecap="round"><g transform="translate(943.8427760242512 390.4154310871545) rotate(0 1.5991338535432078 17.61206256616174)"><path d="M1.21 0.68 C2.38 6.81, 4.71 30.63, 4.77 36.64 M-1.58 -1.41 C-0.39 3.95, 3.52 27.13, 3.65 32.76" stroke="#a61e4d" stroke-width="1" fill="none"></path></g></g><g transform="translate(1070.5793465268443 400.4276516372238) rotate(0 165.5 50)"><text x="0" y="14" font-family="Virgil, Segoe UI Emoji" font-size="16px" fill="#5c940d" text-anchor="start" style="white-space: pre;" direction="ltr">Property restored</text><text x="0" y="34" font-family="Virgil, Segoe UI Emoji" font-size="16px" fill="#5c940d" text-anchor="start" style="white-space: pre;" direction="ltr"></text><text x="0" y="54" font-family="Virgil, Segoe UI Emoji" font-size="16px" fill="#5c940d" text-anchor="start" style="white-space: pre;" direction="ltr">- No node has 2 red links attached to it</text><text x="0" y="74" font-family="Virgil, Segoe UI Emoji" font-size="16px" fill="#5c940d" text-anchor="start" style="white-space: pre;" direction="ltr"></text><text x="0" y="94" font-family="Virgil, Segoe UI Emoji" font-size="16px" fill="#5c940d" text-anchor="start" style="white-space: pre;" direction="ltr">- Red links are leaning left</text></g></svg>