<svg version="1.1" xmlns="http://www.w3.org/2000/svg" viewBox="0 0 1159.2190241053995 410.95765923185104" width="1159.2190241053995" height="410.95765923185104">
  <!-- svg-source:excalidraw -->
  
  <defs>
    <style>
      @font-face {
        font-family: "Virgil";
        src: url("https://excalidraw.com/Virgil.woff2");
      }
      @font-face {
        font-family: "Cascadia";
        src: url("https://excalidraw.com/Cascadia.woff2");
      }
    </style>
  </defs>
  <rect x="0" y="0" width="1159.2190241053995" height="410.95765923185104" fill="#ffffff"></rect><g transform="translate(321.06148099032544 84) rotate(0 29 22.5)"><text x="29" y="32" font-family="Virgil, Segoe UI Emoji" font-size="36px" fill="#000000" text-anchor="middle" style="white-space: pre;" direction="ltr">2,4</text></g><g transform="translate(246.43648099032544 186) rotate(0 5 22.5)"><text x="5" y="32" font-family="Virgil, Segoe UI Emoji" font-size="36px" fill="#000000" text-anchor="middle" style="white-space: pre;" direction="ltr">1</text></g><g transform="translate(446.06148099032544 178) rotate(0 11 22.5)"><text x="11" y="32" font-family="Virgil, Segoe UI Emoji" font-size="36px" fill="#000000" text-anchor="middle" style="white-space: pre;" direction="ltr">5</text></g><g transform="translate(341.78370321254806 191.77777777777771) rotate(0 12.5 22.5)"><text x="12.5" y="32" font-family="Virgil, Segoe UI Emoji" font-size="36px" fill="#000000" text-anchor="middle" style="white-space: pre;" direction="ltr">3</text></g><g stroke-linecap="round"><g transform="translate(319.48099459332025 132.6745153080211) rotate(0 -28.777921747579512 23.6148328202936)"><path d="M-2.48 -1.35 C-12.17 6.88, -48.22 40.45, -57.78 48.58 M1.36 4.09 C-8.54 11.66, -48.41 38.54, -58.92 44.97" stroke="#000000" stroke-width="1" fill="none"></path></g></g><g stroke-linecap="round"><g transform="translate(353.44432998395405 140.0000000000001) rotate(0 3.0765683503600485 22.344415848486904)"><path d="M1.68 1.08 C2.53 7.72, 6.67 35.57, 7.01 42.19 M-0.86 -0.81 C-0.3 7.49, 5.84 38.22, 6.25 45.5" stroke="#000000" stroke-width="1" fill="none"></path></g></g><g stroke-linecap="round"><g transform="translate(387.06148099032544 120.5296235577631) rotate(0 27.930006443001275 30.216447416481287)"><path d="M0.87 0.96 C10.6 11.01, 49.04 48.32, 57.96 58.06 M-2.1 -0.99 C7.47 9.71, 47.82 52.2, 56.78 61.43" stroke="#000000" stroke-width="1" fill="none"></path></g></g><g transform="translate(257.06148099032544 10) rotate(0 79 22.5)"><text x="79" y="32" font-family="Virgil, Segoe UI Emoji" font-size="36px" fill="#000000" text-anchor="middle" style="white-space: pre;" direction="ltr">2-3 tree</text></g><g transform="translate(559.0614809903254 14) rotate(0 130 22.5)"><text x="130" y="32" font-family="Virgil, Segoe UI Emoji" font-size="36px" fill="#000000" text-anchor="middle" style="white-space: pre;" direction="ltr">Red-black tree</text></g><g transform="translate(607.0614809903254 115) rotate(0 13 22.5)"><text x="13" y="32" font-family="Virgil, Segoe UI Emoji" font-size="36px" fill="#000000" text-anchor="middle" style="white-space: pre;" direction="ltr">2</text></g><g transform="translate(701.5614809903254 76) rotate(0 11.5 22.5)"><text x="11.5" y="32" font-family="Virgil, Segoe UI Emoji" font-size="36px" fill="#000000" text-anchor="middle" style="white-space: pre;" direction="ltr">4</text></g><g transform="translate(659.5614809903254 198) rotate(0 12.5 22.5)"><text x="12.5" y="32" font-family="Virgil, Segoe UI Emoji" font-size="36px" fill="#000000" text-anchor="middle" style="white-space: pre;" direction="ltr">3</text></g><g transform="translate(554.0614809903254 201) rotate(0 5 22.5)"><text x="5" y="32" font-family="Virgil, Segoe UI Emoji" font-size="36px" fill="#000000" text-anchor="middle" style="white-space: pre;" direction="ltr">1</text></g><g transform="translate(792.0614809903254 129) rotate(0 11 22.5)"><text x="11" y="32" font-family="Virgil, Segoe UI Emoji" font-size="36px" fill="#000000" text-anchor="middle" style="white-space: pre;" direction="ltr">5</text></g><g stroke-linecap="round"><g transform="translate(649.0614809903254 131) rotate(0 23.201073841788002 -15.4526131490245)"><path d="M1.83 -0.69 C9.66 -5.21, 39.85 -21.42, 47.02 -25.84 M-0.62 -3.53 C7.01 -9.01, 38.62 -26.77, 45.88 -30.22" stroke="#c92a2a" stroke-width="1" fill="none"></path></g></g><g stroke-linecap="round"><g transform="translate(596.0614809903254 149.8460667095876) rotate(0 -16.515312230438667 25.450644722665572)"><path d="M-2.39 1.24 C-7.92 8.94, -29.63 40.36, -34.54 48.3 M1.51 -0.56 C-3 7.36, -23.37 42.73, -29.16 51.46" stroke="#000000" stroke-width="1" fill="none"></path></g></g><g stroke-linecap="round"><g transform="translate(631.0614809903254 158) rotate(0 12.073569466669142 18.297915014216017)"><path d="M0.78 0.27 C5.4 7.09, 21.58 32.67, 26.39 38.64 M-2.24 -2.04 C2.08 4.07, 18.57 27.27, 23.82 33.98" stroke="#000000" stroke-width="1" fill="none"></path></g></g><g stroke-linecap="round"><g transform="translate(731.5614809903254 105.7855305932303) rotate(0 25.46898854177425 15.840173306340432)"><path d="M0.29 0.11 C9.08 5.83, 45.3 25.96, 53.94 31.67 M-3 -2.31 C5.44 3.92, 43.63 27.32, 52.49 33.99" stroke="#000000" stroke-width="1" fill="none"></path></g></g><g transform="translate(554.0940241053995 257.70765923185115) rotate(0 151.5 12.5)"><text x="0" y="18" font-family="Virgil, Segoe UI Emoji" font-size="20px" fill="#5c940d" text-anchor="start" style="white-space: pre;" direction="ltr">Properties of a red-black tree</text></g><g transform="translate(580.2190241053995 300.95765923185104) rotate(0 284.5 50)"><text x="0" y="18" font-family="Virgil, Segoe UI Emoji" font-size="20px" fill="#5c940d" text-anchor="start" style="white-space: pre;" direction="ltr">- No node has 2 red links connected to it</text><text x="0" y="43" font-family="Virgil, Segoe UI Emoji" font-size="20px" fill="#5c940d" text-anchor="start" style="white-space: pre;" direction="ltr">- Every path from the root to leaf has same number of </text><text x="0" y="68" font-family="Virgil, Segoe UI Emoji" font-size="20px" fill="#5c940d" text-anchor="start" style="white-space: pre;" direction="ltr">  black links</text><text x="0" y="93" font-family="Virgil, Segoe UI Emoji" font-size="20px" fill="#5c940d" text-anchor="start" style="white-space: pre;" direction="ltr">- Red links lean left</text></g><g transform="translate(630.2008401587882 84.29784577478608) rotate(333.10376303450664 30 10)"><text x="0" y="14" font-family="Virgil, Segoe UI Emoji" font-size="16px" fill="#a61e4d" text-anchor="start" style="white-space: pre;" direction="ltr">Red link</text></g><g transform="translate(713.464217633009 187.35218904101725) rotate(0 168 20)"><text x="0" y="14" font-family="Virgil, Segoe UI Emoji" font-size="16px" fill="#a61e4d" text-anchor="start" style="white-space: pre;" direction="ltr">A red link is just another link which bonds </text><text x="0" y="34" font-family="Virgil, Segoe UI Emoji" font-size="16px" fill="#a61e4d" text-anchor="start" style="white-space: pre;" direction="ltr">the elements of a 3/4 node</text></g><g stroke-linecap="round"><g transform="translate(238.125 224.2489856549489) rotate(0 -17.857685798667717 14.836562034785743)"><path d="M2.56 -0.19 C-3.58 4.78, -29.66 24.36, -36.77 28.78 M0.5 -2.76 C-5.89 2.78, -32.47 27.28, -38.27 32.43" stroke="#000000" stroke-width="1" fill="none"></path></g></g><g stroke-linecap="round"><g transform="translate(263.75 221.1239856549489) rotate(0 8.61952565167121 10.483232450149956)"><path d="M1.65 -1.56 C4.77 1.39, 15.85 16.24, 18.14 19.72 M-0.9 3.77 C2.01 6.87, 14.3 19.58, 16.58 22.53" stroke="#000000" stroke-width="1" fill="none"></path></g></g><g stroke-linecap="round"><g transform="translate(335.3472222222226 222.2392308098515) rotate(0 -6.219508809501804 10.715017823383846)"><path d="M2.35 -1.89 C0.2 1.92, -10.7 18.95, -13.17 23.32 M0.19 3.25 C-2.22 6.17, -12.55 16.09, -14.79 18.87" stroke="#000000" stroke-width="1" fill="none"></path></g></g><g stroke-linecap="round"><g transform="translate(369.7222222222226 232.8071821158295) rotate(0 14.381798836423059 9.425358801205391)"><path d="M1.35 -1.67 C5.46 1.39, 20.91 17.45, 24.64 20.52 M-1.37 3.59 C3.67 5.74, 25.04 14.29, 30.13 16.9" stroke="#000000" stroke-width="1" fill="none"></path></g></g><g stroke-linecap="round"><g transform="translate(433.75 222.9989856549489) rotate(0 -6.601400519199615 8.35052310824392)"><path d="M0.79 -0.79 C-1.78 2.42, -10.59 13.76, -12.67 17.02 M-2.23 -3.68 C-5.26 0.16, -12.34 17.45, -13.99 20.38" stroke="#000000" stroke-width="1" fill="none"></path></g></g><g stroke-linecap="round"><g transform="translate(467.5 221.1239856549489) rotate(0 6.4139550248905834 10.842970060110076)"><path d="M0.28 -0.61 C2.66 2.86, 13.34 17.87, 15.85 21.61 M-3.02 -3.41 C-1.07 0.46, 11.29 20.38, 14.07 25.09" stroke="#000000" stroke-width="1" fill="none"></path></g></g><g transform="translate(34.722222222222626 78.02676343272685) rotate(0 84.5 37.5)"><text x="0" y="18" font-family="Virgil, Segoe UI Emoji" font-size="20px" fill="#000000" text-anchor="start" style="white-space: pre;" direction="ltr">This is a 3 node</text><text x="0" y="43" font-family="Virgil, Segoe UI Emoji" font-size="20px" fill="#000000" text-anchor="start" style="white-space: pre;" direction="ltr">as it has 3 child</text><text x="0" y="68" font-family="Virgil, Segoe UI Emoji" font-size="20px" fill="#000000" text-anchor="start" style="white-space: pre;" direction="ltr">links</text></g><g transform="translate(10 181.22120787717108) rotate(0 89.5 37.5)"><text x="0" y="18" font-family="Virgil, Segoe UI Emoji" font-size="20px" fill="#000000" text-anchor="start" style="white-space: pre;" direction="ltr">This is a 2 node</text><text x="0" y="43" font-family="Virgil, Segoe UI Emoji" font-size="20px" fill="#000000" text-anchor="start" style="white-space: pre;" direction="ltr">as it has 2 child </text><text x="0" y="68" font-family="Virgil, Segoe UI Emoji" font-size="20px" fill="#000000" text-anchor="start" style="white-space: pre;" direction="ltr">links</text></g><g stroke-linecap="round"><g transform="translate(311.7406721541938 100.17281775948334) rotate(0 -47.28859717842715 1.1269981792127624)"><path d="M-2.19 -1.6 C-18.3 -1.41, -78.59 -1.5, -94.07 -0.89 M1.82 3.7 C-14.92 4.37, -79.85 2.76, -96.4 1.65" stroke="#000000" stroke-width="1" fill="none"></path></g><g transform="translate(311.7406721541938 100.17281775948334) rotate(0 -47.28859717842715 1.1269981792127624)"><path d="M-70.09 -7.68 C-82.04 -5.97, -89.05 -0.73, -95.47 -1.67 M-67.78 -7.04 C-78.75 -4.85, -88.69 1.01, -98.12 1.33" stroke="#000000" stroke-width="1" fill="none"></path></g><g transform="translate(311.7406721541938 100.17281775948334) rotate(0 -47.28859717842715 1.1269981792127624)"><path d="M-70.95 12.83 C-82.27 6.48, -88.94 3.66, -95.47 -1.67 M-68.64 13.47 C-79.71 8.62, -89.36 7.46, -98.12 1.33" stroke="#000000" stroke-width="1" fill="none"></path></g></g><g stroke-linecap="round"><g transform="translate(240.6295610430825 204.6172622039278) rotate(0 -23.370108531209098 0.44060934019995557)"><path d="M1.28 0.84 C-6.46 1.56, -40.18 2.65, -48.02 2.67 M-1.47 -1.17 C-8.22 -1.12, -35.25 -2.36, -42.96 -1.49" stroke="#000000" stroke-width="1" fill="none"></path></g><g transform="translate(240.6295610430825 204.6172622039278) rotate(0 -23.370108531209098 0.44060934019995557)"><path d="M-20.57 -13.39 C-24.8 -7.96, -32.36 -3.04, -45.1 -4.96 M-19.97 -11.22 C-31.79 -6.57, -38.44 -1.83, -42.09 -0.11" stroke="#000000" stroke-width="1" fill="none"></path></g><g transform="translate(240.6295610430825 204.6172622039278) rotate(0 -23.370108531209098 0.44060934019995557)"><path d="M-20.14 2.19 C-24.29 3.83, -31.96 4.95, -45.1 -4.96 M-19.54 4.36 C-31.25 2.84, -38.07 1.41, -42.09 -0.11" stroke="#000000" stroke-width="1" fill="none"></path></g></g><g stroke-linecap="round"><g transform="translate(515.3986866900941 13.263093682894123) rotate(0 0.05074716992703543 122.08330620142323)"><path d="M-0.5 0.67 C-0.27 41.36, 0.35 202.86, 0.6 243.49" stroke="#000000" stroke-width="1.5" fill="none" stroke-dasharray="1.5 7"></path></g></g><g transform="translate(249.0649583239774 137.36783034848008) rotate(329.0362434679267 23.5 10)"><text x="47" y="14" font-family="Virgil, Segoe UI Emoji" font-size="16px" fill="#c92a2a" text-anchor="end" style="white-space: pre;" direction="ltr">X &lt; 2</text></g><g transform="translate(421.5059254347725 135.35758320133584) rotate(38.57511802816412 13 10)"><text x="13" y="14" font-family="Virgil, Segoe UI Emoji" font-size="16px" fill="#c92a2a" text-anchor="middle" style="white-space: pre;" direction="ltr">&gt; 4</text></g><g transform="translate(307.3982916573095 180.6456081262578) rotate(0 41.5 10)"><text x="83" y="14" font-family="Virgil, Segoe UI Emoji" font-size="16px" fill="#c92a2a" text-anchor="end" style="white-space: pre;" direction="ltr">2 &lt; X &lt; 4</text></g></svg>