<svg version="1.1" xmlns="http://www.w3.org/2000/svg" viewBox="0 0 1283 458.33770656585693" width="1283" height="458.33770656585693">
  <!-- svg-source:excalidraw -->
  
  <defs>
    <style>
      @font-face {
        font-family: "Virgil";
        src: url("https://excalidraw.com/Virgil.woff2");
      }
      @font-face {
        font-family: "Cascadia";
        src: url("https://excalidraw.com/Cascadia.woff2");
      }
    </style>
  </defs>
  <rect x="0" y="0" width="1283" height="458.33770656585693" fill="#ffffff"></rect><g transform="translate(42.988291054964066 10) rotate(0 164 22.5)"><text x="0" y="32" font-family="Virgil, Segoe UI Emoji" font-size="36px" fill="#000000" text-anchor="start" style="white-space: pre;" direction="ltr">2 - Right rotation</text></g><g transform="translate(403.5183078944683 18.56825613975525) rotate(0 345 17.5)"><text x="0" y="25" font-family="Virgil, Segoe UI Emoji" font-size="28px" fill="#000000" text-anchor="start" style="white-space: pre;" direction="ltr">- To orient a temporarily left-leaning link to right</text></g><g transform="translate(37.80264163017273 70.81578803062439) rotate(0 572.5 17.5)"><text x="0" y="25" font-family="Virgil, Segoe UI Emoji" font-size="28px" fill="#000000" text-anchor="start" style="white-space: pre;" direction="ltr">Might seem non intuitive at first, but is used as a middle step in another process</text></g><g transform="translate(264.47553519904613 234.796324506985) rotate(0 13 22.5)"><text x="13" y="32" font-family="Virgil, Segoe UI Emoji" font-size="36px" fill="#000000" text-anchor="middle" style="white-space: pre;" direction="ltr">2</text></g><g transform="translate(358.97553519904613 195.796324506985) rotate(0 11.5 22.5)"><text x="11.5" y="32" font-family="Virgil, Segoe UI Emoji" font-size="36px" fill="#000000" text-anchor="middle" style="white-space: pre;" direction="ltr">4</text></g><g transform="translate(316.97553519904613 317.796324506985) rotate(0 12.5 22.5)"><text x="12.5" y="32" font-family="Virgil, Segoe UI Emoji" font-size="36px" fill="#000000" text-anchor="middle" style="white-space: pre;" direction="ltr">3</text></g><g transform="translate(211.47553519904613 320.796324506985) rotate(0 5 22.5)"><text x="5" y="32" font-family="Virgil, Segoe UI Emoji" font-size="36px" fill="#000000" text-anchor="middle" style="white-space: pre;" direction="ltr">1</text></g><g transform="translate(449.47553519904613 248.796324506985) rotate(0 11 22.5)"><text x="11" y="32" font-family="Virgil, Segoe UI Emoji" font-size="36px" fill="#000000" text-anchor="middle" style="white-space: pre;" direction="ltr">5</text></g><g stroke-linecap="round"><g transform="translate(306.47553519904613 250.796324506985) rotate(0 22.26339720368378 -12.473580976724634)"><path d="M-0.13 -1.27 C7.1 -5.84, 35.49 -20.66, 42.9 -25.15 M-3.64 4.21 C4.51 -1.35, 40.52 -24.16, 48.17 -29.16" stroke="#c92a2a" stroke-width="1" fill="none"></path></g><g transform="translate(306.47553519904613 250.796324506985) rotate(0 22.26339720368378 -12.473580976724634)"><path d="M15.29 -24.05 C15.18 -16.37, 5.92 -11.13, -2.74 -1.47 M18.9 -22.73 C12.99 -14.25, 6.76 -10.54, 1.8 -1.92" stroke="#c92a2a" stroke-width="1" fill="none"></path></g><g transform="translate(306.47553519904613 250.796324506985) rotate(0 22.26339720368378 -12.473580976724634)"><path d="M23.98 -8.35 C21.16 -5.12, 9.43 -4.33, -2.74 -1.47 M27.59 -7.03 C19.45 -2.55, 11.01 -2.82, 1.8 -1.92" stroke="#c92a2a" stroke-width="1" fill="none"></path></g></g><g stroke-linecap="round"><g transform="translate(253.47553519904613 269.64239121657283) rotate(0 -14.404546261989253 24.85636173402054)"><path d="M-1.27 -2.1 C-6.78 6.01, -25.38 40.13, -30.81 48.52 M3.24 2.94 C-2.68 11.48, -25.45 43.82, -32.04 51.81" stroke="#000000" stroke-width="1" fill="none"></path></g></g><g stroke-linecap="round"><g transform="translate(288.47553519904613 277.796324506985) rotate(0 12.138124485026765 19.313206169979026)"><path d="M-2.1 1.85 C2.32 8.19, 21.67 31.06, 26.37 36.78" stroke="#000000" stroke-width="1.5" fill="none" stroke-dasharray="8 9"></path></g></g><g stroke-linecap="round"><g transform="translate(388.97553519904613 225.58185510021576) rotate(0 25.344223743416023 16.45448874312092)"><path d="M1.85 -0.63 C10.61 5.25, 43.14 27.44, 51.28 33.2 M-0.59 -3.44 C7.8 3.03, 38.87 29.61, 48.38 36.35" stroke="#000000" stroke-width="1" fill="none"></path></g></g><g stroke-linecap="round"><g transform="translate(542.5686708986759 276.47537645697594) rotate(0 56.969157650210036 -2.9810667148605035)"><path d="M-1.93 -0.45 C16.35 -0.61, 91.75 -1.05, 110.97 -0.76 M2.22 -3.17 C21.19 -4.26, 97.68 -5.55, 115.87 -5.51" stroke="#000000" stroke-width="1" fill="none"></path></g><g transform="translate(542.5686708986759 276.47537645697594) rotate(0 56.969157650210036 -2.9810667148605035)"><path d="M87.13 1.06 C98.2 1.23, 110.83 -3.82, 113.8 -2.75 M87.15 5.72 C96.68 3.53, 102.33 -1.93, 116.44 -5.19" stroke="#000000" stroke-width="1" fill="none"></path></g><g transform="translate(542.5686708986759 276.47537645697594) rotate(0 56.969157650210036 -2.9810667148605035)"><path d="M86.93 -19.46 C98.1 -12.17, 110.79 -10.1, 113.8 -2.75 M86.95 -14.8 C96.53 -11.23, 102.24 -10.93, 116.44 -5.19" stroke="#000000" stroke-width="1" fill="none"></path></g></g><g transform="translate(525.100879907608 209.24607720971107) rotate(0 88 17.5)"><text x="0" y="25" font-family="Virgil, Segoe UI Emoji" font-size="28px" fill="#a61e4d" text-anchor="start" style="white-space: pre;" direction="ltr">Right rotate</text></g><g transform="translate(810.5526347160339 193.75656247138977) rotate(0 13 22.5)"><text x="13" y="32" font-family="Virgil, Segoe UI Emoji" font-size="36px" fill="#000000" text-anchor="middle" style="white-space: pre;" direction="ltr">2</text></g><g transform="translate(875.6776347160339 255.38156247138977) rotate(0 11.5 22.5)"><text x="11.5" y="32" font-family="Virgil, Segoe UI Emoji" font-size="36px" fill="#000000" text-anchor="middle" style="white-space: pre;" direction="ltr">4</text></g><g transform="translate(828.0526347160339 329.88156247138977) rotate(0 12.5 22.5)"><text x="12.5" y="32" font-family="Virgil, Segoe UI Emoji" font-size="36px" fill="#000000" text-anchor="middle" style="white-space: pre;" direction="ltr">3</text></g><g transform="translate(738.8026347160339 336.63156247138977) rotate(0 5 22.5)"><text x="5" y="32" font-family="Virgil, Segoe UI Emoji" font-size="36px" fill="#000000" text-anchor="middle" style="white-space: pre;" direction="ltr">1</text></g><g transform="translate(936.8026347160339 319.63156247138977) rotate(0 11 22.5)"><text x="11" y="32" font-family="Virgil, Segoe UI Emoji" font-size="36px" fill="#000000" text-anchor="middle" style="white-space: pre;" direction="ltr">5</text></g><g stroke-linecap="round"><g transform="translate(802.0526347160339 235.11401923630365) rotate(0 -25.795519560212142 49.16029884570423)"><path d="M0.2 -0.27 C-8.06 16.2, -41.8 84.12, -50.8 101.21 M-3.14 -2.89 C-11.45 13.96, -42.98 80.04, -51.79 96.84" stroke="#000000" stroke-width="1" fill="none"></path></g></g><g stroke-linecap="round"><g transform="translate(871.9454477373629 305.1087628275427) rotate(0 -6.739932477890761 18.945594989137362)"><path d="M-0.27 2.3 C-2.87 8.2, -11.23 29.6, -13.21 35.59" stroke="#000000" stroke-width="1.5" fill="none" stroke-dasharray="8 9"></path></g></g><g stroke-linecap="round"><g transform="translate(905.6776347160339 293.2938178781078) rotate(0 11.258617153577234 14.432134594724516)"><path d="M2.3 1.18 C6 6.15, 18.62 25.04, 22.41 29.51 M0.11 -0.64 C3.35 3.59, 15.75 20.35, 19.78 25.71" stroke="#000000" stroke-width="1" fill="none"></path></g></g><g stroke-linecap="round"><g transform="translate(874.8607558819003 237.53580909468474) rotate(67.08588237672805 -12.97886942355035 6.427099785350947)"><path d="M1.18 -0.72 C-3.12 1.64, -21.31 13.83, -26.11 16.43 M-1.62 -3.57 C-6.07 -2.21, -22.57 8.83, -27.14 12.46" stroke="#c92a2a" stroke-width="1" fill="none"></path></g><g transform="translate(874.8607558819003 237.53580909468474) rotate(67.08588237672805 -12.97886942355035 6.427099785350947)"><path d="M-9.35 14.42 C-3.74 8.97, -2.68 3.46, 4.1 -2.84 M-9.75 10.37 C-5.99 7.92, -2.12 0.83, 1.77 -0.58" stroke="#c92a2a" stroke-width="1" fill="none"></path></g><g transform="translate(874.8607558819003 237.53580909468474) rotate(67.08588237672805 -12.97886942355035 6.427099785350947)"><path d="M-15.18 5.23 C-7.72 2.39, -4.97 -0.45, 4.1 -2.84 M-15.58 1.17 C-9.58 2.25, -3.4 -1.22, 1.77 -0.58" stroke="#c92a2a" stroke-width="1" fill="none"></path></g></g><g stroke-linecap="round"><g transform="translate(370.8769058862399 129.4526177701423) rotate(0 -2.385989154584422 30.61822751752311)"><path d="M-2.57 -2.78 C-2.71 7.43, -2.88 53.21, -3.23 64.01 M1.23 1.89 C0.84 12.47, -5.94 49.37, -6 59.87" stroke="#000000" stroke-width="1" fill="none"></path></g></g><g stroke-linecap="round"><g transform="translate(820.8769058862399 127.4526177701423) rotate(0 -1.1153737229687977 30.004543040089516)"><path d="M2.31 -0.27 C1.26 9.98, -3.67 49.64, -4.54 60.02 M0.12 -2.89 C-0.24 7.85, 1.47 51.5, 0.61 62.89" stroke="#000000" stroke-width="1" fill="none"></path></g></g><g transform="translate(10 378.33770656585693) rotate(0 631.5 35)"><text x="0" y="25" font-family="Virgil, Segoe UI Emoji" font-size="28px" fill="#000000" text-anchor="start" style="white-space: pre;" direction="ltr">This rotation still maintains the property that every leaf node has same number of black </text><text x="0" y="60" font-family="Virgil, Segoe UI Emoji" font-size="28px" fill="#000000" text-anchor="start" style="white-space: pre;" direction="ltr">links from the root</text></g></svg>