<svg version="1.1" xmlns="http://www.w3.org/2000/svg" viewBox="0 0 967.9781640085421 725.4279385937532" width="967.9781640085421" height="725.4279385937532">
  <!-- svg-source:excalidraw -->
  
  <defs>
    <style>
      @font-face {
        font-family: "Virgil";
        src: url("https://excalidraw.com/Virgil.woff2");
      }
      @font-face {
        font-family: "Cascadia";
        src: url("https://excalidraw.com/Cascadia.woff2");
      }
    </style>
  </defs>
  <rect x="0" y="0" width="967.9781640085421" height="725.4279385937532" fill="#ffffff"></rect><g transform="translate(10 10) rotate(0 73 17.5)"><text x="0" y="25" font-family="Virgil, Segoe UI Emoji" font-size="28px" fill="#000000" text-anchor="start" style="white-space: pre;" direction="ltr">Example 5:</text></g><g transform="translate(195.00072985225233 68.79897265964087) rotate(0 9.5 17.5)"><text x="0" y="25" font-family="Virgil, Segoe UI Emoji" font-size="28px" fill="#000000" text-anchor="start" style="white-space: pre;" direction="ltr">E</text></g><g transform="translate(123.00072985225233 126.79897265964087) rotate(0 9 17.5)"><text x="0" y="25" font-family="Virgil, Segoe UI Emoji" font-size="28px" fill="#000000" text-anchor="start" style="white-space: pre;" direction="ltr">A</text></g><g transform="translate(263.00072985225233 127.79897265964087) rotate(0 8.5 17.5)"><text x="0" y="25" font-family="Virgil, Segoe UI Emoji" font-size="28px" fill="#000000" text-anchor="start" style="white-space: pre;" direction="ltr">S</text></g><g transform="translate(232.00072985225233 192.79897265964087) rotate(0 9.5 17.5)"><text x="0" y="25" font-family="Virgil, Segoe UI Emoji" font-size="28px" fill="#000000" text-anchor="start" style="white-space: pre;" direction="ltr">R</text></g><g stroke-linecap="round"><g transform="translate(223.00072985225233 101.29897265964087) rotate(0 15.42439617965374 8.327988063953796)"><path d="M0.1 1.54 C6.23 3.9, 27.88 14.82, 34.14 16.75 M-3.29 -0.1 C2.64 2.76, 24.67 10.58, 31.44 13.23" stroke="#000000" stroke-width="1" fill="none"></path></g></g><g stroke-linecap="round"><g transform="translate(186.00072985225233 99.29897265964087) rotate(0 -16.504697903655597 13.224076130092158)"><path d="M1.13 0.26 C-4.19 4.58, -27.18 21.55, -33.35 26.33 M-1.69 -2.07 C-7.03 2.46, -28.16 22.83, -34.14 28.51" stroke="#000000" stroke-width="1" fill="none"></path></g></g><g stroke-linecap="round"><g transform="translate(263.00072985225233 166.29897265964087) rotate(0 -7.997364782914701 14.622365555427962)"><path d="M1.47 0.56 C-1.63 5.71, -14.1 25.8, -17.47 30.85 M-1.17 -1.6 C-3.44 2.76, -9.83 22.19, -11.87 26.84" stroke="#a61e4d" stroke-width="1" fill="none"></path></g></g><g stroke-linecap="round"><g transform="translate(287.00072985225233 158.29897265964087) rotate(0 18.011209485940526 24.260434426069253)"><path d="M2.61 2.2 C8.12 9.16, 29.59 37.19, 35.45 43.97 M0.58 0.93 C5.46 8.17, 26.86 40.18, 32.91 47.59" stroke="#000000" stroke-width="1" fill="none"></path></g></g><g stroke-linecap="round"><g transform="translate(109.00072985225233 161.29897265964087) rotate(0 -11.496834845133435 22.289683836698543)"><path d="M-2.51 -0.6 C-6.29 6.8, -20.99 37.17, -24.31 44.93 M1.32 -3.4 C-1.44 4.34, -14.86 39.24, -19.16 47.98" stroke="#000000" stroke-width="1" fill="none"></path></g></g><g stroke-linecap="round"><g transform="translate(151.00072985225233 168.29897265964087) rotate(0 12.061924469843689 19.709896852672102)"><path d="M-0.85 2.08 C3.3 8.34, 20.86 29.86, 24.98 35.04 M3.88 0.73 C7.83 7.71, 20.7 32.94, 23.81 38.69" stroke="#000000" stroke-width="1" fill="none"></path></g></g><g transform="translate(421.5500720077089 56.50730162196692) rotate(0 132.5 17.5)"><text x="0" y="25" font-family="Virgil, Segoe UI Emoji" font-size="28px" fill="#000000" text-anchor="start" style="white-space: pre;" direction="ltr">Add C to this tree</text></g><g transform="translate(499.2584033542207 93.21343689494665) rotate(0 -158 101.5)" stroke="none" fill="#000000"><path d="M 0.38,4.98 Q 0.38,4.98 0.24,6.22 0.10,7.46 0.08,8.78 0.05,10.11 -0.99,12.41 -2.05,14.71 -3.33,18.08 -4.61,21.45 -5.45,24.56 -6.29,27.66 -7.24,31.03 -8.20,34.41 -8.60,36.90 -8.99,39.40 -9.77,42.02 -10.55,44.64 -11.75,48.32 -12.94,52.00 -14.33,55.33 -15.72,58.66 -17.19,61.54 -18.66,64.42 -20.45,67.39 -22.24,70.36 -23.54,72.99 -24.84,75.62 -26.27,78.49 -27.70,81.35 -29.50,84.08 -31.30,86.80 -33.18,89.92 -35.06,93.03 -36.73,95.81 -38.40,98.58 -40.83,102.63 -43.27,106.68 -44.87,109.54 -46.48,112.40 -48.71,114.63 -50.94,116.85 -52.99,118.89 -55.04,120.92 -57.06,122.93 -59.08,124.95 -61.41,126.98 -63.73,129.02 -66.39,131.84 -69.05,134.66 -72.81,138.21 -76.57,141.75 -79.90,144.70 -83.23,147.64 -86.99,150.37 -90.74,153.09 -95.20,156.25 -99.66,159.41 -103.86,162.19 -108.07,164.98 -112.14,167.88 -116.20,170.77 -121.11,174.03 -126.03,177.29 -130.14,179.83 -134.25,182.37 -137.74,184.32 -141.23,186.28 -145.33,188.27 -149.42,190.26 -153.78,191.98 -158.14,193.70 -162.61,195.02 -167.09,196.34 -173.88,198.04 -180.67,199.75 -186.73,201.06 -192.79,202.36 -195.96,202.92 -199.13,203.47 -204.28,203.72 -209.44,203.96 -213.04,204.06 -216.65,204.16 -220.77,204.20 -224.90,204.25 -229.81,204.26 -234.73,204.28 -238.26,204.29 -241.78,204.30 -245.29,204.30 -248.80,204.30 -252.31,204.30 -255.82,204.31 -258.87,203.72 -261.92,203.13 -264.95,202.30 -267.97,201.46 -271.71,199.02 -275.46,196.58 -278.17,194.39 -280.88,192.20 -282.90,190.40 -284.92,188.60 -286.93,186.68 -288.95,184.76 -290.95,182.80 -292.96,180.83 -294.67,179.13 -296.39,177.43 -298.02,175.52 -299.65,173.60 -301.56,169.80 -303.47,166.00 -304.56,163.24 -305.65,160.48 -306.21,159.03 -306.78,157.58 -307.11,156.30 -307.43,155.03 -308.11,152.29 -308.79,149.54 -309.15,148.34 -309.51,147.14 -309.87,145.18 -310.22,143.22 -310.43,141.45 -310.63,139.67 -310.78,138.34 -310.92,137.02 -311.11,135.50 -311.30,133.99 -312.54,135.73 -313.79,137.47 -314.01,138.96 -314.23,140.46 -314.31,141.78 -314.38,143.11 -314.39,144.24 -314.39,145.36 -314.35,147.43 -314.31,149.49 -314.25,151.09 -314.18,152.69 -314.15,153.36 -314.12,154.02 -314.16,154.36 -314.20,154.71 -314.33,155.03 -314.45,155.36 -314.65,155.64 -314.84,155.93 -315.10,156.15 -315.36,156.38 -315.67,156.55 -315.98,156.71 -316.31,156.79 -316.65,156.87 -317.00,156.87 -317.35,156.87 -317.68,156.79 -318.02,156.70 -318.32,156.54 -318.63,156.38 -318.89,156.15 -319.15,155.92 -319.35,155.63 -319.54,155.35 -319.67,155.02 -319.79,154.70 -319.83,154.36 -319.87,154.01 -319.88,152.20 -319.90,150.39 -319.84,148.84 -319.78,147.29 -319.74,145.77 -319.70,144.24 -319.66,142.74 -319.63,141.23 -319.34,138.74 -319.05,136.25 -318.97,134.73 -318.89,133.20 -318.12,131.22 -317.35,129.23 -315.68,128.64 -314.02,128.05 -312.90,127.97 -311.78,127.88 -310.69,127.89 -309.59,127.89 -308.16,127.83 -306.72,127.78 -304.93,128.25 -303.13,128.72 -302.00,129.23 -300.87,129.74 -299.29,130.83 -297.72,131.92 -296.98,133.35 -296.25,134.78 -296.02,135.86 -295.80,136.93 -295.78,137.47 -295.76,138.00 -295.91,138.52 -296.06,139.04 -296.36,139.48 -296.67,139.93 -297.10,140.25 -297.54,140.57 -298.05,140.74 -298.56,140.90 -299.10,140.90 -299.64,140.89 -300.15,140.71 -300.66,140.54 -301.09,140.20 -301.51,139.87 -301.81,139.42 -302.11,138.97 -302.25,138.45 -302.38,137.93 -302.35,137.39 -302.31,136.85 -302.11,136.36 -301.90,135.86 -301.55,135.45 -301.20,135.04 -300.73,134.77 -300.27,134.50 -299.74,134.39 -299.21,134.28 -298.67,134.34 -298.14,134.40 -297.65,134.64 -297.16,134.87 -296.78,135.24 -296.39,135.62 -296.14,136.10 -295.89,136.58 -295.81,137.11 -295.73,137.64 -295.82,138.18 -295.92,138.71 -296.18,139.18 -296.43,139.65 -296.83,140.02 -297.23,140.39 -297.72,140.61 -298.21,140.83 -298.75,140.88 -299.28,140.93 -299.81,140.81 -300.33,140.69 -300.79,140.41 -301.25,140.12 -301.60,139.71 -301.94,139.29 -302.14,138.79 -302.33,138.29 -302.54,137.27 -302.76,136.26 -303.67,135.63 -304.59,134.99 -305.65,134.60 -306.72,134.22 -308.14,134.16 -309.57,134.11 -311.41,133.82 -313.25,133.52 -313.52,135.49 -313.79,137.46 -314.07,139.34 -314.36,141.23 -314.33,142.74 -314.29,144.24 -314.25,145.77 -314.21,147.29 -314.15,148.84 -314.09,150.39 -314.11,152.20 -314.12,154.02 -314.16,154.36 -314.20,154.71 -314.33,155.03 -314.45,155.36 -314.65,155.64 -314.84,155.93 -315.10,156.15 -315.36,156.38 -315.67,156.54 -315.98,156.71 -316.31,156.79 -316.65,156.87 -317.00,156.87 -317.34,156.87 -317.68,156.79 -318.02,156.70 -318.32,156.54 -318.63,156.38 -318.89,156.15 -319.15,155.92 -319.35,155.63 -319.54,155.35 -319.67,155.02 -319.79,154.70 -319.83,154.36 -319.87,154.01 -319.81,152.46 -319.74,150.91 -319.66,149.14 -319.58,147.38 -319.53,146.29 -319.49,145.19 -319.42,143.99 -319.35,142.79 -319.25,141.36 -319.15,139.92 -318.95,137.62 -318.75,135.32 -318.27,134.28 -317.79,133.24 -316.92,131.54 -316.05,129.84 -314.15,128.84 -312.25,127.84 -310.92,128.13 -309.58,128.42 -308.61,129.17 -307.63,129.91 -307.14,131.91 -306.66,133.90 -306.75,135.34 -306.85,136.79 -306.85,138.04 -306.86,139.29 -306.72,140.89 -306.59,142.48 -306.15,144.39 -305.71,146.29 -305.56,147.42 -305.40,148.54 -304.69,151.51 -303.99,154.47 -303.93,155.57 -303.87,156.67 -303.53,158.09 -303.20,159.52 -302.16,162.18 -301.12,164.84 -299.38,168.38 -297.64,171.92 -296.09,173.74 -294.54,175.57 -292.83,177.26 -291.12,178.95 -289.13,180.91 -287.14,182.86 -285.15,184.75 -283.17,186.64 -281.20,188.40 -279.23,190.16 -276.62,192.27 -274.00,194.39 -270.62,196.67 -267.24,198.95 -264.33,199.75 -261.42,200.56 -258.61,201.12 -255.81,201.68 -252.31,201.68 -248.81,201.68 -245.30,201.67 -241.79,201.67 -238.26,201.66 -234.74,201.66 -229.83,201.64 -224.93,201.62 -220.82,201.58 -216.72,201.53 -213.14,201.44 -209.56,201.34 -204.57,201.11 -199.58,200.89 -196.46,200.34 -193.35,199.79 -187.33,198.50 -181.31,197.21 -174.57,195.51 -167.83,193.82 -163.47,192.54 -159.10,191.26 -154.83,189.58 -150.57,187.90 -146.54,185.94 -142.51,183.98 -139.07,182.06 -135.63,180.14 -131.56,177.62 -127.48,175.10 -122.60,171.86 -117.72,168.63 -113.62,165.71 -109.52,162.79 -105.35,160.03 -101.17,157.26 -96.73,154.11 -92.28,150.96 -88.63,148.32 -84.97,145.68 -81.67,142.76 -78.37,139.84 -74.67,136.35 -70.96,132.86 -68.21,129.95 -65.46,127.04 -63.20,125.06 -60.93,123.09 -58.91,121.07 -56.89,119.05 -54.83,117.01 -52.78,114.98 -50.77,113.04 -48.75,111.09 -47.14,108.21 -45.53,105.33 -43.09,101.27 -40.66,97.22 -38.99,94.44 -37.32,91.67 -35.41,88.50 -33.50,85.34 -31.79,82.75 -30.08,80.17 -28.65,77.30 -27.23,74.44 -25.88,71.71 -24.54,68.98 -22.80,66.09 -21.06,63.20 -19.65,60.41 -18.24,57.62 -16.90,54.39 -15.57,51.16 -14.41,47.50 -13.25,43.85 -12.54,41.41 -11.84,38.96 -11.45,36.29 -11.06,33.62 -10.18,30.26 -9.29,26.89 -8.49,23.61 -7.69,20.34 -6.48,16.81 -5.26,13.27 -4.50,11.51 -3.75,9.75 -3.57,8.27 -3.38,6.79 -3.03,5.50 -2.68,4.21 -2.04,1.73 -1.39,-0.74 -1.29,-0.89 -1.18,-1.05 -1.03,-1.17 -0.89,-1.30 -0.72,-1.39 -0.55,-1.48 -0.37,-1.52 -0.18,-1.57 0.00,-1.57 0.19,-1.57 0.38,-1.52 0.56,-1.47 0.73,-1.38 0.90,-1.30 1.04,-1.17 1.18,-1.04 1.29,-0.88 1.40,-0.73 1.47,-0.55 1.53,-0.37 1.56,-0.18 1.58,0.00 1.55,0.19 1.53,0.38 0.96,2.68 L 0.38,4.98 Z"></path></g><g transform="translate(184.66191058688673 326.37023358874853) rotate(0 9.5 17.5)"><text x="0" y="25" font-family="Virgil, Segoe UI Emoji" font-size="28px" fill="#000000" text-anchor="start" style="white-space: pre;" direction="ltr">E</text></g><g transform="translate(113.66191058688673 382.37023358874853) rotate(0 9 17.5)"><text x="0" y="25" font-family="Virgil, Segoe UI Emoji" font-size="28px" fill="#000000" text-anchor="start" style="white-space: pre;" direction="ltr">A</text></g><g transform="translate(253.66191058688673 383.37023358874853) rotate(0 8.5 17.5)"><text x="0" y="25" font-family="Virgil, Segoe UI Emoji" font-size="28px" fill="#000000" text-anchor="start" style="white-space: pre;" direction="ltr">S</text></g><g transform="translate(222.66191058688673 448.37023358874853) rotate(0 9.5 17.5)"><text x="0" y="25" font-family="Virgil, Segoe UI Emoji" font-size="28px" fill="#000000" text-anchor="start" style="white-space: pre;" direction="ltr">R</text></g><g stroke-linecap="round"><g transform="translate(212.66191058688673 358.09977377755513) rotate(0 16.70848246342257 5.496207075364282)"><path d="M-2.61 -0.15 C3.59 1.73, 29.12 9.43, 36.03 11.31 M1.17 -2.7 C7.05 -0.55, 27.35 11.1, 33.53 13.7" stroke="#000000" stroke-width="1" fill="none"></path></g></g><g stroke-linecap="round"><g transform="translate(175.66191058688673 356.48288565400185) rotate(0 -18.722744375840193 13.37423110170073)"><path d="M-0.15 -0.48 C-6.37 4.95, -31.07 25.46, -37.29 29.96 M-3.68 -3.21 C-9.04 1.7, -27.42 20.82, -32.14 26.2" stroke="#000000" stroke-width="1" fill="none"></path></g></g><g stroke-linecap="round"><g transform="translate(253.66191058688673 421.87023358874853) rotate(0 -7.589525075219626 13.255094076059777)"><path d="M-0.48 -2.29 C-2.33 2.15, -10.93 21.29, -13.7 26.52 M-4.19 2.63 C-5.97 7.35, -12.14 23.87, -14.7 28.8" stroke="#a61e4d" stroke-width="1" fill="none"></path></g></g><g stroke-linecap="round"><g transform="translate(277.66191058688673 413.87023358874853) rotate(0 18.141423724107426 23.493676484823254)"><path d="M-2.29 2.3 C3.32 9.52, 27.12 36.35, 33.52 42.89 M1.66 1.07 C8.13 8.73, 33.13 38.88, 38.58 45.91" stroke="#000000" stroke-width="1" fill="none"></path></g></g><g stroke-linecap="round"><g transform="translate(99.66191058688673 416.87023358874853) rotate(0 -11.829083961509241 23.64809399094429)"><path d="M2.3 -2.48 C-1.48 5.59, -18.65 37.63, -23.11 46.09 M0.1 2.35 C-4.1 11.11, -22.77 42.82, -25.95 49.78" stroke="#000000" stroke-width="1" fill="none"></path></g></g><g stroke-linecap="round"><g transform="translate(141.66191058688673 423.87023358874853) rotate(0 10.307652681693526 15.307375916242563)"><path d="M-2.48 -1.11 C1.75 3.92, 18.46 26.75, 23.09 32.52 M1.37 -4.18 C5.44 0.9, 17.01 28.14, 20.91 34.8" stroke="#a61e4d" stroke-width="1" fill="none"></path></g></g><g transform="translate(165.66191058688673 453.37023358874853) rotate(0 9 17.5)"><text x="0" y="25" font-family="Virgil, Segoe UI Emoji" font-size="28px" fill="#000000" text-anchor="start" style="white-space: pre;" direction="ltr">C</text></g><g stroke-linecap="round"><g transform="translate(158.22002153926405 491.87900286250647) rotate(0 -10.971546649560423 15.471679073199653)"><path d="M0.87 0.28 C-3.2 4.97, -18.84 25.12, -22.81 30.67" stroke="#000000" stroke-width="1.5" fill="none" stroke-dasharray="1.5 7"></path></g></g><g stroke-linecap="round"><g transform="translate(178.22002153926405 499.87900286250647) rotate(0 10.546854000911026 17.289477980509446)"><path d="M-0.74 -1.78 C2.83 4.38, 18.15 30.19, 21.83 36.36 M4.06 3.43 C7.11 8.9, 15.09 28.14, 18.96 32.63" stroke="#000000" stroke-width="1" fill="none"></path></g></g><g stroke-linecap="round"><g transform="translate(247.22002153926405 495.87900286250647) rotate(0 5.660614098049791 13.1032234832644)"><path d="M1.91 1.26 C3.49 4.82, 9.98 19.51, 11.83 23.77 M-0.5 -0.52 C0.38 4.62, 7 22.94, 8.95 26.73" stroke="#000000" stroke-width="1" fill="none"></path></g></g><g stroke-linecap="round"><g transform="translate(217.22002153926405 479.87900286250647) rotate(0 -5.7656737895681545 12.280503751225751)"><path d="M0.03 -2.72 C-1.25 1.52, -7.58 19.87, -9.56 24.48 M-3.41 1.97 C-4.84 6.64, -11.13 23.04, -11.56 27.29" stroke="#000000" stroke-width="1" fill="none"></path></g></g><g stroke-linecap="round"><g transform="translate(221.22002153926405 223.87900286250647) rotate(0 -2.3898886628821856 14.304354015775061)"><path d="M1.37 -2.16 C0.19 2.17, -3.13 22.8, -4.29 27.44 M-1.34 2.83 C-3.07 7.46, -5.08 26.64, -6.15 30.77" stroke="#000000" stroke-width="1" fill="none"></path></g></g><g stroke-linecap="round"><g transform="translate(257.22002153926405 215.87900286250647) rotate(0 16.02335073921813 22.639479782283274)"><path d="M1.31 2.72 C6.61 9.67, 28.08 34.25, 33.47 41.35 M-1.42 1.73 C3.57 8.96, 26.79 37.08, 32.57 43.54" stroke="#000000" stroke-width="1" fill="none"></path></g></g><g stroke-linecap="round"><g transform="translate(349.22002153926405 406.8362370067173) rotate(0 89.72534424941978 -0.5831668253988482)"><path d="M1.48 1.58 C31.86 0.68, 151.24 -2.48, 180.61 -2.75 M-1.16 -0.03 C29.24 0.5, 150.31 -1.12, 179.79 -0.61" stroke="#000000" stroke-width="1" fill="none"></path></g><g transform="translate(349.22002153926405 406.8362370067173) rotate(0 89.72534424941978 -0.5831668253988482)"><path d="M153.86 13.38 C154.24 6.46, 164.84 1.88, 176.62 2.1 M152.41 7.68 C159.92 5.94, 164.27 5.87, 177.88 -0.03" stroke="#000000" stroke-width="1" fill="none"></path></g><g transform="translate(349.22002153926405 406.8362370067173) rotate(0 89.72534424941978 -0.5831668253988482)"><path d="M153.86 -7.14 C154.63 -9.14, 165.24 -8.8, 176.62 2.1 M152.41 -12.84 C160.03 -9.76, 164.38 -5.02, 177.88 -0.03" stroke="#000000" stroke-width="1" fill="none"></path></g></g><g transform="translate(391.22002153926405 346.3362370067173) rotate(0 84.5 17.5)"><text x="0" y="25" font-family="Virgil, Segoe UI Emoji" font-size="28px" fill="#000000" text-anchor="start" style="white-space: pre;" direction="ltr">Left rotate</text></g><g transform="translate(619.220021539264 430.8318523698383) rotate(0 9 17.5)"><text x="0" y="25" font-family="Virgil, Segoe UI Emoji" font-size="28px" fill="#000000" text-anchor="start" style="white-space: pre;" direction="ltr">A</text></g><g transform="translate(793.220021539264 369.8318523698383) rotate(0 8.5 17.5)"><text x="0" y="25" font-family="Virgil, Segoe UI Emoji" font-size="28px" fill="#000000" text-anchor="start" style="white-space: pre;" direction="ltr">S</text></g><g transform="translate(762.220021539264 434.8318523698383) rotate(0 9.5 17.5)"><text x="0" y="25" font-family="Virgil, Segoe UI Emoji" font-size="28px" fill="#000000" text-anchor="start" style="white-space: pre;" direction="ltr">R</text></g><g stroke-linecap="round"><g transform="translate(753.220021539264 343.3318523698383) rotate(0 17.962276671863947 6.397491652667554)"><path d="M1.99 -0.6 C7.91 1.2, 30.89 10.44, 36.3 13.06 M-0.37 -3.39 C5.22 -1.4, 29.31 13.91, 34.77 16.18" stroke="#000000" stroke-width="1" fill="none"></path></g></g><g stroke-linecap="round"><g transform="translate(716.220021539264 341.3318523698383) rotate(0 -10.370951996246731 10.329522495667106)"><path d="M-0.6 1.3 C-4.69 3.93, -19 15.12, -22.27 17.79 M4.28 -0.46 C-0.48 2.42, -20.74 17.73, -25.02 21.12" stroke="#000000" stroke-width="1" fill="none"></path></g></g><g stroke-linecap="round"><g transform="translate(792.310930630174 409.2409432789293) rotate(0 -8.889360784552991 13.112878719232981)"><path d="M1.3 -0.94 C-1.79 4.19, -13.49 25.47, -16.54 30.14 M-1.44 -3.91 C-5.13 0.41, -16.09 20.24, -19.08 25.75" stroke="#a61e4d" stroke-width="1" fill="none"></path></g></g><g stroke-linecap="round"><g transform="translate(817.220021539264 400.3318523698383) rotate(0 18.101435964927077 21.37008187174797)"><path d="M-0.94 -0.54 C5.35 6.4, 31.3 35.9, 37.14 42.98 M3.75 -3.31 C9.82 3.91, 29.5 38.18, 35.52 46.05" stroke="#000000" stroke-width="1" fill="none"></path></g></g><g stroke-linecap="round"><g transform="translate(605.220021539264 465.3318523698383) rotate(0 -13.181630585454513 22.98532106131313)"><path d="M-0.54 1.14 C-4.6 8.64, -19.1 36.72, -23.02 44.09 M-4.28 -0.71 C-8.92 7.19, -23.47 38.54, -25.82 46.68" stroke="#000000" stroke-width="1" fill="none"></path></g></g><g stroke-linecap="round"><g transform="translate(644.1271070326511 423.6005198517587) rotate(0 9.5966679990388 -12.75041898035306)"><path d="M1.14 -1.02 C3.88 -5.01, 12.91 -20.54, 15.51 -24.48 M-1.69 -4.05 C2.04 -7.69, 18.16 -18.85, 20.88 -21.97" stroke="#a61e4d" stroke-width="1" fill="none"></path></g></g><g transform="translate(662.553354872598 367.8318523698383) rotate(0 9 17.5)"><text x="0" y="25" font-family="Virgil, Segoe UI Emoji" font-size="28px" fill="#000000" text-anchor="start" style="white-space: pre;" direction="ltr">C</text></g><g stroke-linecap="round"><g transform="translate(647.9579462348993 463.60707475079425) rotate(0 11.133861880811764 20.70822251675031)"><path d="M-1.91 -2.07 C1.93 5.35, 19.29 35.09, 24.18 43.48" stroke="#000000" stroke-width="1.5" fill="none" stroke-dasharray="1.5 7"></path></g></g><g stroke-linecap="round"><g transform="translate(674.3402959563518 414.34062164359625) rotate(0 13.317065389449454 17.579993583820738)"><path d="M-2.07 -0.64 C2.02 6.11, 18.45 32.29, 23.52 38.62 M2.01 -3.46 C7.05 2.75, 24.38 29.03, 28.7 35.03" stroke="#000000" stroke-width="1" fill="none"></path></g></g><g stroke-linecap="round"><g transform="translate(786.7781324916414 482.34062164359625) rotate(0 7.488074832782331 12.660253227129601)"><path d="M-0.64 -2.25 C2.28 2.69, 13.12 23.18, 15.62 27.57 M4.21 2.7 C7.16 7.1, 13.29 19.96, 14.8 23.96" stroke="#000000" stroke-width="1" fill="none"></path></g></g><g stroke-linecap="round"><g transform="translate(756.7781324916414 466.34062164359625) rotate(0 -3.2740187522767883 14.4596805485711)"><path d="M-2.25 2.62 C-3.14 7.28, -5.98 23.31, -7.43 27.35 M1.72 1.57 C0.88 5.46, -5.78 19.69, -8.27 23.07" stroke="#000000" stroke-width="1" fill="none"></path></g></g><g transform="translate(730.720021539264 313.3362370067173) rotate(0 9.5 17.5)"><text x="0" y="25" font-family="Virgil, Segoe UI Emoji" font-size="28px" fill="#000000" text-anchor="start" style="white-space: pre;" direction="ltr">E</text></g><g stroke-linecap="round"><g transform="translate(199.76936393313918 13.973302417331297) rotate(0 1.7210550991530909 22.31231836117803)"><path d="M-1.37 -2.33 C-1.4 5.81, -1.07 38.75, -0.88 46.95 M3.08 2.58 C4.01 10.11, 5.47 36.37, 4.5 43" stroke="#000000" stroke-width="1" fill="none"></path></g></g><g stroke-linecap="round"><g transform="translate(193.76936393313918 284.9733024173313) rotate(0 -1.8585436649168514 16.450483436249215)"><path d="M0.16 -1.41 C-0.12 4.16, -1.03 26.34, -0.78 32.2 M-3.2 3.99 C-4.01 9.91, -4.1 28.94, -3.44 34.31" stroke="#000000" stroke-width="1" fill="none"></path></g></g><g stroke-linecap="round"><g transform="translate(735.7693639331392 258.9733024173313) rotate(0 1.7035294024276482 24.347258067503617)"><path d="M-0.7 -2.28 C-0.64 6.47, 1.3 41.83, 1.19 50.97 M4.11 2.65 C3.83 10.68, 0.94 38.85, -0.41 46.49" stroke="#000000" stroke-width="1" fill="none"></path></g></g><g transform="translate(51.03737717000877 567.7594761438993) rotate(0 154.5 35)"><text x="0" y="25" font-family="Virgil, Segoe UI Emoji" font-size="28px" fill="#a61e4d" text-anchor="start" style="white-space: pre;" direction="ltr">Problem: Now we have </text><text x="0" y="60" font-family="Virgil, Segoe UI Emoji" font-size="28px" fill="#a61e4d" text-anchor="start" style="white-space: pre;" direction="ltr">right-leaning red link</text></g><g transform="translate(560.9781640085421 565.4279385937532) rotate(0 198.5 75)"><text x="0" y="18" font-family="Virgil, Segoe UI Emoji" font-size="20px" fill="#5c940d" text-anchor="start" style="white-space: pre;" direction="ltr">Property restored</text><text x="0" y="43" font-family="Virgil, Segoe UI Emoji" font-size="20px" fill="#5c940d" text-anchor="start" style="white-space: pre;" direction="ltr"></text><text x="0" y="68" font-family="Virgil, Segoe UI Emoji" font-size="20px" fill="#5c940d" text-anchor="start" style="white-space: pre;" direction="ltr">- Every path from the root to leaf has</text><text x="0" y="93" font-family="Virgil, Segoe UI Emoji" font-size="20px" fill="#5c940d" text-anchor="start" style="white-space: pre;" direction="ltr">same number of black links</text><text x="0" y="118" font-family="Virgil, Segoe UI Emoji" font-size="20px" fill="#5c940d" text-anchor="start" style="white-space: pre;" direction="ltr"></text><text x="0" y="143" font-family="Virgil, Segoe UI Emoji" font-size="20px" fill="#5c940d" text-anchor="start" style="white-space: pre;" direction="ltr">- Red links are leaning left</text></g><g stroke-linecap="round" transform="translate(86.26917163823055 423.79674311166036) rotate(53.972626614896285 66.44334998741942 13.987868101422805)"><path d="M59.72 -1.93 C71.38 -2.52, 88.09 -1.82, 98.91 -0.02 C109.73 1.78, 118.95 6.22, 124.64 8.87 C130.32 11.52, 133.76 13.58, 133.03 15.87 C132.3 18.17, 126.96 20.67, 120.26 22.63 C113.56 24.59, 103.9 26.99, 92.83 27.64 C81.75 28.28, 65.72 26.77, 53.8 26.5 C41.88 26.23, 30.22 27.8, 21.32 26.01 C12.42 24.23, 3.11 18.54, 0.4 15.77 C-2.31 13, 1.15 11.46, 5.07 9.4 C8.99 7.34, 15.15 5.31, 23.93 3.43 C32.71 1.55, 46.98 -1.25, 57.74 -1.9 C68.5 -2.55, 80.01 -1.71, 88.49 -0.45 C96.98 0.81, 109.18 5.34, 108.66 5.66" stroke="#a61e4d" stroke-width="1.5" fill="none" stroke-dasharray="1.5 7"></path></g></svg>