<svg version="1.1" xmlns="http://www.w3.org/2000/svg" viewBox="0 0 1524.0449673258718 329.40904709524875" width="1524.0449673258718" height="329.40904709524875">
  <!-- svg-source:excalidraw -->
  
  <defs>
    <style>
      @font-face {
        font-family: "Virgil";
        src: url("https://excalidraw.com/Virgil.woff2");
      }
      @font-face {
        font-family: "Cascadia";
        src: url("https://excalidraw.com/Cascadia.woff2");
      }
    </style>
  </defs>
  <rect x="0" y="0" width="1524.0449673258718" height="329.40904709524875" fill="#ffffff"></rect><g transform="translate(204.24106711347667 10) rotate(0 117 22.5)"><text x="0" y="32" font-family="Virgil, Segoe UI Emoji" font-size="36px" fill="#000000" text-anchor="start" style="white-space: pre;" direction="ltr">3 - Color flip</text></g><g transform="translate(471.7259155983247 12.242424242424477) rotate(0 272.5 17.5)"><text x="0" y="25" font-family="Virgil, Segoe UI Emoji" font-size="28px" fill="#000000" text-anchor="start" style="white-space: pre;" direction="ltr">- Whenever a 3 node becomes a 4 node</text></g><g transform="translate(763.5519516758704 185.60162991466132) rotate(0 9.5 17.5)"><text x="0" y="25" font-family="Virgil, Segoe UI Emoji" font-size="28px" fill="#000000" text-anchor="start" style="white-space: pre;" direction="ltr">a</text></g><g transform="translate(823.5519516758704 132.55438168121236) rotate(0 7 17.5)"><text x="0" y="25" font-family="Virgil, Segoe UI Emoji" font-size="28px" fill="#000000" text-anchor="start" style="white-space: pre;" direction="ltr">b</text></g><g stroke-linecap="round"><g transform="translate(812.6428607667785 164.4652662782978) rotate(0 -11.268944550101878 13.222370321473136)"><path d="M-1.96 -2.16 C-6.19 2.79, -19.45 23.55, -23.84 28.6 M2.17 2.84 C-2.34 7.13, -20.59 21.35, -24.71 24.81" stroke="#a61e4d" stroke-width="1" fill="none"></path></g></g><g stroke-linecap="round"><g transform="translate(826.2792244031425 84.4652662782978) rotate(0 0.5219318285244299 16.863129556060358)"><path d="M-2.03 -0.21 C-1.72 5.7, 1.84 30.34, 3.07 36.51 M2.07 -2.79 C1.92 2.25, 0.53 26.69, 1.02 32.57" stroke="#000000" stroke-width="1" fill="none"></path></g></g><g stroke-linecap="round"><g transform="translate(850.8246789485966 169.9198117328433) rotate(0 10.056117488880773 14.90548757972715)"><path d="M1.3 1.67 C5.36 6.5, 18.32 24.94, 21.55 29.7 M-1.44 0.11 C2.47 3.98, 15.89 20.83, 19.17 25.02" stroke="#a61e4d" stroke-width="1" fill="none"></path></g></g><g stroke-linecap="round"><g transform="translate(752.6428607667785 219.9198117328433) rotate(0 -9.86161848580332 20.269415457997184)"><path d="M-2.03 -2.07 C-5.95 4.77, -17.51 33.29, -20.98 40.3 M2.06 2.97 C-2.22 10.15, -17.4 36.18, -21.78 42.61" stroke="#000000" stroke-width="1" fill="none"></path></g></g><g stroke-linecap="round"><g transform="translate(788.0974062213245 229.9198117328433) rotate(0 10.704882717108376 16.805931150371407)"><path d="M-2.6 0.85 C0.7 6.07, 14.89 27.01, 18.77 32.01 M1.18 -1.15 C5.45 4.33, 21.08 29.16, 24.01 34.76" stroke="#000000" stroke-width="1" fill="none"></path></g></g><g stroke-opacity="0.5" fill-opacity="0.5" transform="translate(876.2792244031425 191.9652662782978) rotate(0 7 17.5)"><text x="0" y="25" font-family="Virgil, Segoe UI Emoji" font-size="28px" fill="#000000" text-anchor="start" style="white-space: pre;" direction="ltr">c</text></g><g stroke-linecap="round"><g stroke-opacity="0.5" fill-opacity="0.5" transform="translate(866.2792244031425 229.9198117328433) rotate(0 -5.839444831853598 15.43488523301744)"><path d="M-1.48 2.41 C-4.09 6.97, -11.64 22.32, -13.76 26.76 M2.91 1.25 C-0.01 6.21, -11.63 25.82, -14.59 29.62" stroke="#000000" stroke-width="1" fill="none"></path></g></g><g stroke-linecap="round"><g stroke-opacity="0.5" fill-opacity="0.5" transform="translate(897.1883153122344 226.2834480964798) rotate(0 11.798763059858175 14.224724547202413)"><path d="M-2.4 0.68 C1.84 6.03, 20.74 25.65, 26 29.86 M1.49 -1.41 C5.2 3.33, 18.59 20.89, 23.07 25.77" stroke="#000000" stroke-width="1" fill="none"></path></g></g><g transform="translate(1076.7337698576885 182.41981173284285) rotate(0 9.5 17.5)"><text x="0" y="25" font-family="Virgil, Segoe UI Emoji" font-size="28px" fill="#000000" text-anchor="start" style="white-space: pre;" direction="ltr">a</text></g><g transform="translate(1136.7337698576885 129.3725634993939) rotate(0 7 17.5)"><text x="0" y="25" font-family="Virgil, Segoe UI Emoji" font-size="28px" fill="#000000" text-anchor="start" style="white-space: pre;" direction="ltr">b</text></g><g stroke-linecap="round"><g transform="translate(1127.6428607667785 161.2834480964798) rotate(0 -12.624844843318442 13.854935053830786)"><path d="M2.48 1.13 C-1.81 5.34, -22.94 21.15, -27.73 25.36 M0.39 -0.73 C-2.78 3.86, -17.34 23.41, -22.08 28.44" stroke="#000000" stroke-width="1" fill="none"></path></g></g><g stroke-linecap="round"><g transform="translate(1140.3701334940524 81.28344809647979) rotate(0 -0.01879528927975116 18.466528004810698)"><path d="M1.13 -1.37 C1.4 3.99, 1.45 28.35, 1.72 34.63 M-1.71 4.06 C-1.91 11.12, -1.5 33.69, -1.06 38.3" stroke="#a61e4d" stroke-width="1" fill="none"></path></g></g><g stroke-linecap="round"><g transform="translate(1165.8246789485984 166.73799355102483) rotate(0 10.265679714185353 14.351775748865293)"><path d="M-1.37 -1.01 C1.87 3.66, 17.74 24.36, 21.9 29.09 M3.08 -4.02 C5.73 1.02, 16.43 27.12, 19.71 32.72" stroke="#000000" stroke-width="1" fill="none"></path></g></g><g stroke-linecap="round"><g transform="translate(1065.8246789485966 216.73799355102483) rotate(0 -11.113637597019533 21.081205229836996)"><path d="M-1.01 0.08 C-5.13 7.73, -19.58 37.11, -23.63 44.5 M3.64 -2.34 C-0.96 4.63, -22.03 33.42, -25.87 40.46" stroke="#000000" stroke-width="1" fill="none"></path></g></g><g stroke-linecap="round"><g transform="translate(1101.2792244031443 226.73799355102483) rotate(0 9.684007690450471 16.11047148262901)"><path d="M0.08 0 C4.09 5.5, 18.93 26.29, 22.68 31.96 M-3.32 -2.46 C0.6 3.45, 17.23 28.04, 21.41 34.69" stroke="#000000" stroke-width="1" fill="none"></path></g></g><g transform="translate(1189.4610425849605 188.7834480964798) rotate(0 7 17.5)"><text x="0" y="25" font-family="Virgil, Segoe UI Emoji" font-size="28px" fill="#000000" text-anchor="start" style="white-space: pre;" direction="ltr">c</text></g><g stroke-linecap="round"><g transform="translate(1179.4610425849605 226.73799355102483) rotate(0 -7.085515619126909 15.391912761265985)"><path d="M1.78 -1.67 C-0.68 3.09, -11.22 23.32, -14.64 28.6 M-0.71 3.59 C-3.38 8.88, -13.86 28.81, -15.95 32.46" stroke="#000000" stroke-width="1" fill="none"></path></g></g><g stroke-linecap="round"><g transform="translate(1210.3701334940524 223.10162991466177) rotate(0 13.009197478029364 14.15050630536939)"><path d="M-1.67 1.72 C2.94 5.72, 22.56 21.81, 27.69 25.79 M2.62 0.19 C6.89 4.29, 21.41 23.61, 25.68 28.11" stroke="#000000" stroke-width="1" fill="none"></path></g></g><g stroke-linecap="round"><g transform="translate(908.2868872169129 156.5268687651028) rotate(0 56.66370738625528 -3.134108948521316)"><path d="M-0.48 -0.96 C18.48 -1.5, 93.3 -1.01, 112.04 -0.76 M-4.18 -3.95 C15.84 -4.18, 97.17 -5.5, 117.51 -5.51" stroke="#000000" stroke-width="1" fill="none"></path></g><g transform="translate(908.2868872169129 156.5268687651028) rotate(0 56.66370738625528 -3.134108948521316)"><path d="M88.04 2.57 C96.66 0.03, 105.26 -1.63, 115.5 -9.02 M89.76 4.3 C99.62 -0.2, 108.79 -3.48, 116.75 -3.57" stroke="#000000" stroke-width="1" fill="none"></path></g><g transform="translate(908.2868872169129 156.5268687651028) rotate(0 56.66370738625528 -3.134108948521316)"><path d="M87.85 -17.95 C96.87 -15.57, 105.51 -12.32, 115.5 -9.02 M89.57 -16.22 C99.52 -14.16, 108.75 -10.88, 116.75 -3.57" stroke="#000000" stroke-width="1" fill="none"></path></g></g><g transform="translate(902.637278044027 100.20666042692892) rotate(0 61.5 17.5)"><text x="0" y="25" font-family="Virgil, Segoe UI Emoji" font-size="28px" fill="#a61e4d" text-anchor="start" style="white-space: pre;" direction="ltr">Color flip</text></g><g transform="translate(1181.0449673258718 102.10032195103031) rotate(0 166.5 30)"><text x="0" y="14" font-family="Virgil, Segoe UI Emoji" font-size="16px" fill="#5c940d" text-anchor="start" style="white-space: pre;" direction="ltr">Property restored</text><text x="0" y="34" font-family="Virgil, Segoe UI Emoji" font-size="16px" fill="#5c940d" text-anchor="start" style="white-space: pre;" direction="ltr"></text><text x="0" y="54" font-family="Virgil, Segoe UI Emoji" font-size="16px" fill="#5c940d" text-anchor="start" style="white-space: pre;" direction="ltr">- No node has 2 red links connected to it</text></g><g transform="translate(599.2486655177327 285.37207605325693) rotate(0 212 10)"><text x="424" y="14" font-family="Virgil, Segoe UI Emoji" font-size="16px" fill="#c92a2a" text-anchor="end" style="white-space: pre;" direction="ltr">Current situation: b has 2 red notes connected to it</text></g><g transform="translate(279.6861743392201 109.07602240526194) rotate(0 4 10)"><text x="8" y="14" font-family="Virgil, Segoe UI Emoji" font-size="16px" fill="#000000" text-anchor="end" style="white-space: pre;" direction="ltr"></text></g><g transform="translate(141.6861743392201 88.07602240526194) rotate(0 118 12.5)"><text x="236" y="18" font-family="Virgil, Segoe UI Emoji" font-size="20px" fill="#000000" text-anchor="end" style="white-space: pre;" direction="ltr">2,3 tree representation</text></g><g transform="translate(258.60284100588615 164.65935573859542) rotate(0 44.5 17.5)"><text x="89" y="25" font-family="Virgil, Segoe UI Emoji" font-size="28px" fill="#000000" text-anchor="end" style="white-space: pre;" direction="ltr">a, b, c</text></g><g stroke-linecap="round"><g transform="translate(304.2492232285167 138.80329513253446) rotate(0 0.7671424436034613 10.269924097753346)"><path d="M1.38 0.6 C1.91 4.06, 3.05 18.35, 2.82 22.08 M-1.31 -1.54 C-1.07 0.93, -0.22 14.26, 0.95 17.6" stroke="#000000" stroke-width="1" fill="none"></path></g></g><g stroke-linecap="round"><g transform="translate(262.4361743392201 208.492689071928) rotate(0 -12.110212614228658 21.655703349964142)"><path d="M0.64 -0.33 C-3.47 7.11, -19.66 36.02, -23.86 43.61 M-0.48 -1.55 C-4.83 6.13, -21.26 37.36, -24.86 44.86" stroke="#000000" stroke-width="1" fill="none"></path></g></g><g stroke-linecap="round"><g transform="translate(283.03402528231163 208.55679163603145) rotate(0 -5.364749773390486 37.1649941993353)"><path d="M-0.3 -1.12 C-2.35 11.27, -10.39 63.01, -12.47 75.45 M1.74 0.91 C0.09 13.51, -8.1 61.69, -10.13 73.94" stroke="#000000" stroke-width="1" fill="none"></path></g></g><g stroke-linecap="round"><g transform="translate(341.4361743392201 207.5760224052624) rotate(0 15.705756483683217 24.67042132621623)"><path d="M1.06 1.05 C6.13 8.96, 26.08 39.63, 31.25 47.51 M0.16 0.56 C5.01 8.62, 25.14 40.58, 30.44 48.79" stroke="#000000" stroke-width="1" fill="none"></path></g></g><g transform="translate(461.5043561574039 170.6669314961705) rotate(0 9.5 17.5)"><text x="0" y="25" font-family="Virgil, Segoe UI Emoji" font-size="28px" fill="#000000" text-anchor="start" style="white-space: pre;" direction="ltr">a</text></g><g transform="translate(512.5043561574039 167.61968326272245) rotate(0 7 17.5)"><text x="0" y="25" font-family="Virgil, Segoe UI Emoji" font-size="28px" fill="#000000" text-anchor="start" style="white-space: pre;" direction="ltr">b</text></g><g stroke-linecap="round"><g transform="translate(501.595265248312 184.3806584825884) rotate(0 -8.886410491076731 2.9705514182937804)"><path d="M-0.15 2.48 C-2.72 2.88, -13.48 4.59, -16.08 4.85 M-3.68 1.36 C-6.45 2.23, -15.45 1.44, -17.62 1.09" stroke="#a61e4d" stroke-width="1" fill="none"></path></g></g><g stroke-linecap="round"><g transform="translate(515.231628884676 132.53056785980743) rotate(0 2.02942223472337 11.32520762007016)"><path d="M2.48 1.28 C2.69 5.17, 3.61 19.57, 3.67 23.14 M0.39 -0.49 C0.2 2.6, 2.45 15.94, 2.69 18.99" stroke="#000000" stroke-width="1" fill="none"></path></g></g><g stroke-linecap="round"><g transform="translate(539.7770834301282 184.00158759497026) rotate(0 7.9734646261381386 2.478782635556854)"><path d="M1.28 2.32 C4.21 2.67, 14.79 4.01, 17.41 4.58 M-1.46 1.11 C1.25 1.85, 13.16 0.29, 16.04 0.38" stroke="#a61e4d" stroke-width="1" fill="none"></path></g></g><g stroke-linecap="round"><g transform="translate(451.2387687654482 210.42515646093761) rotate(0 -5.9066353539178635 19.79948485938553)"><path d="M2.32 1.59 C-0.21 7.98, -10.39 33.09, -12.71 39.61 M0.13 -0.01 C-2.86 5.41, -12.12 29.16, -14.13 35.23" stroke="#000000" stroke-width="1" fill="none"></path></g></g><g stroke-linecap="round"><g transform="translate(476.70660349803984 214.98511331435247) rotate(0 8.712666539688598 20.06359092982302)"><path d="M1.59 1.5 C4.45 7.83, 15.43 33.88, 18.41 40.28 M-0.99 -0.16 C1.48 5.24, 13.49 30.74, 16.81 36.71" stroke="#000000" stroke-width="1" fill="none"></path></g></g><g stroke-opacity="0.5" fill-opacity="0.5" transform="translate(559.231628884676 169.03056785980743) rotate(0 7 17.5)"><text x="0" y="25" font-family="Virgil, Segoe UI Emoji" font-size="28px" fill="#000000" text-anchor="start" style="white-space: pre;" direction="ltr">c</text></g><g stroke-linecap="round"><g stroke-opacity="0.5" fill-opacity="0.5" transform="translate(559.81511569949 213.73419934630874) rotate(0 -7.774906843668759 20.668238503251132)"><path d="M1.16 2.65 C-1.72 9.02, -12.5 33.71, -15.7 39.72 M-1.65 1.62 C-4.85 7.1, -13.68 30.58, -16.71 35.95" stroke="#000000" stroke-width="1" fill="none"></path></g></g><g stroke-linecap="round"><g stroke-opacity="0.5" fill-opacity="0.5" transform="translate(575.9892030625051 210.36549657636488) rotate(0 9.67588780001961 19.863323528102228)"><path d="M2.65 2.25 C5.52 7.91, 16.21 29.9, 18.71 35.12 M0.64 1 C3.21 7.04, 15.06 32.92, 17.72 38.72" stroke="#000000" stroke-width="1" fill="none"></path></g></g><g transform="translate(383.6861743392201 163.07602240526194) rotate(0 23 12.5)"><text x="46" y="18" font-family="Virgil, Segoe UI Emoji" font-size="20px" fill="#000000" text-anchor="end" style="white-space: pre;" direction="ltr">&lt;==&gt;</text></g><g transform="translate(410.6861743392201 87.07602240526194) rotate(0 119.5 12.5)"><text x="239" y="18" font-family="Virgil, Segoe UI Emoji" font-size="20px" fill="#000000" text-anchor="end" style="white-space: pre;" direction="ltr">red-black representation</text></g><g stroke-linecap="round"><g stroke-opacity="0.6" fill-opacity="0.6" transform="translate(691.9581069411488 108.98720290147776) rotate(0 1.5430663350971372 73.36756146512926)"><path d="M-0.78 -2.19 C0.06 22.94, 3.32 123.04, 3.86 148.93" stroke="#000000" stroke-width="1.5" fill="none" stroke-dasharray="1.5 7"></path></g></g><g stroke-linecap="round"><g transform="translate(315.54896642082167 206.36055651114884) rotate(0 12.611390903299252 44.93242749955948)"><path d="M-0.51 0.32 C3.93 15.24, 21.3 74.19, 25.74 89.01 M1.42 -0.56 C5.8 14.59, 20.89 75.24, 24.93 90.42" stroke="#000000" stroke-width="1" fill="none"></path></g></g><g transform="translate(192.0582160231479 226.05421371374678) rotate(302.0317867912431 22.5 10)"><text x="45" y="14" font-family="Virgil, Segoe UI Emoji" font-size="16px" fill="#000000" text-anchor="end" style="white-space: pre;" direction="ltr">x &lt; a</text></g><g transform="translate(199.85049081462876 291.8226677644525) rotate(359.92847256729425 39.5 10)"><text x="79" y="14" font-family="Virgil, Segoe UI Emoji" font-size="16px" fill="#000000" text-anchor="end" style="white-space: pre;" direction="ltr">a &lt; x &lt; b</text></g><g transform="translate(318.60400507429404 299.188683601104) rotate(0.32819134218995166 38.5 10)"><text x="77" y="14" font-family="Virgil, Segoe UI Emoji" font-size="16px" fill="#000000" text-anchor="end" style="white-space: pre;" direction="ltr">b &lt; x &lt; c</text></g><g transform="translate(359.88101624796764 211.7404837742988) rotate(54.56668598971311 21.5 10)"><text x="43" y="14" font-family="Virgil, Segoe UI Emoji" font-size="16px" fill="#000000" text-anchor="end" style="white-space: pre;" direction="ltr">c &lt; x</text></g><g transform="translate(10 146.36020195215724) rotate(0 84 37.5)"><text x="0" y="18" font-family="Virgil, Segoe UI Emoji" font-size="20px" fill="#000000" text-anchor="start" style="white-space: pre;" direction="ltr">This is a 4 node</text><text x="0" y="43" font-family="Virgil, Segoe UI Emoji" font-size="20px" fill="#000000" text-anchor="start" style="white-space: pre;" direction="ltr">as it has 4 child</text><text x="0" y="68" font-family="Virgil, Segoe UI Emoji" font-size="20px" fill="#000000" text-anchor="start" style="white-space: pre;" direction="ltr">links</text></g><g stroke-linecap="round"><g transform="translate(246.16666666666606 186.36020195215724) rotate(0 -26.319098645547456 -4.6551840207228)"><path d="M0.38 -0.43 C-8.36 -1.84, -43.41 -7.38, -52.51 -8.88 M-0.88 -1.7 C-9.69 -2.92, -44.54 -6.46, -53.02 -7.63" stroke="#000000" stroke-width="1" fill="none"></path></g><g transform="translate(246.16666666666606 186.36020195215724) rotate(0 -26.319098645547456 -4.6551840207228)"><path d="M-27.47 -12.46 C-35.42 -13.38, -44.09 -8.17, -52.91 -7.56 M-27.13 -12.98 C-32.45 -12.28, -38.09 -11.13, -52.03 -7.58" stroke="#000000" stroke-width="1" fill="none"></path></g><g transform="translate(246.16666666666606 186.36020195215724) rotate(0 -26.319098645547456 -4.6551840207228)"><path d="M-29.62 5.87 C-36.88 -0.44, -44.91 -0.63, -52.91 -7.56 M-29.28 5.36 C-34.11 2.03, -39.27 -0.84, -52.03 -7.58" stroke="#000000" stroke-width="1" fill="none"></path></g></g></svg>