<svg version="1.1" xmlns="http://www.w3.org/2000/svg" viewBox="0 0 1046.5300168395042 548.2391903102398" width="1046.5300168395042" height="548.2391903102398">
  <!-- svg-source:excalidraw -->
  
  <defs>
    <style>
      @font-face {
        font-family: "Virgil";
        src: url("https://excalidraw.com/Virgil.woff2");
      }
      @font-face {
        font-family: "Cascadia";
        src: url("https://excalidraw.com/Cascadia.woff2");
      }
    </style>
  </defs>
  <rect x="0" y="0" width="1046.5300168395042" height="548.2391903102398" fill="#ffffff"></rect><g transform="translate(255.72875183820724 10) rotate(0 227.5 22.5)"><text x="0" y="32" font-family="Virgil, Segoe UI Emoji" font-size="36px" fill="#000000" text-anchor="start" style="white-space: pre;" direction="ltr">Tree balancing operations</text></g><g transform="translate(10 108.55619376897812) rotate(0 151 22.5)"><text x="0" y="32" font-family="Virgil, Segoe UI Emoji" font-size="36px" fill="#000000" text-anchor="start" style="white-space: pre;" direction="ltr">1 - Left rotation</text></g><g transform="translate(346.53001683950424 115.12444990873337) rotate(0 345 17.5)"><text x="0" y="25" font-family="Virgil, Segoe UI Emoji" font-size="28px" fill="#000000" text-anchor="start" style="white-space: pre;" direction="ltr">- To orient a temporarily right-leaning link to left</text></g><g stroke-opacity="0.2" fill-opacity="0.2" transform="translate(89.89130955934525 254.2192113709193) rotate(0 13 22.5)"><text x="13" y="32" font-family="Virgil, Segoe UI Emoji" font-size="36px" fill="#000000" text-anchor="middle" style="white-space: pre;" direction="ltr">2</text></g><g stroke-opacity="0.2" fill-opacity="0.2" transform="translate(116.26630955934525 256.4692113709193) rotate(0 11.5 22.5)"><text x="11.5" y="32" font-family="Virgil, Segoe UI Emoji" font-size="36px" fill="#000000" text-anchor="middle" style="white-space: pre;" direction="ltr">4</text></g><g stroke-opacity="0.2" fill-opacity="0.2" transform="translate(108.64130955934525 348.4692113709193) rotate(0 12.5 22.5)"><text x="12.5" y="32" font-family="Virgil, Segoe UI Emoji" font-size="36px" fill="#000000" text-anchor="middle" style="white-space: pre;" direction="ltr">3</text></g><g stroke-opacity="0.2" fill-opacity="0.2" transform="translate(15.641309559345245 348.9692113709193) rotate(0 5 22.5)"><text x="5" y="32" font-family="Virgil, Segoe UI Emoji" font-size="36px" fill="#000000" text-anchor="middle" style="white-space: pre;" direction="ltr">1</text></g><g stroke-opacity="0.2" fill-opacity="0.2" transform="translate(231.14130955934525 330.0942113709193) rotate(0 11 22.5)"><text x="11" y="32" font-family="Virgil, Segoe UI Emoji" font-size="36px" fill="#000000" text-anchor="middle" style="white-space: pre;" direction="ltr">5</text></g><g stroke-linecap="round"><g stroke-opacity="0.2" fill-opacity="0.2" transform="translate(81.39130955934525 285.437755538715) rotate(0 -28.162859810486225 32.09681597418353)"><path d="M2.04 -1.9 C-7.35 9.44, -46.54 54.6, -55.47 66.09 M-0.3 3.24 C-10.24 13.86, -49.77 51.6, -58.37 61.46" stroke="#000000" stroke-width="1" fill="none"></path></g></g><g stroke-linecap="round"><g stroke-opacity="0.2" fill-opacity="0.2" transform="translate(125.61018133872312 306.9692113709193) rotate(0 0.31637988830016184 18.61986733995502)"><path d="M-1.9 -1.22 C-1.15 4.85, 1.64 32.38, 2.53 38.46 M2.27 4.29 C2.88 9.46, 0.62 29.28, 0.67 34.93" stroke="#000000" stroke-width="1" fill="none"></path></g></g><g stroke-linecap="round"><g stroke-opacity="0.2" fill-opacity="0.2" transform="translate(146.26630955934525 286.9000878970139) rotate(0 39.184001129493026 26.739061714075547)"><path d="M-1.22 0.69 C11.7 10.15, 66.65 46.18, 79.59 54.88 M3.31 -1.41 C15.92 7.42, 66.99 41.22, 78.83 50.75" stroke="#000000" stroke-width="1" fill="none"></path></g></g><g stroke-linecap="round"><g stroke-opacity="0.2" fill-opacity="0.2" transform="translate(112.79943986511444 294.78372229562115) rotate(67.08588237672805 1.4795767559876367 1.8466448885892532)"><path d="M-1.95 2.04 C-2.45 1.96, -1.06 0.01, -0.36 0.39 M2.18 0.68 C2.34 0.9, 5.24 3.42, 5.01 3.35" stroke="#c92a2a" stroke-width="1" fill="none"></path></g></g><g transform="translate(425.60690823197365 223.42310100793839) rotate(0 13 22.5)"><text x="13" y="32" font-family="Virgil, Segoe UI Emoji" font-size="36px" fill="#000000" text-anchor="middle" style="white-space: pre;" direction="ltr">2</text></g><g transform="translate(490.73190823197365 285.0481010079384) rotate(0 11.5 22.5)"><text x="11.5" y="32" font-family="Virgil, Segoe UI Emoji" font-size="36px" fill="#000000" text-anchor="middle" style="white-space: pre;" direction="ltr">4</text></g><g stroke-opacity="0.1" fill-opacity="0.1" transform="translate(443.10690823197365 359.5481010079384) rotate(0 12.5 22.5)"><text x="12.5" y="32" font-family="Virgil, Segoe UI Emoji" font-size="36px" fill="#000000" text-anchor="middle" style="white-space: pre;" direction="ltr">3</text></g><g transform="translate(353.85690823197365 366.2981010079384) rotate(0 5 22.5)"><text x="5" y="32" font-family="Virgil, Segoe UI Emoji" font-size="36px" fill="#000000" text-anchor="middle" style="white-space: pre;" direction="ltr">1</text></g><g transform="translate(551.8569082319736 349.2981010079384) rotate(0 11 22.5)"><text x="11" y="32" font-family="Virgil, Segoe UI Emoji" font-size="36px" fill="#000000" text-anchor="middle" style="white-space: pre;" direction="ltr">5</text></g><g stroke-linecap="round"><g transform="translate(417.10690823197365 264.7805577728525) rotate(0 -26.263740117596626 49.08709465735717)"><path d="M-2.24 0.05 C-10.92 16.58, -44.08 83.85, -52.41 100.57 M1.74 -2.4 C-7.22 13.1, -45.05 78.18, -54.27 95.86" stroke="#000000" stroke-width="1" fill="none"></path></g></g><g stroke-linecap="round"><g stroke-opacity="0.1" fill-opacity="0.1" transform="translate(486.3316704073768 336.07102744373196) rotate(0 -6.565539213207558 18.213518470022564)"><path d="M0.05 0.7 C-2.38 7.03, -10.94 30.29, -13.18 35.73" stroke="#000000" stroke-width="1.5" fill="none" stroke-dasharray="8 9"></path></g></g><g stroke-linecap="round"><g transform="translate(520.7319082319736 322.9603564146564) rotate(0 10.819241462163518 14.9210056706454)"><path d="M0.7 0.54 C5.07 5.14, 20.52 22.77, 24.01 27.64 M-2.37 -1.63 C1.92 3.48, 18.68 26.93, 22.25 31.47" stroke="#000000" stroke-width="1" fill="none"></path></g></g><g stroke-linecap="round"><g transform="translate(489.91502939784095 267.20234763123335) rotate(67.08588237672805 -14.73576684920181 7.361246466220109)"><path d="M0.54 0.88 C-4.13 2.93, -23.58 11.07, -27.97 13.01 M-2.6 -1.11 C-7.62 1.23, -26.07 13.22, -30.02 15.83" stroke="#c92a2a" stroke-width="1" fill="none"></path></g><g transform="translate(489.91502939784095 267.20234763123335) rotate(67.08588237672805 -14.73576684920181 7.361246466220109)"><path d="M-10.09 12.15 C-9.33 11.27, -6.39 6.19, 2.41 3.41 M-9.98 11.62 C-8.1 8.16, -5.39 4.91, 0.16 1.58" stroke="#c92a2a" stroke-width="1" fill="none"></path></g><g transform="translate(489.91502939784095 267.20234763123335) rotate(67.08588237672805 -14.73576684920181 7.361246466220109)"><path d="M-14.35 2.13 C-12.26 4.25, -8.03 2.19, 2.41 3.41 M-14.24 1.6 C-11.04 1.24, -7 1.11, 0.16 1.58" stroke="#c92a2a" stroke-width="1" fill="none"></path></g></g><g transform="translate(688.1348654329777 250.9283678543311) rotate(0 13 22.5)"><text x="13" y="32" font-family="Virgil, Segoe UI Emoji" font-size="36px" fill="#000000" text-anchor="middle" style="white-space: pre;" direction="ltr">2</text></g><g transform="translate(782.6348654329777 211.9283678543311) rotate(0 11.5 22.5)"><text x="11.5" y="32" font-family="Virgil, Segoe UI Emoji" font-size="36px" fill="#000000" text-anchor="middle" style="white-space: pre;" direction="ltr">4</text></g><g transform="translate(740.6348654329777 333.9283678543311) rotate(0 12.5 22.5)"><text x="12.5" y="32" font-family="Virgil, Segoe UI Emoji" font-size="36px" fill="#000000" text-anchor="middle" style="white-space: pre;" direction="ltr">3</text></g><g transform="translate(635.1348654329777 336.9283678543311) rotate(0 5 22.5)"><text x="5" y="32" font-family="Virgil, Segoe UI Emoji" font-size="36px" fill="#000000" text-anchor="middle" style="white-space: pre;" direction="ltr">1</text></g><g transform="translate(873.1348654329777 264.9283678543311) rotate(0 11 22.5)"><text x="11" y="32" font-family="Virgil, Segoe UI Emoji" font-size="36px" fill="#000000" text-anchor="middle" style="white-space: pre;" direction="ltr">5</text></g><g stroke-linecap="round"><g transform="translate(730.1348654329777 266.9283678543311) rotate(0 21.397688454017043 -13.922751335911471)"><path d="M-2.28 0.96 C5.7 -3.49, 36.93 -20.02, 45.07 -24.92 M1.68 -0.98 C9.54 -6.36, 35.56 -24.61, 42.87 -28.81" stroke="#c92a2a" stroke-width="1" fill="none"></path></g><g transform="translate(730.1348654329777 266.9283678543311) rotate(0 21.397688454017043 -13.922751335911471)"><path d="M16.51 -18.56 C14.85 -12.79, 6.3 -8.09, -0.18 -2.1 M15.75 -17.78 C11.93 -12.25, 5.85 -6.37, -2.98 2.67" stroke="#c92a2a" stroke-width="1" fill="none"></path></g><g transform="translate(730.1348654329777 266.9283678543311) rotate(0 21.397688454017043 -13.922751335911471)"><path d="M25.05 -2.78 C21.48 -0.32, 11.21 1.22, -0.18 -2.1 M24.29 -2 C17.93 -1.01, 9.32 0.21, -2.98 2.67" stroke="#c92a2a" stroke-width="1" fill="none"></path></g></g><g stroke-linecap="round"><g transform="translate(677.1348654329777 285.77443456391893) rotate(0 -15.36560999088033 24.175418516742866)"><path d="M0.96 0.07 C-4.43 8.9, -24.74 42.18, -30.58 50.71 M-1.96 -2.36 C-7.7 5.86, -25.9 38.34, -31.69 46.54" stroke="#000000" stroke-width="1" fill="none"></path></g></g><g stroke-linecap="round"><g transform="translate(712.1348654329777 293.9283678543311) rotate(0 14.314909536849427 19.30444270171347)"><path d="M0.07 2.08 C5.21 8, 23.72 30.3, 28.56 36.53" stroke="#000000" stroke-width="1.5" fill="none" stroke-dasharray="8 9"></path></g></g><g stroke-linecap="round"><g transform="translate(812.6348654329777 241.71389844756186) rotate(0 28.200965712368543 18.052501258390066)"><path d="M2.08 1.55 C10.42 7.57, 42.39 31.11, 51.04 36.18 M-0.24 -0.07 C8.95 5.17, 47.78 26.64, 56.65 32.3" stroke="#000000" stroke-width="1" fill="none"></path></g></g><g stroke-linecap="round"><g transform="translate(522.8848654329777 256.7075124680996) rotate(0 56.50611721307041 -2.926918094441021)"><path d="M0.35 -0.43 C18.7 -0.35, 91.75 -0.39, 111.01 -0.66 M-2.91 -3.14 C16.18 -3.85, 96.23 -5.97, 115.92 -5.35" stroke="#000000" stroke-width="1" fill="none"></path></g><g transform="translate(522.8848654329777 256.7075124680996) rotate(0 56.50611721307041 -2.926918094441021)"><path d="M87.14 1.06 C98.02 4.57, 105.33 -2.49, 116.38 -4.17 M88.53 3.5 C96.76 1.39, 102.89 0.09, 116.64 -3.42" stroke="#000000" stroke-width="1" fill="none"></path></g><g transform="translate(522.8848654329777 256.7075124680996) rotate(0 56.50611721307041 -2.926918094441021)"><path d="M87.09 -19.46 C97.81 -9.15, 105.14 -9.4, 116.38 -4.17 M88.49 -17.02 C96.46 -13.56, 102.6 -9.28, 116.64 -3.42" stroke="#000000" stroke-width="1" fill="none"></path></g></g><g transform="translate(505.4170744419098 189.47821322083473) rotate(0 84.5 17.5)"><text x="0" y="25" font-family="Virgil, Segoe UI Emoji" font-size="28px" fill="#a61e4d" text-anchor="start" style="white-space: pre;" direction="ltr">Left rotate</text></g><g transform="translate(131.86184266209602 195.13268220424652) rotate(0 147.5 12.5)"><text x="0" y="18" font-family="Virgil, Segoe UI Emoji" font-size="20px" fill="#000000" text-anchor="start" style="white-space: pre;" direction="ltr">Inserting 3 to the below tree</text></g><g stroke-opacity="0.2" fill-opacity="0.2" transform="translate(31.861842662096024 423.6326822042465) rotate(0 93.5 12.5)"><text x="0" y="18" font-family="Virgil, Segoe UI Emoji" font-size="20px" fill="#000000" text-anchor="start" style="white-space: pre;" direction="ltr">2-3 representation</text></g><g stroke-linecap="round"><g stroke-opacity="0.6" fill-opacity="0.6" transform="translate(298.736842662096 240.75768220424652) rotate(0 1.1516809586437375 78.0040546830744)"><path d="M0.02 2.61 C0.25 28.61, 1.16 129.05, 2.29 153.39" stroke="#000000" stroke-width="1.5" fill="none" stroke-dasharray="1.5 7"></path></g></g><g transform="translate(326.8482771515846 425.3641903102398) rotate(0 123.5 30)"><text x="0" y="14" font-family="Virgil, Segoe UI Emoji" font-size="16px" fill="#a61e4d" text-anchor="start" style="white-space: pre;" direction="ltr">Property violated</text><text x="0" y="34" font-family="Virgil, Segoe UI Emoji" font-size="16px" fill="#a61e4d" text-anchor="start" style="white-space: pre;" direction="ltr"></text><text x="0" y="54" font-family="Virgil, Segoe UI Emoji" font-size="16px" fill="#a61e4d" text-anchor="start" style="white-space: pre;" direction="ltr">- Red links are not leaning left</text></g><g transform="translate(694.9732771515846 418.2391903102398) rotate(0 159 60)"><text x="0" y="14" font-family="Virgil, Segoe UI Emoji" font-size="16px" fill="#5c940d" text-anchor="start" style="white-space: pre;" direction="ltr">Property restored</text><text x="0" y="34" font-family="Virgil, Segoe UI Emoji" font-size="16px" fill="#5c940d" text-anchor="start" style="white-space: pre;" direction="ltr"></text><text x="0" y="54" font-family="Virgil, Segoe UI Emoji" font-size="16px" fill="#5c940d" text-anchor="start" style="white-space: pre;" direction="ltr">- Every path from the root to leaf has</text><text x="0" y="74" font-family="Virgil, Segoe UI Emoji" font-size="16px" fill="#5c940d" text-anchor="start" style="white-space: pre;" direction="ltr">same number of black links</text><text x="0" y="94" font-family="Virgil, Segoe UI Emoji" font-size="16px" fill="#5c940d" text-anchor="start" style="white-space: pre;" direction="ltr"></text><text x="0" y="114" font-family="Virgil, Segoe UI Emoji" font-size="16px" fill="#5c940d" text-anchor="start" style="white-space: pre;" direction="ltr">- Red links are leaning left</text></g><g stroke-linecap="round"><g stroke-opacity="0.2" fill-opacity="0.2" transform="translate(113.92541599065953 178.61040524215196) rotate(0 -2.214488090094619 32.296817213289614)"><path d="M-0.39 2.8 C-0.28 13.3, -1.17 50.61, -1.54 60.27 M-4.04 1.85 C-4.05 12.88, -3.3 52.55, -3.4 62.75" stroke="#000000" stroke-width="1" fill="none"></path></g></g><g stroke-linecap="round"><g transform="translate(453.92541599065953 159.11040524215196) rotate(0 -1.9194094052995752 31.86011709957586)"><path d="M-0.28 0.6 C-0.27 11.27, 0.23 51.63, -0.05 61.91 M-3.88 -1.55 C-4.04 9.76, -1.14 54.13, -1.1 65.27" stroke="#000000" stroke-width="1" fill="none"></path></g></g><g stroke-linecap="round"><g transform="translate(792.9254159906595 168.11040524215196) rotate(0 0.5088403372096764 18.000486916780687)"><path d="M-1.64 0.21 C-1.43 6.7, 0.8 32.16, 1.07 38.15 M2.66 -2.15 C2.45 3.61, -2.08 27.21, -1.54 34.08" stroke="#000000" stroke-width="1" fill="none"></path></g></g></svg>