<svg version="1.1" xmlns="http://www.w3.org/2000/svg" viewBox="0 0 1773.25 791.6162853617221" width="1773.25" height="791.6162853617221">
  <!-- svg-source:excalidraw -->
  
  <defs>
    <style>
      @font-face {
        font-family: "Virgil";
        src: url("https://excalidraw.com/Virgil.woff2");
      }
      @font-face {
        font-family: "Cascadia";
        src: url("https://excalidraw.com/Cascadia.woff2");
      }
    </style>
  </defs>
  <rect x="0" y="0" width="1773.25" height="791.6162853617221" fill="#ffffff"></rect><g transform="translate(542 10) rotate(0 338 22.5)"><text x="0" y="32" font-family="Virgil, Segoe UI Emoji" font-size="36px" fill="#000000" text-anchor="start" style="white-space: pre;" direction="ltr">Binary search time complexity analysis</text></g><g transform="translate(10 84) rotate(0 763.5 17.5)"><text x="0" y="25" font-family="Virgil, Segoe UI Emoji" font-size="28px" fill="#000000" text-anchor="start" style="white-space: pre;" direction="ltr">In a binary search process for every iteration of the process, the search space reduced by a factor of half</text></g><g stroke-linecap="round" transform="translate(154 186) rotate(0 551.5 15.5)"><path d="M-0.7 0.76 C308.26 -2.62, 616.78 -2.48, 1102.42 0.67 M0.19 0.08 C347.46 -2.9, 695.33 -2.57, 1103.3 0.33 M1103.93 1.32 C1104.36 9.69, 1103.24 20.66, 1102.42 31.92 M1103.03 -0.45 C1103.67 10.88, 1102.21 22.93, 1102.14 30.67 M1103.18 31.75 C710.94 29.2, 319.15 28.78, -0.32 31.67 M1103.05 30.72 C724.84 31.55, 347.28 32.03, 0.26 30.86 M0.69 32.55 C-0.49 19.8, -0.81 10.65, -1.21 -0.4 M0.96 31.56 C0.6 19.92, 0.61 9.57, -0.4 -0.43" stroke="#000000" stroke-width="1" fill="none"></path></g><g transform="translate(161 226.5) rotate(0 7 12.5)"><text x="0" y="18" font-family="Virgil, Segoe UI Emoji" font-size="20px" fill="#000000" text-anchor="start" style="white-space: pre;" direction="ltr">0</text></g><g transform="translate(1243 229) rotate(0 4.5 12.5)"><text x="0" y="18" font-family="Virgil, Segoe UI Emoji" font-size="20px" fill="#000000" text-anchor="start" style="white-space: pre;" direction="ltr">n</text></g><g stroke-linecap="round"><g transform="translate(705.4140150482756 249.00000000000006) rotate(0 -1.0447618862681338 -14.210014762356906)"><path d="M-0.23 -0.3 C-0.25 -4.92, -0.51 -23.75, -0.49 -28.12 M-1.81 -1.5 C-1.97 -5.98, -1.68 -22.65, -1.5 -27.17" stroke="#000000" stroke-width="1" fill="none"></path></g><g transform="translate(705.4140150482756 249.00000000000006) rotate(0 -1.0447618862681338 -14.210014762356906)"><path d="M2.45 -14.49 C0.42 -17.51, 1.07 -21.7, -0.72 -27.03 M3.44 -13.74 C1.56 -18.77, 0.12 -23.44, -1.82 -27.15" stroke="#000000" stroke-width="1" fill="none"></path></g><g transform="translate(705.4140150482756 249.00000000000006) rotate(0 -1.0447618862681338 -14.210014762356906)"><path d="M-6.78 -14.74 C-6.34 -17.67, -3.21 -21.8, -0.72 -27.03 M-5.79 -13.99 C-4.25 -18.86, -2.27 -23.44, -1.82 -27.15" stroke="#000000" stroke-width="1" fill="none"></path></g></g><g transform="translate(653 262) rotate(0 56.5 12.5)"><text x="0" y="18" font-family="Virgil, Segoe UI Emoji" font-size="20px" fill="#000000" text-anchor="start" style="white-space: pre;" direction="ltr">middle index</text></g><g stroke-linecap="round" transform="translate(707 185) rotate(0 274 15.5)"><path d="M0 0 C0 0, 0 0, 0 0 M0 0 C0 0, 0 0, 0 0 M-0.78 6.27 C0.48 4.89, 2.62 3.79, 4.27 0.93 M-0.26 6.04 C1.66 4.16, 3.37 2.31, 4.65 0.58 M-1.1 11.74 C3.05 9.17, 8.04 3.78, 10.71 0.74 M0.81 12.65 C3.15 7.33, 7.22 5.01, 10.49 -0.75 M-2.06 19.92 C4.81 13.74, 6.22 9.94, 14.6 -0.9 M0.01 18.18 C5.97 11.84, 12.22 3.89, 14.91 1.09 M0.45 25.08 C5.34 16.19, 14.97 9.09, 21.84 -0.79 M0.29 24.96 C8.49 14.84, 16.79 5.84, 20.49 -0.39 M-0.77 29.17 C4.34 22.95, 13.31 19, 24.98 0.63 M-0.04 30.66 C9.96 18.63, 20.41 8.77, 26.17 -0.29 M4.21 34.11 C6.96 25.93, 16.43 17.42, 33.04 0.37 M3.29 33.88 C13.04 20.8, 23.76 10.35, 32.79 -0.33 M9.48 32.99 C16.83 23.8, 29.11 9.1, 38.14 0.29 M8.75 33.28 C15.35 24.81, 23.88 15.36, 37.35 0.97 M14.31 33.24 C21.37 23.48, 33.35 10.07, 42.52 0.22 M13.93 33.41 C19.27 25.92, 26.5 18.17, 42.93 -0.88 M17.01 31.8 C29.69 21.35, 37.85 10.15, 49.16 1.22 M18.03 33.65 C26.48 23.98, 36.55 14.27, 46.97 -0.35 M25.34 33.29 C35.07 20.95, 43.39 9.88, 52.78 -1.27 M24.18 33.09 C31.42 23.64, 37.85 15.99, 53.12 -1.05 M29.06 35.25 C35.03 27.04, 39.79 17.93, 58.43 1.77 M28.69 33.47 C40.87 20.64, 51.28 8.24, 57.64 0.22 M32.38 32.01 C42.71 22.02, 54.46 11.46, 64.56 -1.88 M33.31 33.81 C40.83 25.24, 48.02 16.84, 63.16 0.32 M41.76 32.19 C47.82 23.72, 54.56 14.24, 69.58 1.53 M39.83 33.57 C47.16 24.95, 53.33 17.76, 69.09 -0.24 M43.78 34.09 C55.41 19.67, 68.19 5.77, 74.9 0.84 M45.68 32.84 C54.3 23.16, 65.24 10.77, 73.45 -0.48 M51.53 31.66 C59.3 23.24, 66.92 15.14, 79.55 -0.72 M51.18 33.93 C61.22 20.75, 71.18 9.5, 79.18 1.01 M55.18 33.69 C63.55 24.38, 71.12 17.01, 83.14 -0.47 M55.8 33.36 C63.31 22.78, 73.54 13.13, 86.03 -1.04 M61.06 32.96 C73.98 22.25, 81.81 8.86, 88.55 -0.97 M62.08 32.67 C67.3 26.27, 72.87 20.04, 90.86 -0.67 M66.18 33.46 C71.41 24.7, 79.02 17.63, 96.88 -0.93 M65.92 34.42 C76.7 22.38, 85.38 11.47, 95.51 0.22 M73.33 31.57 C81.33 24.16, 89.95 11.59, 102.08 0.03 M72.47 33.04 C82.45 21.3, 92.77 8.74, 101.17 -0.25 M77.64 35.26 C86.49 22.33, 95.89 13.79, 105.99 -1.45 M76.43 32.73 C83.43 25.12, 89.93 17.12, 106.16 -0.99 M81.61 33.22 C94.51 21.95, 102.43 9.85, 112.92 -1.28 M81.91 32.43 C92.77 19.73, 105.46 6.61, 110.3 -0.08 M85.71 34.15 C95.11 20.38, 106.19 11.61, 116 2.03 M86.79 33.63 C93.14 27.38, 100.15 19.96, 116.14 0.92 M91.44 31.84 C102.97 23.92, 111.51 10.67, 123.11 -1.22 M92.55 33.38 C100.74 23.89, 108.33 14.83, 122.53 -0.88 M99.84 32.44 C108.68 22.59, 116.86 12.01, 128.66 1.54 M98.61 34.1 C107.9 22.64, 116.25 12.64, 127.25 -0.56 M102.63 31.58 C112.3 24.66, 118.67 13.42, 134.01 1.08 M104.18 32.56 C110.96 23.94, 118.47 17.51, 133.24 -0.71 M108.72 33.63 C114.39 25.93, 123.95 16.18, 136.04 -0.43 M108.59 33.76 C119.97 21.88, 129.92 9.14, 137.89 -0.54 M115.29 32.82 C121.73 21.59, 129.22 13.56, 144.22 1.73 M115.17 33.81 C121.95 25.95, 128.27 18.96, 143.94 0.02 M118.35 32.47 C127.07 24.71, 137.82 14.73, 149.16 0.09 M119.54 33.88 C126.34 23.46, 134.12 16.01, 148.75 1.25 M123.81 34.15 C135.72 20.84, 143.27 10.6, 155.66 -1.93 M125.51 33.07 C131.3 25.9, 136.95 19.13, 153.22 -0.49 M130.02 32.89 C135.1 24.3, 144.76 16.9, 159.3 -0.71 M129.37 34.35 C135.92 26.06, 142.7 17.51, 159.1 0.21 M134.86 34.37 C145.27 24.86, 151.87 12.26, 163.49 -1.36 M135.8 33.44 C142.7 24.64, 148.76 17.88, 163.82 -0.38 M142.28 34.08 C149.42 24.93, 157.87 16.55, 168.04 -0.44 M140.13 32.73 C147.33 25.99, 152.04 20.23, 169.85 -0.11 M144.72 35.27 C150.33 25.87, 156.27 17.92, 174.2 1.19 M145.6 32.92 C156.51 19.71, 168.66 7.15, 175.55 -1.14 M152.96 32.41 C157.18 26.47, 164.83 18.68, 181.23 -0.45 M150.94 33.19 C158.67 25.98, 165.23 17.16, 180.5 1 M155.93 32.59 C165.37 26.17, 170.05 14.77, 187.51 -1.28 M157.04 34.37 C164.35 24.43, 171.58 16.62, 186.35 -0.65 M161.18 31.49 C172.08 25.38, 180.14 14.62, 191.01 0.07 M161.06 33.56 C170.2 23.5, 178.08 14.11, 190.17 0.37 M167.36 34.56 C174.72 23.13, 180.72 14.63, 194.46 1.41 M165.88 33.08 C174.37 24.01, 184.95 13.81, 197.27 -0.13 M173.35 32.16 C180.71 24.04, 189.55 13.19, 201.8 -1.8 M172.85 32.32 C179.18 24.43, 186.91 17.98, 200.58 -0.04 M178.79 32.84 C186.05 24.33, 195.13 14.24, 207.35 -1.3 M177.18 32.7 C189.01 21.98, 199.52 10.1, 207.46 -1.15 M181.15 34.45 C195.08 23.47, 202.74 10.18, 212.29 1.21 M182.77 33.56 C191.94 23.6, 199.18 15.33, 211.07 -0.11 M188.3 33.36 C196.22 26.24, 202.71 14.61, 217.77 1.22 M187.57 33.04 C195.91 26, 203.21 17.45, 217.19 -0.65 M195.55 31.63 C200.56 22.84, 206.84 16.48, 221.46 0.61 M194.4 34.03 C204.04 21.45, 213.3 9.67, 221.59 -0.58 M198.23 34.22 C209.64 21.28, 220.65 7.15, 226.59 -1.18 M198.32 33.04 C208.56 21.84, 218.44 10.56, 228.84 0.06 M204.77 32.17 C213.05 23.06, 219.84 14.39, 234.57 -1.9 M203.43 34.12 C210.54 26.06, 217.75 18.17, 233.68 -0.06 M209.23 31.78 C218.52 23.41, 227.29 10.09, 237.31 -0.66 M210.28 33.78 C221.08 19.51, 232.2 7.45, 237.22 1.08 M216.37 33.79 C225.98 21.23, 235.6 9.99, 245.16 -0.38 M214.65 32.87 C222.85 25.72, 230.14 17, 243.51 0 M218.21 34.6 C225.96 24.06, 234.72 17.91, 248.67 -0.43 M220.93 33.49 C229.73 23.55, 237.31 11.98, 249.24 -0.11 M227.13 33.4 C234.5 24.3, 242.39 14.22, 253.06 1.33 M224.96 32.93 C234.97 24.49, 241.7 13.35, 254.85 0.26 M232.37 33.44 C236.58 24.02, 242.97 16.07, 260.73 -0.24 M231.37 32.53 C240.87 22.36, 251.5 9.76, 258.95 0.86 M237.15 33.13 C247.69 18.61, 259.91 6.38, 266.36 -0.41 M236.39 33.62 C246.41 23.35, 254.4 11.43, 266.09 0.54 M243.19 35.31 C249.29 25.01, 253.3 21.31, 271.47 -1.35 M241.27 34.4 C251.68 21.08, 262.89 9.25, 269.16 1.25 M247.79 34.35 C252.56 25.78, 259.4 18.61, 275.47 1.01 M247.05 33.88 C257.24 21.42, 269.12 6.91, 275.21 0.81 M252.42 33.43 C258.53 26.48, 263.56 18.07, 282.19 0.2 M251.95 32.76 C261.69 23.66, 269.77 11.39, 279.79 0.96 M255.72 31.64 C265.42 22.85, 276.17 15.55, 287.03 0.38 M258.19 33.32 C266.13 22.29, 275.05 13.34, 286.81 0.16 M262.11 33.23 C272.54 21.93, 277.84 12.76, 291.43 -0.43 M263.32 34.38 C267.93 27.2, 274.79 19.3, 290.87 -0.45 M266.2 35.53 C278.03 24.4, 286.83 12.71, 298 -1.25 M266.47 33.91 C278.8 22.33, 288.53 8.78, 297.11 -0.17 M272.59 34.36 C278.17 25.56, 284.4 19.85, 301.04 1.15 M272.9 34.2 C282.21 22.95, 291 11.36, 301.55 -0.8 M277.76 35.53 C282.99 26.64, 291.83 19.63, 309.61 1.35 M277.68 34.03 C283.17 26.07, 289.46 19.07, 306.92 0.2 M284.45 32.7 C292.78 24.55, 299.73 14.74, 314.13 0.54 M282.83 34.28 C295.2 19.21, 305.84 7.93, 313.06 -0.28 M288.23 34.63 C300.39 21.29, 312.28 6.05, 317.37 -0.35 M289.71 33.93 C299.33 22.02, 308.45 11.54, 318.68 -0.2 M292.58 34.34 C307.21 20.86, 317.59 5.58, 325.1 -1.42 M294.83 32.84 C301.24 25.14, 308.27 17.93, 323.76 -0.41 M299.41 32.29 C312.21 22.28, 321.26 9.58, 329.07 1.34 M300.23 33.77 C306.65 25.99, 313.08 17.72, 329.41 0.27 M304.15 33.58 C311.7 24.55, 317.77 19.22, 333.64 -0.7 M305.27 33.21 C314.14 23.62, 322.91 13.14, 334.14 0.92 M310.33 35.16 C320.56 21.54, 330.47 8.42, 338.78 0.32 M309.03 33.34 C316.06 24.72, 324.55 18.23, 339.77 -0.57 M316.61 34.97 C321.95 25.22, 327.98 20.08, 342.7 -0.02 M316.1 32.89 C326.32 22.38, 335.71 10.46, 343.75 0.45 M319.35 35.15 C331.15 24.36, 338.95 11.51, 348.2 -0.53 M320.99 33.08 C326.89 26.3, 333.91 19.53, 350.35 0.98 M327.68 31.23 C333.3 22.61, 344.41 12, 356.54 1.08 M325.9 32.51 C334.8 21.63, 343.86 11.63, 354.29 0.57 M330.07 35.34 C339.42 26.29, 344.93 16.15, 359.28 1.62 M331.12 33.07 C342.69 20.82, 353.06 8.21, 359.35 0.48 M337.37 33.35 C345.69 25.21, 349.39 14.84, 366.68 0.32 M336.83 32.84 C346.27 22.38, 356.05 10.95, 366.56 0.3 M341.4 32.08 C352.28 20.52, 365.05 5.82, 372.28 0.09 M341.51 34.02 C348.93 24.15, 357.53 15.77, 371.56 0.91 M345.99 32.5 C357.54 22.44, 365.5 9.41, 377.93 -1.38 M347.7 33.79 C355.15 24.58, 363.83 15.3, 375.45 0.33 M353.53 32.91 C363.91 22.35, 370.9 12.7, 382.4 1.65 M352.4 34.29 C359.58 25.81, 364.95 17.99, 382.09 0.65 M360.09 34.1 C367 25.76, 373.04 15.13, 386.38 -1.9 M358.89 33.42 C367.98 21.19, 378.43 9.66, 386.98 -0.05 M361.91 34.58 C372.23 21.48, 381 13.74, 393.1 1.3 M363.1 32.87 C370.11 25.58, 376.33 18.93, 392.62 1.19 M370.53 31.75 C374.05 23.57, 383.88 16.4, 397.39 0.13 M369.41 32.91 C375.48 26.23, 382.83 17.01, 397.29 0.11 M375.3 33.09 C383.06 21.86, 392.75 9.78, 402.17 0.26 M373.05 34.4 C381.89 24.26, 390.97 12.98, 402.45 0.18 M377.8 34.07 C386.1 25.58, 391.03 18.02, 407.61 -0.72 M379.23 34.36 C390.09 19.59, 402.89 7.07, 407.59 0.42 M385.71 33.62 C393.56 20.42, 402.99 11.55, 411.63 -0.04 M384.8 34.16 C391.57 24.84, 397.12 18.08, 413.51 0.4 M388.62 35.59 C403.1 18.47, 413.88 7.48, 418.98 1.35 M388.87 34.72 C396.14 25.72, 403.76 17.99, 419.23 0.1 M394.45 32.61 C404.98 23.03, 411.2 11.08, 425.81 0.06 M395 33.08 C403.93 24.58, 411.06 14.55, 423.31 0.8 M398.03 35.36 C406.82 23.97, 415.67 15.85, 428.72 1.35 M400.53 33.38 C405.69 27.69, 412.01 19.85, 428.67 -0.99 M406.12 31.68 C415 21.92, 427.14 9.05, 433.32 0.42 M405.42 32.71 C413.24 25.88, 418.48 17.81, 433.98 -0.58 M410.01 31.86 C418.85 23.98, 425.23 16.58, 439.31 1.52 M411.64 34.07 C422.96 20.47, 433.39 7.34, 440.46 0.69 M414.57 31.7 C427.2 22.4, 437.48 8.83, 445.03 -0.85 M415.93 34.24 C427.92 21.14, 439.07 7.35, 445.26 0.48 M422.82 33.82 C426.75 25.67, 434.94 17.42, 452.53 1.29 M421.25 32.71 C427.01 26.57, 432.69 19.54, 450.28 -0.73 M424.97 34.75 C437.39 18.61, 448.72 6.29, 456.12 -1.45 M427.52 33.53 C438.07 21.38, 448.43 7.93, 455.51 -0.67 M431.01 34.17 C439.67 22.99, 450.96 11.34, 459.44 -0.65 M431.03 34.31 C439.11 25.19, 445.28 16.47, 461.91 0.56 M435.75 34.11 C447.9 22.39, 460.92 8.59, 468.03 -0.85 M437.27 34.05 C446.62 23.04, 454.83 11.81, 466.69 -0.54 M443.39 32.07 C453.12 19.63, 465.08 7.52, 469.72 0.34 M442.25 34.08 C449.35 26.08, 455.52 18.46, 471.57 -0.26 M448.61 32.29 C454.18 23.3, 461.11 14.96, 478.5 1.69 M447.39 33.93 C454.87 24.13, 464.35 15.5, 477.36 -0.51 M453.08 34.89 C459.76 23.82, 465.37 15.98, 480.31 1.84 M452.8 34.31 C462.13 22.98, 471.23 12.81, 481.58 -0.62 M458.55 35.04 C467.56 22.41, 476.49 13.76, 487.52 1.15 M458.18 32.92 C469.35 19.92, 480.72 8.16, 487.7 0.21 M463.45 32.21 C471.47 28.34, 477.2 19.47, 493.44 0.96 M464.16 33.47 C474.22 21.39, 484.33 10.14, 493.4 0.94 M467.86 33.3 C480.49 21.3, 487.96 12.14, 499.4 0.71 M469.08 33.44 C478.79 22.85, 487.71 12.09, 498.5 -0.49 M474.17 33.86 C484.39 22.35, 493.12 15.47, 501.31 1.22 M474.43 33.15 C486.42 20.83, 497.62 7.33, 503.24 0.8 M480.08 33.24 C485.5 27.07, 495.01 19.1, 508.71 1.77 M479.61 33.53 C488 24.16, 497.14 14.46, 508.16 -0.54 M483.19 31.85 C492.6 24.36, 505.15 14.1, 515.37 -0.61 M485.33 33.1 C491.05 24.97, 497.66 18.36, 514.42 -0.07 M490.05 34.25 C503.14 20.48, 514.59 6.28, 518.3 -2.05 M490.41 33.86 C500.87 20.97, 513.3 7.06, 519.68 -0.76 M496.74 34.44 C505.58 19.29, 516.67 6.55, 524.36 -0.55 M495.17 34.2 C502.55 24.63, 511.36 15.5, 524.39 0.99 M501.24 35.69 C512.09 19.76, 523.67 8.07, 529.3 1.1 M501.57 33.53 C506.69 26.17, 513.11 18.54, 529.68 0.2 M507.33 32.09 C515.62 24.04, 521.65 13.91, 536.32 -1.39 M505.88 33.47 C517.08 19.68, 529.79 7.71, 535.68 -0.75 M510.36 31.88 C520.7 20.71, 535.34 7.69, 539.14 -0.72 M512.26 33.99 C520.94 22.33, 529.61 11.15, 541.39 -1.21 M515.74 31.48 C523.51 23.86, 528.33 17.65, 544.55 1.28 M516 33.06 C527.82 21.21, 536.23 10.8, 544.96 -0.37 M521.44 34.62 C532.8 22.78, 541.45 9.26, 550.19 0.27 M521.8 34.59 C531.31 23.54, 539.37 13.45, 550.32 1.15 M529.07 33.53 C533.47 24.08, 540.02 16.79, 551.08 8.65 M527.68 33.29 C536.07 23.19, 544.91 14.8, 549.43 7.23 M534.44 32.16 C537.62 26.57, 546.05 19.86, 549.92 12.38 M533.26 34.59 C536.65 29.12, 540.19 25.69, 549.4 14.84 M538.6 31.54 C539.8 28.99, 544.07 27.66, 548.57 18.66 M537.72 33.55 C542.06 29.58, 544.95 24.87, 549.63 20.18 M542.9 32.8 C545.55 31.28, 545.59 30, 550.41 25.16 M543.51 33.24 C544.53 32.46, 545.79 30.23, 549.96 25.87" stroke="#ced4da" stroke-width="0.5" fill="none"></path><path d="M0.15 -0.79 C205.01 -0.2, 410.65 0.09, 547.78 -0.44 M0.06 -0.3 C154.52 1.86, 308.23 1.3, 547.79 -0.01 M547.62 0.76 C549.08 11.15, 548.13 23.56, 546.74 32.77 M547.66 0.28 C548.66 12.44, 548.08 24.62, 548.39 31.02 M548.22 31.25 C428.68 29.64, 310.03 29.3, 0.02 30.6 M548.14 30.88 C405.63 29.82, 263.53 29.75, 0.21 31.31 M-1.86 32.37 C1.79 26.35, 1.25 16.1, 1.87 1.58 M0.87 30.99 C0.54 21.46, 0.16 12.41, 0.26 0.27" stroke="#000000" stroke-width="1" fill="none"></path></g><g stroke-linecap="round" transform="translate(714 354.6502192020416) rotate(0 274 15.5)"><path d="M0.56 -0.75 C207.42 1.46, 414.53 1.25, 547.34 0.75 M-0.06 0.35 C207.7 -1, 415.16 -1.15, 547.71 0.11 M547.5 -1.88 C547.44 9.89, 549.05 18.76, 549.53 30.8 M548.53 0.13 C548.3 8.42, 548.17 19.51, 547.44 31.71 M547.68 30.48 C365.05 32.52, 182.21 33.45, 0.14 30.28 M547.77 31 C344.26 30.54, 140.87 30.59, -0.31 30.67 M0.56 29.46 C-0.51 19.06, 1.5 9.78, 0.09 0.11 M0.34 31.85 C0.7 19.7, -1.05 9.76, 0.98 -0.18" stroke="#000000" stroke-width="1" fill="none"></path></g><g stroke-linecap="round"><g stroke-opacity="0.5" fill-opacity="0.5" transform="translate(966 225) rotate(0 0.04491754628725175 47.55011128969491)"><path d="M0.28 -1.04 C0.36 14.96, 1.11 79.99, 1.12 96.14 M-1.03 1.03 C-1.15 16.71, 0.2 79.13, 0.23 94.61" stroke="#000000" stroke-width="1" fill="none"></path></g><g stroke-opacity="0.5" fill-opacity="0.5" transform="translate(966 225) rotate(0 0.04491754628725175 47.55011128969491)"><path d="M-12.12 66.76 C-4.71 75.31, -1.44 87.01, -1.19 96.37 M-10.9 66.37 C-7.15 74.04, -5.94 81.88, 0.38 94.29" stroke="#000000" stroke-width="1" fill="none"></path></g><g stroke-opacity="0.5" fill-opacity="0.5" transform="translate(966 225) rotate(0 0.04491754628725175 47.55011128969491)"><path d="M8.4 66.49 C8.57 75.18, 4.59 86.98, -1.19 96.37 M9.62 66.11 C8.03 73.81, 3.9 81.72, 0.38 94.29" stroke="#000000" stroke-width="1" fill="none"></path></g></g><g transform="translate(723 192) rotate(0 66 10)"><text x="0" y="14" font-family="Virgil, Segoe UI Emoji" font-size="16px" fill="#000000" text-anchor="start" style="white-space: pre;" direction="ltr">......... 56  ...........</text></g><g transform="translate(883 138) rotate(0 86.5 10)"><text x="0" y="14" font-family="Virgil, Segoe UI Emoji" font-size="16px" fill="#000000" text-anchor="start" style="white-space: pre;" direction="ltr">element to search for</text></g><g stroke-linecap="round"><g stroke-opacity="0.7" fill-opacity="0.7" transform="translate(877 148) rotate(0 -47.887317159512634 20.082029190853234)"><path d="M-0.29 -0.39 C-14.83 -0.47, -72.11 -9.02, -87.79 -1.62 C-103.48 5.78, -93.31 36.37, -94.4 44 M1.76 -1.64 C-12.87 -1.47, -72.53 -8.15, -88.63 -0.41 C-104.73 7.33, -94 37.25, -94.85 44.8" stroke="#000000" stroke-width="1" fill="none"></path></g><g stroke-opacity="0.7" fill-opacity="0.7" transform="translate(877 148) rotate(0 -47.887317159512634 20.082029190853234)"><path d="M-105.88 24.32 C-103.83 30.27, -101.83 35.66, -96.21 45.81 M-104.48 24.86 C-103.37 30.31, -98.98 35.46, -95.24 44.07" stroke="#000000" stroke-width="1" fill="none"></path></g><g stroke-opacity="0.7" fill-opacity="0.7" transform="translate(877 148) rotate(0 -47.887317159512634 20.082029190853234)"><path d="M-90.07 22.52 C-92.05 28.89, -94.05 34.73, -96.21 45.81 M-88.67 23.07 C-91.85 28.94, -91.74 34.57, -95.24 44.07" stroke="#000000" stroke-width="1" fill="none"></path></g></g><g stroke-linecap="round"><g transform="translate(970.9140150482756 418.6502192020416) rotate(0 0.4867851888388941 -14.123735340759197)"><path d="M-0.49 0 C-0.37 -4.53, 0.65 -22.02, 0.57 -26.43 M1.46 -1.04 C1.52 -5.99, 0.7 -23.67, 0.11 -28.25" stroke="#000000" stroke-width="1" fill="none"></path></g><g transform="translate(970.9140150482756 418.6502192020416) rotate(0 0.4867851888388941 -14.123735340759197)"><path d="M5.73 -14.91 C4.69 -20.19, 3.03 -21.96, -0.76 -26.95 M5.19 -16.49 C3.35 -20.49, 1.16 -26.3, 0.05 -28.04" stroke="#000000" stroke-width="1" fill="none"></path></g><g transform="translate(970.9140150482756 418.6502192020416) rotate(0 0.4867851888388941 -14.123735340759197)"><path d="M-3.47 -14.17 C-1.88 -19.62, -0.88 -21.61, -0.76 -26.95 M-4.01 -15.75 C-2.25 -20, -0.82 -26.1, 0.05 -28.04" stroke="#000000" stroke-width="1" fill="none"></path></g></g><g transform="translate(918.5 431.6502192020416) rotate(0 56.5 12.5)"><text x="0" y="18" font-family="Virgil, Segoe UI Emoji" font-size="20px" fill="#000000" text-anchor="start" style="white-space: pre;" direction="ltr">middle index</text></g><g transform="translate(1542.25 134.40021920204163) rotate(0 110.5 25)"><text x="0" y="18" font-family="Virgil, Segoe UI Emoji" font-size="20px" fill="#000000" text-anchor="start" style="white-space: pre;" direction="ltr">Search Space </text><text x="0" y="43" font-family="Virgil, Segoe UI Emoji" font-size="20px" fill="#000000" text-anchor="start" style="white-space: pre;" direction="ltr">( number of elements )</text></g><g stroke-linecap="round"><g stroke-opacity="0.4" fill-opacity="0.4" transform="translate(1269 203.15021920204163) rotate(0 116.15804560879258 0.15540306902491352)"><path d="M0.71 0.18 C39.19 0.48, 192.11 0.98, 230.33 1.09 M-0.38 -0.78 C38.55 -0.73, 193.89 -0.4, 232.7 -0.46" stroke="#000000" stroke-width="1" fill="none"></path></g><g stroke-opacity="0.4" fill-opacity="0.4" transform="translate(1269 203.15021920204163) rotate(0 116.15804560879258 0.15540306902491352)"><path d="M204.79 8.67 C213.49 5.47, 220.12 2.53, 232.94 0.14 M205.27 9.42 C213.54 7.32, 222.17 3.32, 232.21 -0.94" stroke="#000000" stroke-width="1" fill="none"></path></g><g stroke-opacity="0.4" fill-opacity="0.4" transform="translate(1269 203.15021920204163) rotate(0 116.15804560879258 0.15540306902491352)"><path d="M204.8 -11.85 C213.38 -9.87, 220 -7.63, 232.94 0.14 M205.28 -11.1 C213.53 -7.11, 222.16 -5.01, 232.21 -0.94" stroke="#000000" stroke-width="1" fill="none"></path></g></g><g transform="translate(1546 189.15021920204163) rotate(0 63.5 12.5)"><text x="0" y="18" font-family="Virgil, Segoe UI Emoji" font-size="20px" fill="#000000" text-anchor="start" style="white-space: pre;" direction="ltr">N = N / 2^0</text></g><g stroke-linecap="round"><g transform="translate(1524 147.40021920204163) rotate(0 1.340115640684985 316.7970915038139)"><path d="M-0.6 -0.62 C0.06 105.13, 2.67 528.37, 3.28 634.22" stroke="#000000" stroke-width="1.5" fill="none" stroke-dasharray="1.5 7"></path></g></g><g stroke-linecap="round"><g stroke-opacity="0.4" fill-opacity="0.4" transform="translate(1270.5 368.6502192020416) rotate(0 115.41761714033782 0.3938070548326209)"><path d="M-0.67 0.35 C38.09 0.3, 192.92 -0.23, 231.51 -0.15 M1.18 -0.52 C39.91 -0.39, 192.69 1.4, 230.83 1.31" stroke="#000000" stroke-width="1" fill="none"></path></g><g stroke-opacity="0.4" fill-opacity="0.4" transform="translate(1270.5 368.6502192020416) rotate(0 115.41761714033782 0.3938070548326209)"><path d="M203.15 12.26 C208.33 9.18, 215.99 8.85, 231.64 0.39 M201.97 12.34 C210.76 8.21, 218.2 6.36, 230.54 1.72" stroke="#000000" stroke-width="1" fill="none"></path></g><g stroke-opacity="0.4" fill-opacity="0.4" transform="translate(1270.5 368.6502192020416) rotate(0 115.41761714033782 0.3938070548326209)"><path d="M203.27 -8.27 C208.44 -6.97, 216.08 -2.93, 231.64 0.39 M202.08 -8.18 C210.67 -6.58, 218.07 -2.71, 230.54 1.72" stroke="#000000" stroke-width="1" fill="none"></path></g></g><g transform="translate(1547.5 354.6502192020416) rotate(0 76.5 12.5)"><text x="0" y="18" font-family="Virgil, Segoe UI Emoji" font-size="20px" fill="#000000" text-anchor="start" style="white-space: pre;" direction="ltr">N/2 = N / 2^ 1</text></g><g stroke-linecap="round" transform="translate(716 355.1502192020416) rotate(0 127.5 14)"><path d="M0 0 C0 0, 0 0, 0 0 M0 0 C0 0, 0 0, 0 0 M0.1 6.67 C0.85 5.62, 2.16 3.68, 4.92 0.99 M-0.24 6.27 C0.63 5.07, 2.49 3.95, 5.38 0.21 M-0.62 11.03 C4.17 7.62, 6.56 1.96, 12.05 1.13 M0.54 11.62 C4.19 8.1, 7.03 2.93, 10.76 0.52 M0.12 18.52 C4.08 12.27, 13.74 4.13, 16.62 -0.46 M-0.6 18.94 C4.35 13.96, 8.46 8.55, 16.46 0.21 M-0.59 22.17 C5.94 15.46, 12.89 7.48, 23.07 -1.75 M1.26 24.88 C5.65 17.18, 13.84 8.82, 21.57 -0.82 M-0.07 29.87 C6.94 20.98, 13.93 15.47, 25.63 1.6 M2.08 29.18 C9.53 19.97, 16.69 11.17, 27.21 0.25 M7.21 28.54 C13.74 21.11, 17.08 16.43, 32.84 -0.47 M5.87 29.3 C15.73 19.64, 24.55 9.59, 32.13 0.82 M12.81 29.09 C20.58 19.92, 26.37 11.18, 37.93 1.68 M12.88 28.18 C19.49 20.45, 29.23 10.57, 36.43 0.63 M18 28.32 C25.68 18.8, 33.23 12.31, 41.16 1.2 M17.03 30.12 C26.3 17.46, 37.41 7.04, 42.64 0.29 M23.64 30.07 C29.31 20.13, 39.81 9.02, 47.84 0.6 M22.46 28.53 C28.54 22.43, 35.45 15.26, 47.46 0.97 M28.11 31.01 C37.54 18.92, 45.33 9.2, 54.7 -0.5 M27.2 29.6 C35.32 18.98, 45.1 9.26, 52.88 -1.09 M33.73 28.43 C36.25 22.15, 45.18 17.82, 59.88 0.49 M32.31 28.85 C39.81 20.94, 45.53 14.72, 57.81 1.04 M36.71 30.1 C46.72 20.02, 54.63 9.31, 65.35 0.92 M37.56 28.78 C47.34 18.38, 56.99 7.14, 63.29 -0.4 M45.58 30.04 C51.18 19.3, 60.33 12.51, 66.82 -1.26 M44.55 29.39 C50.35 22.1, 56.67 13.68, 68.09 -0.31 M47.16 30.37 C53.63 25, 60.04 16.31, 76.21 0.27 M48.41 29.83 C60.28 17.78, 69.33 5.47, 73.94 -0.1 M52.94 29.08 C62.09 19.68, 73.27 9.51, 79.6 2.05 M54.93 28.99 C62.92 19.95, 71.25 10.77, 79.09 -0.11 M61.06 29.88 C70.42 18.55, 78.51 7.95, 83.62 -1.38 M60.22 29.05 C67.19 19.27, 75.88 10.23, 85.55 -1.04 M66.74 29.99 C71.92 22.62, 77.29 13.34, 89.42 0.37 M65.87 28.12 C73.45 19.4, 82.88 9.9, 90.71 -0.29 M68.21 29.96 C80.94 17.28, 88.86 6.55, 95.11 1.32 M70.6 29.81 C77.03 20.61, 85.16 11.4, 96.48 0.54 M77.16 29.49 C81.65 21.08, 88.52 16.11, 101.67 0.95 M75.41 27.84 C86.15 17.78, 94.95 7.32, 101 -0.66 M80.65 29.23 C89.38 19.57, 96.58 8.49, 107.44 0.01 M81.27 29.62 C85.05 22.87, 90.1 17.23, 105.73 0 M87.59 30.6 C91.09 20.45, 97.33 16.45, 110 -1.68 M86.23 28.84 C90.59 22.51, 97.25 17.59, 111.15 0.07 M90.63 29.6 C102.01 18.55, 108.74 8.45, 115.96 -0.65 M91.11 29.08 C99.3 21.14, 106.26 10.66, 117.27 0.07 M95.97 29.37 C104.53 18.21, 115.61 6.79, 122.22 0.27 M96 29.15 C105.09 19.77, 111.02 12.5, 122.51 -0.68 M100.6 30.25 C107.67 24.08, 112.58 18.47, 127.16 0.04 M101.16 28.92 C106.61 23.26, 112.51 17.37, 127.7 0.83 M107.46 29.86 C114.97 22.69, 117.57 15.15, 134.41 1.91 M107 30.17 C111.38 22.51, 116.31 16.73, 133.54 -0.41 M113.26 29.64 C119.18 22.12, 125.26 13.67, 136.81 1.31 M113.57 28.95 C120.15 20.14, 127.43 11.75, 137.28 1.22 M116.42 30.68 C124.62 22.19, 135.44 9.09, 144.84 -0.41 M117.18 30.15 C123.02 21.78, 130.29 14.87, 142.86 -0.49 M121.5 27.51 C133.88 19.67, 141.85 7.14, 146.55 -0.09 M122.63 29.12 C129.79 20.02, 138.76 11.62, 147.57 1.06 M127.13 27.96 C136.01 18.89, 146.56 8.38, 152.01 0.98 M127.79 30.22 C134.91 23.71, 139.04 17.1, 154.22 0.82 M134.46 30.89 C142.51 18.34, 148.42 9.52, 157.23 0.9 M133.8 28.46 C142.66 19.8, 149.28 10.17, 159.77 0.75 M139.07 30.11 C145.86 18.91, 155.42 10.45, 164.63 -1 M139.72 30.09 C144.27 21.42, 151.7 14.46, 163.52 -0.65 M143.47 28.09 C153.47 20.08, 159.75 10.58, 170.94 -0.4 M144.66 28.14 C150.44 22.88, 154.56 17.91, 169.72 0.31 M148.94 27.85 C159.76 19.78, 168.81 6.75, 175.65 -2.14 M148.49 29.1 C157.79 19.42, 166.79 8, 175.79 0.05 M156.09 30.7 C163.56 22.19, 167.65 12.13, 180.96 -0.4 M155.94 28.43 C164.79 18.6, 174.92 6.21, 180.91 0.38 M160.66 28.14 C171.26 17.71, 180.22 8.93, 184.21 -0.94 M159.28 29.2 C165.93 21.88, 174.02 13.93, 186.22 0 M166.1 27.58 C173.25 17.31, 184.72 9.53, 189.81 -1.21 M166.48 29.68 C171.37 23.23, 177.02 15.18, 191.45 -0.81 M171.37 28.25 C177 21.34, 183.67 11.67, 197.69 -0.62 M169.88 29.94 C176.51 22.21, 181.75 16.64, 197.11 -0.65 M175.5 26.89 C184.02 19.41, 189.14 12.18, 203.23 -0.65 M176.31 29.39 C184.51 19.78, 191.85 11.37, 201.11 -0.39 M181.42 29.71 C186.24 19.6, 193.63 13.57, 205.68 0.88 M181.77 29.48 C191.72 18.04, 201.17 6.43, 206.93 0.39 M188.5 30.06 C192.86 23.05, 196.71 14.59, 212.15 1.71 M187.57 29.15 C193.54 21.97, 198.77 14.08, 212.29 0.08 M192.4 28.36 C201 17.86, 210.75 8.26, 217.99 0.88 M191.01 29.59 C198.95 21.62, 205.32 14.4, 217.28 0.51 M197.54 29.8 C204.85 19.18, 213.9 8.84, 222.76 -1.39 M197.54 29.67 C207.17 17.43, 217.26 5.49, 223.04 -0.32 M201.08 28.29 C212.48 17.54, 222.5 4.83, 226.65 -1.98 M203.36 28.66 C211.27 18.09, 222.08 6.94, 227.9 -0.79 M208.62 28.87 C215.16 22.58, 218.6 15.9, 234.43 1.05 M206.99 28.5 C216.55 20.3, 223.73 10.29, 234.04 -0.92 M213.49 27.89 C224.44 19.41, 231.2 8.71, 239.24 -1.06 M213.17 28.67 C219.37 22.14, 225.16 14.18, 239.01 -0.15 M217.93 31.02 C226.24 23.71, 230.08 15.11, 245.78 0.33 M217.8 30.05 C223.51 21.65, 231.34 15.91, 243.62 -0.43 M222.87 29.82 C230.59 20.45, 236.66 14.15, 247.56 1.33 M224.46 28.23 C232.37 20.21, 239.24 11.67, 248.94 -0.37 M229.89 27.57 C236.45 20.08, 241 13.71, 252.64 -1.97 M228.04 29.13 C235.93 20.68, 243.4 13.97, 254.74 0.06 M235.65 27.04 C238.86 22.82, 246.03 14.88, 255.65 2.65 M233.89 29.55 C239.85 24.2, 243.34 17.53, 257.23 3.41 M237.82 28.36 C245.68 23.31, 247.38 18.52, 258.82 8.29 M239.54 28.85 C246.51 21.09, 253.84 14.01, 258.79 8.34 M245.49 28.78 C249.34 24.38, 255.22 20.22, 257.85 14.23 M245.72 29.42 C248.53 25.84, 250.28 23.05, 257.62 14.67 M249.65 28.86 C252.79 26.65, 254.61 26.1, 256.54 20.16 M250.22 28.84 C251.96 27.08, 255.34 24.22, 257.88 21.42" stroke="#ced4da" stroke-width="0.5" fill="none"></path><path d="M-0.81 0.92 C90.66 1.53, 178.37 1.54, 255.03 0.21 M0.51 -0.12 C58.49 0.11, 116.92 0.75, 255.42 0.61 M256.99 1.3 C253.09 9.96, 253.94 24.04, 256.85 29.81 M255.7 -0.8 C255.58 5.84, 255.44 12.42, 255.94 27.91 M253.51 29.61 C183.39 26.47, 114.71 28.65, 1.04 26.92 M254.89 28.47 C171.44 28.84, 86.01 29.38, 0.66 27.3 M-1.03 29.91 C-1.25 18.42, 0.02 6.56, 0 0.1 M0.74 27.99 C0.4 18.39, 0.46 8.77, -0.67 0.73" stroke="#000000" stroke-width="1" fill="none"></path></g><g transform="translate(728 358.1502192020416) rotate(0 66 10)"><text x="0" y="14" font-family="Virgil, Segoe UI Emoji" font-size="16px" fill="#000000" text-anchor="start" style="white-space: pre;" direction="ltr">......... 56  ...........</text></g><g stroke-linecap="round"><g stroke-opacity="0.5" fill-opacity="0.5" transform="translate(824.5 406.6502192020416) rotate(0 0.04361469724210565 47.23826836026274)"><path d="M-0.84 -0.38 C-0.89 15.81, 0.27 80.14, 0.75 96.1 M0.92 -1.63 C0.6 14.35, -0.48 78.75, -0.32 94.56" stroke="#000000" stroke-width="1" fill="none"></path></g><g stroke-opacity="0.5" fill-opacity="0.5" transform="translate(824.5 406.6502192020416) rotate(0 0.04361469724210565 47.23826836026274)"><path d="M-11.06 65.91 C-4.9 79.19, -2.14 88.93, -0.22 96.5 M-10.28 65.43 C-7.92 72.33, -5.67 78.1, -0.3 95.21" stroke="#000000" stroke-width="1" fill="none"></path></g><g stroke-opacity="0.5" fill-opacity="0.5" transform="translate(824.5 406.6502192020416) rotate(0 0.04361469724210565 47.23826836026274)"><path d="M9.46 66.02 C7.63 79.12, 2.41 88.82, -0.22 96.5 M10.24 65.55 C8.43 72.48, 6.51 78.23, -0.3 95.21" stroke="#000000" stroke-width="1" fill="none"></path></g></g><g stroke-linecap="round"><g transform="translate(864.6640150482754 610.1502192020416) rotate(0 0.036419529388240335 -13.865298799797927)"><path d="M0.79 -0.04 C0.72 -4.59, 0.07 -23.24, 0.03 -27.69 M-0.26 -1.1 C-0.48 -5.48, -0.79 -22.49, -0.7 -26.52" stroke="#000000" stroke-width="1" fill="none"></path></g><g transform="translate(864.6640150482754 610.1502192020416) rotate(0 0.036419529388240335 -13.865298799797927)"><path d="M3.91 -13.38 C1.65 -17.04, 1.16 -21.09, -1.54 -25.63 M3.32 -14.31 C3.38 -16.19, 1.62 -18.49, -1.35 -26.53" stroke="#000000" stroke-width="1" fill="none"></path></g><g transform="translate(864.6640150482754 610.1502192020416) rotate(0 0.036419529388240335 -13.865298799797927)"><path d="M-5.33 -13.36 C-4.49 -17.09, -1.88 -21.14, -1.54 -25.63 M-5.91 -14.29 C-3.93 -16.17, -3.76 -18.47, -1.35 -26.53" stroke="#000000" stroke-width="1" fill="none"></path></g></g><g stroke-linecap="round"><g stroke-opacity="0.4" fill-opacity="0.4" transform="translate(984.25 556.1502192020416) rotate(0 262.0693272338249 0.7293243316527196)"><path d="M-0.04 0.41 C87.24 0.6, 435.92 1.63, 523.31 1.91 M-1.52 -0.42 C86.19 -0.63, 438.13 0.15, 525.65 0.27" stroke="#000000" stroke-width="1" fill="none"></path></g><g stroke-opacity="0.4" fill-opacity="0.4" transform="translate(984.25 556.1502192020416) rotate(0 262.0693272338249 0.7293243316527196)"><path d="M498.13 9.32 C506.49 8.17, 514.37 3.75, 526.98 -1.55 M496.76 11.26 C509.08 6.3, 520.77 1.69, 525.64 0.03" stroke="#000000" stroke-width="1" fill="none"></path></g><g stroke-opacity="0.4" fill-opacity="0.4" transform="translate(984.25 556.1502192020416) rotate(0 262.0693272338249 0.7293243316527196)"><path d="M498.17 -11.2 C506.65 -6.83, 514.52 -5.74, 526.98 -1.55 M496.8 -9.26 C509.09 -6.09, 520.77 -2.57, 525.64 0.03" stroke="#000000" stroke-width="1" fill="none"></path></g></g><g transform="translate(1554.25 542.1502192020416) rotate(0 80 12.5)"><text x="0" y="18" font-family="Virgil, Segoe UI Emoji" font-size="20px" fill="#000000" text-anchor="start" style="white-space: pre;" direction="ltr">N/4 = N / 2^ 2</text></g><g stroke-linecap="round" transform="translate(722.75 543.6502192020416) rotate(0 127.5 14)"><path d="M1.23 0.34 C77.19 0.18, 152.5 -0.28, 256.56 -0.06 M0.37 -0.32 C53.66 -2.38, 105.75 -1.8, 255.38 -0.15 M254.12 -0.07 C255.68 11.14, 255.23 21.76, 255.49 29.85 M255.43 0.08 C255.95 7.25, 255.41 14.54, 255.53 28.71 M256.51 26.79 C169.32 27.6, 87.06 27.03, -0.73 28.6 M255.43 27.61 C182.34 28.16, 109.12 28.96, -0.55 28.54 M0.19 29.66 C-1.27 16.82, 1.05 7.99, 0.24 0.86 M0.53 28.59 C-0.78 19.06, 0.33 8.97, 0.17 0.19" stroke="#000000" stroke-width="1" fill="none"></path></g><g transform="translate(734.75 546.6502192020416) rotate(0 66 10)"><text x="0" y="14" font-family="Virgil, Segoe UI Emoji" font-size="16px" fill="#000000" text-anchor="start" style="white-space: pre;" direction="ltr">......... 56  ...........</text></g><g transform="translate(807.5 618.6502192020416) rotate(0 56.5 12.5)"><text x="0" y="18" font-family="Virgil, Segoe UI Emoji" font-size="20px" fill="#000000" text-anchor="start" style="white-space: pre;" direction="ltr">middle index</text></g><g stroke-linecap="round" transform="translate(724.5 547.1502192020416) rotate(0 70.5 10.5)"><path d="M0 0 C0 0, 0 0, 0 0 M0 0 C0 0, 0 0, 0 0 M-0.35 6.91 C0.76 5.34, 3 3.7, 5.1 0.15 M0.12 6.2 C1.64 4.24, 3.69 2.01, 4.65 0.44 M0.07 12.55 C4.57 8.33, 6.07 4.69, 11.97 1.28 M-0.63 12.02 C2.45 9.07, 6.24 5.45, 10.14 -0.23 M1.52 20.37 C2.38 13.6, 7.41 8.28, 15.15 -0.83 M-0.82 17.63 C5.56 12.55, 9.5 7.08, 16.24 0.84 M2.48 21.93 C6.86 16.97, 14.66 9.02, 21.94 -1.97 M1.23 21.69 C9.28 14.79, 15.63 6.72, 20.79 -1 M8.37 20.77 C10.21 19.11, 16.73 12.4, 24.37 -1.46 M7.57 21.3 C12.73 16.42, 17.28 9.67, 26.54 1.03 M12.65 23.2 C19.94 13.64, 27.4 6.33, 32.07 -0.31 M13.11 22.13 C17.68 16.66, 22 11.13, 32.39 0.13 M18.55 21.88 C24.03 16.83, 27.01 10.91, 38.58 0.94 M17.84 22.64 C22.8 15.94, 29.69 8.84, 36.95 -0.57 M21.66 21.43 C29.12 14.97, 37.21 4.06, 43.73 -2.02 M23.22 21.51 C27.98 17.93, 33 11.92, 41.68 0.6 M28.41 22.23 C33.97 14.59, 44.08 6.93, 47.65 0.62 M29.28 22.2 C35.05 14.31, 42.88 5.33, 46.55 -0.54 M33.99 22.26 C37.63 16.98, 42.78 10.53, 53.15 0.55 M34.33 22.57 C39.89 14.62, 48.72 4.85, 53.18 0.52 M40.15 21.63 C44.02 14.87, 50.68 8.12, 59.68 1.17 M39.42 22.17 C46.56 14.92, 54.78 4.27, 58.54 0.65 M44.38 20.64 C49.98 14.59, 60.15 3.19, 65.78 1.36 M43.33 22.15 C49.45 15.73, 55.44 8.24, 64.05 -0.41 M47.17 23.88 C56.67 14.17, 64.24 6.86, 66.98 1.4 M48.43 22.06 C54.58 16.01, 61.31 9.75, 69.27 -0.36 M55.75 22.76 C57.58 18.18, 62.83 11.11, 74.28 -1.36 M54.25 22.21 C62.94 14.59, 69.14 4.84, 75.07 0.14 M60.09 23.35 C64.06 17.53, 67.99 12.6, 80.06 1.44 M60.12 22.25 C63.92 17.37, 69.45 11.39, 79.23 -0.82 M65.26 24.14 C69.87 16.33, 74.38 10.75, 84.54 0.9 M65.29 22.8 C73.01 13.6, 80.11 4.65, 85.68 0.09 M71.44 23.91 C77.49 16.68, 85.29 7.42, 89.69 0.7 M69.62 21.99 C75.39 17.41, 80.67 11.3, 90.06 -0.87 M74.29 23.53 C79.97 16.83, 88.46 8.9, 93.68 0.92 M75.74 23.09 C81.21 18.29, 85.2 12.44, 94.95 -0.01 M80.94 21.75 C86.77 17.28, 93.45 9.83, 100.82 -0.15 M81.69 23.12 C89.16 13.55, 96.47 5.51, 101.51 -0.55 M86.41 21.01 C90.48 15.51, 96.48 8.25, 108.01 -2.22 M87.08 22.38 C94.16 13.69, 99.86 5.48, 106.61 -0.03 M93.55 23.29 C99.52 14.37, 104.71 8.86, 110.65 -1.14 M91.74 23.1 C98.51 15.32, 104.35 6.85, 110.51 -0.77 M97.45 23.9 C102.74 17.52, 106.65 9.98, 116.43 -0.4 M97.9 23.03 C102.5 16.5, 105.49 11.72, 115.36 -0.46 M101.43 23.28 C110.6 14.7, 113.9 6.65, 122.57 -1.03 M102.81 22.01 C107.49 15.82, 113.13 9.52, 122.11 -0.35 M109.43 20.83 C112.7 16.69, 114.72 11.65, 127.01 -1.51 M106.94 21.56 C111.88 17.36, 116.33 12.42, 126.49 -0.42 M113.98 22.72 C117.35 15.18, 123.63 10.26, 132.21 0.71 M112.58 23.52 C120.15 14.28, 128.31 4.96, 132.49 -1 M116.6 23.7 C122.57 16.31, 128.2 10.08, 137.08 1.12 M118.07 21.58 C122.89 15.39, 128.92 11.26, 137 -0.2 M123.79 22.91 C131.12 13.58, 137.54 8.21, 140.76 2.64 M124.39 21.92 C128.85 15.3, 136.43 9.2, 143.34 0.44 M127.42 21.69 C131.93 17.57, 135.22 13.6, 143.93 6.49 M129.33 22.79 C132.79 16.9, 136.69 13.35, 141.26 7.58 M133.27 23.05 C135.62 19.83, 138.36 18.32, 141.06 13.28 M134.16 22.87 C136.05 19.87, 139.34 17.23, 142.17 13.07 M139.53 22.35 C140.45 21.36, 140.89 20.85, 142.57 18.8 M139.79 22.1 C140.41 21.57, 140.77 20.58, 142.42 19.01" stroke="#ced4da" stroke-width="0.5" fill="none"></path><path d="M-1.18 -0.49 C36.43 0.66, 72.18 -1.35, 140.91 0.05 M0.92 -0.13 C36.48 1.06, 71.63 0.09, 141.79 0.18 M142.3 1.49 C141.21 5.76, 139.21 12.1, 139.25 22.2 M140.82 0.1 C141.16 7.45, 140.67 15.29, 141.76 20.55 M142.62 22.88 C102.74 18.85, 67.96 20.8, 1.26 21.3 M141.94 21.7 C111.19 23.18, 79.15 23.21, 0.29 20.78 M0.31 21.44 C-1.77 11.57, -1.02 5.21, 0.92 -1.61 M-1 20.46 C0.3 15.87, 0.52 9.8, 0.08 -0.43" stroke="#000000" stroke-width="1" fill="none"></path></g><g transform="translate(1335 155.15021920204163) rotate(0 65 12.5)"><text x="0" y="18" font-family="Virgil, Segoe UI Emoji" font-size="20px" fill="#000000" text-anchor="start" style="white-space: pre;" direction="ltr">0th iteration</text></g><g transform="translate(1330 328.1502192020416) rotate(0 61 12.5)"><text x="0" y="18" font-family="Virgil, Segoe UI Emoji" font-size="20px" fill="#000000" text-anchor="start" style="white-space: pre;" direction="ltr">1st iteration</text></g><g transform="translate(1341 517.1502192020416) rotate(0 65 12.5)"><text x="0" y="18" font-family="Virgil, Segoe UI Emoji" font-size="20px" fill="#000000" text-anchor="start" style="white-space: pre;" direction="ltr">2nd iteration</text></g><g stroke-linecap="round"><g stroke-opacity="0.5" fill-opacity="0.5" transform="translate(783.5471501350403 604.193925509285) rotate(0 1.612064154818654 41.9621617609356)"><path d="M0.93 -0.75 C1.12 13.3, 2.18 70.59, 2.3 84.67" stroke="#000000" stroke-width="1.5" fill="none" stroke-dasharray="1.5 7"></path></g></g><g stroke-linecap="round" transform="translate(756.9572355747223 704.8563559055328) rotate(0 31 13)"><path d="M1.92 1.37 C23.29 -0.8, 48.8 -0.94, 63.28 0.03 M-0.63 0.34 C19.58 -0.37, 41.44 0.41, 61.58 0.38 M61.33 0.03 C63.19 4.45, 60.71 9.26, 60.3 26.54 M62.14 -0.7 C62.8 10.2, 62.04 20.85, 61.04 26.97 M62.38 25.48 C43.11 28.39, 26.23 25.07, -0.86 27.49 M61.45 26.72 C40.09 25, 19.02 25.71, -0.49 25.89 M0.15 25.67 C-2.09 20.21, 1.05 12.85, -1.48 -1.07 M-0.55 26.87 C-0.46 16.58, 0.71 8.29, -0.44 0.38" stroke="#000000" stroke-width="1" fill="none"></path></g><g transform="translate(773.9572355747223 705.8563559055328) rotate(0 12.5 12.5)"><text x="12.5" y="18" font-family="Virgil, Segoe UI Emoji" font-size="20px" fill="#000000" text-anchor="middle" style="white-space: pre;" direction="ltr">56</text></g><g stroke-linecap="round"><g stroke-opacity="0.4" fill-opacity="0.4" transform="translate(807.9572355747223 719.8563559055328) rotate(0 358.3344763600081 0.8425160662085318)"><path d="M0.88 -1.03 C119.95 -0.75, 595.32 1, 714.39 1.46 M-0.11 1.04 C119.35 1.49, 597.65 2.4, 716.78 2.72" stroke="#000000" stroke-width="1" fill="none"></path></g><g stroke-opacity="0.4" fill-opacity="0.4" transform="translate(807.9572355747223 719.8563559055328) rotate(0 358.3344763600081 0.8425160662085318)"><path d="M686.85 11.9 C696.15 10.11, 705.08 8.53, 715.84 2.7 M688.33 13.86 C699.52 9.82, 710.2 5.89, 717.2 2.55" stroke="#000000" stroke-width="1" fill="none"></path></g><g stroke-opacity="0.4" fill-opacity="0.4" transform="translate(807.9572355747223 719.8563559055328) rotate(0 358.3344763600081 0.8425160662085318)"><path d="M686.89 -8.62 C696.15 -4.26, 705.06 0.31, 715.84 2.7 M688.37 -6.66 C699.37 -3.1, 710.03 0.56, 717.2 2.55" stroke="#000000" stroke-width="1" fill="none"></path></g></g><g transform="translate(1353.9572355747223 671.3563559055328) rotate(0 63 12.5)"><text x="0" y="18" font-family="Virgil, Segoe UI Emoji" font-size="20px" fill="#000000" text-anchor="start" style="white-space: pre;" direction="ltr">kth iteration</text></g><g transform="translate(1554.4572355747223 697.3563559055328) rotate(0 63 12.5)"><text x="0" y="18" font-family="Virgil, Segoe UI Emoji" font-size="20px" fill="#000000" text-anchor="start" style="white-space: pre;" direction="ltr">1 = N / 2^ k</text></g><g transform="translate(58.95723557472229 266.35635590553284) rotate(0 335.5 237.5)"><text x="0" y="18" font-family="Virgil, Segoe UI Emoji" font-size="20px" fill="#000000" text-anchor="start" style="white-space: pre;" direction="ltr">In this case, there were k iterations to </text><text x="0" y="43" font-family="Virgil, Segoe UI Emoji" font-size="20px" fill="#000000" text-anchor="start" style="white-space: pre;" direction="ltr">arrive at the point where the search space is 1</text><text x="0" y="68" font-family="Virgil, Segoe UI Emoji" font-size="20px" fill="#000000" text-anchor="start" style="white-space: pre;" direction="ltr"></text><text x="0" y="93" font-family="Virgil, Segoe UI Emoji" font-size="20px" fill="#000000" text-anchor="start" style="white-space: pre;" direction="ltr">At this point either the element is present</text><text x="0" y="118" font-family="Virgil, Segoe UI Emoji" font-size="20px" fill="#000000" text-anchor="start" style="white-space: pre;" direction="ltr">at that index or not. If it is present, we return </text><text x="0" y="143" font-family="Virgil, Segoe UI Emoji" font-size="20px" fill="#000000" text-anchor="start" style="white-space: pre;" direction="ltr">the value of the index or return -1</text><text x="0" y="168" font-family="Virgil, Segoe UI Emoji" font-size="20px" fill="#000000" text-anchor="start" style="white-space: pre;" direction="ltr"></text><text x="0" y="193" font-family="Virgil, Segoe UI Emoji" font-size="20px" fill="#000000" text-anchor="start" style="white-space: pre;" direction="ltr">So assuming a given array does not have the given search element </text><text x="0" y="218" font-family="Virgil, Segoe UI Emoji" font-size="20px" fill="#000000" text-anchor="start" style="white-space: pre;" direction="ltr">there will occur 'k' iterations such that </text><text x="0" y="243" font-family="Virgil, Segoe UI Emoji" font-size="20px" fill="#000000" text-anchor="start" style="white-space: pre;" direction="ltr"></text><text x="0" y="268" font-family="Virgil, Segoe UI Emoji" font-size="20px" fill="#000000" text-anchor="start" style="white-space: pre;" direction="ltr">At the kth iteration, the search space would be 1</text><text x="0" y="293" font-family="Virgil, Segoe UI Emoji" font-size="20px" fill="#000000" text-anchor="start" style="white-space: pre;" direction="ltr"></text><text x="0" y="318" font-family="Virgil, Segoe UI Emoji" font-size="20px" fill="#000000" text-anchor="start" style="white-space: pre;" direction="ltr">N / 2^k = 1   =&gt;  2^k = N</text><text x="0" y="343" font-family="Virgil, Segoe UI Emoji" font-size="20px" fill="#000000" text-anchor="start" style="white-space: pre;" direction="ltr"></text><text x="0" y="368" font-family="Virgil, Segoe UI Emoji" font-size="20px" fill="#000000" text-anchor="start" style="white-space: pre;" direction="ltr">log(2^k) = log(n)  =&gt;  k* log(2) = log(n)   </text><text x="0" y="393" font-family="Virgil, Segoe UI Emoji" font-size="20px" fill="#000000" text-anchor="start" style="white-space: pre;" direction="ltr"></text><text x="0" y="418" font-family="Virgil, Segoe UI Emoji" font-size="20px" fill="#000000" text-anchor="start" style="white-space: pre;" direction="ltr">k = log2(n)  =&gt; log base 2 of n</text><text x="0" y="443" font-family="Virgil, Segoe UI Emoji" font-size="20px" fill="#000000" text-anchor="start" style="white-space: pre;" direction="ltr"></text><text x="0" y="468" font-family="Virgil, Segoe UI Emoji" font-size="20px" fill="#000000" text-anchor="start" style="white-space: pre;" direction="ltr"></text></g></svg>